Fira Mono-Regular.ufo
<glyph name=".null" format="1">
  <advance width="1644"/>
  <unicode hex="0000"/>
  <outline>
    <contour>
      <point x="155" y="783" type="line"/>
      <point x="395" y="194" type="line"/>
      <point x="515" y="194" type="line"/>
      <point x="515" y="882" type="line"/>
      <point x="435" y="882" type="line"/>
      <point x="435" y="537" type="line"/>
      <point x="447" y="434"/>
      <point x="447" y="290" type="qcurve"/>
      <point x="443" y="290" type="line"/>
      <point x="199" y="882" type="line"/>
      <point x="83" y="882" type="line"/>
      <point x="83" y="194" type="line"/>
      <point x="163" y="194" type="line"/>
      <point x="163" y="540" type="line"/>
      <point x="151" y="627"/>
      <point x="151" y="783" type="qcurve"/>
    </contour>
    <contour>
      <point x="1065" y="881" type="line"/>
      <point x="979" y="881" type="line"/>
      <point x="979" y="412" type="line" smooth="yes"/>
      <point x="979" y="256"/>
      <point x="837" y="256" type="qcurve" smooth="yes"/>
      <point x="696" y="256"/>
      <point x="696" y="412" type="qcurve" smooth="yes"/>
      <point x="696" y="881" type="line"/>
      <point x="611" y="881" type="line"/>
      <point x="611" y="416" type="line" smooth="yes"/>
      <point x="611" y="310"/>
      <point x="671" y="247" type="qcurve" smooth="yes"/>
      <point x="732" y="182"/>
      <point x="837" y="182" type="qcurve" smooth="yes"/>
      <point x="941" y="182"/>
      <point x="1003" y="247" type="qcurve" smooth="yes"/>
      <point x="1065" y="311"/>
      <point x="1065" y="416" type="qcurve" smooth="yes"/>
    </contour>
    <contour>
      <point x="1624" y="966" type="line"/>
      <point x="1624" y="69" type="line"/>
      <point x="20" y="69" type="line"/>
      <point x="20" y="966" type="line"/>
    </contour>
    <contour>
      <point x="1185" y="876" type="line"/>
      <point x="1185" y="188" type="line"/>
      <point x="1575" y="188" type="line"/>
      <point x="1585" y="265" type="line"/>
      <point x="1271" y="265" type="line"/>
      <point x="1271" y="876" type="line"/>
    </contour>
  </outline>
</glyph>
<glyph name="uni0001" format="1">
  <advance width="1644"/>
  <unicode hex="0001"/>
  <outline>
    <contour>
      <point x="1624" y="966" type="line"/>
      <point x="1624" y="69" type="line"/>
      <point x="20" y="69" type="line"/>
      <point x="20" y="966" type="line"/>
    </contour>
    <contour>
      <point x="541" y="376" type="qcurve" smooth="yes"/>
      <point x="541" y="465"/>
      <point x="481" y="517" type="qcurve" smooth="yes"/>
      <point x="436" y="555"/>
      <point x="340" y="583" type="qcurve" smooth="yes"/>
      <point x="241" y="612"/>
      <point x="204" y="639" type="qcurve" smooth="yes"/>
      <point x="166" y="666"/>
      <point x="166" y="710" type="qcurve" smooth="yes"/>
      <point x="166" y="760"/>
      <point x="207" y="787" type="qcurve" smooth="yes"/>
      <point x="244" y="813"/>
      <point x="304" y="813" type="qcurve" smooth="yes"/>
      <point x="400" y="813"/>
      <point x="470" y="750" type="qcurve"/>
      <point x="521" y="806" type="line"/>
      <point x="429" y="885"/>
      <point x="302" y="885" type="qcurve" smooth="yes"/>
      <point x="203" y="885"/>
      <point x="141" y="835" type="qcurve" smooth="yes"/>
      <point x="79" y="786"/>
      <point x="79" y="708" type="qcurve" smooth="yes"/>
      <point x="79" y="631"/>
      <point x="139" y="582" type="qcurve" smooth="yes"/>
      <point x="189" y="542"/>
      <point x="301" y="509" type="qcurve" smooth="yes"/>
      <point x="389" y="483"/>
      <point x="421" y="454" type="qcurve" smooth="yes"/>
      <point x="452" y="425"/>
      <point x="452" y="374" type="qcurve" smooth="yes"/>
      <point x="452" y="312"/>
      <point x="403" y="277" type="qcurve" smooth="yes"/>
      <point x="359" y="246"/>
      <point x="292" y="246" type="qcurve" smooth="yes"/>
      <point x="178" y="246"/>
      <point x="100" y="319" type="qcurve"/>
      <point x="49" y="261" type="line"/>
      <point x="139" y="174"/>
      <point x="290" y="174" type="qcurve" smooth="yes"/>
      <point x="408" y="174"/>
      <point x="476" y="230" type="qcurve" smooth="yes"/>
      <point x="541" y="285"/>
    </contour>
    <contour>
      <point x="1077" y="525" type="qcurve" smooth="yes"/>
      <point x="1077" y="688"/>
      <point x="1013" y="783" type="qcurve" smooth="yes"/>
      <point x="946" y="881"/>
      <point x="824" y="881" type="qcurve" smooth="yes"/>
      <point x="702" y="881"/>
      <point x="635" y="780" type="qcurve" smooth="yes"/>
      <point x="571" y="685"/>
      <point x="571" y="523" type="qcurve" smooth="yes"/>
      <point x="571" y="360"/>
      <point x="635" y="267" type="qcurve" smooth="yes"/>
      <point x="701" y="170"/>
      <point x="824" y="170" type="qcurve" smooth="yes"/>
      <point x="946" y="170"/>
      <point x="1013" y="269" type="qcurve" smooth="yes"/>
      <point x="1077" y="364"/>
    </contour>
    <contour>
      <point x="998" y="525" type="qcurve" smooth="yes"/>
      <point x="998" y="242"/>
      <point x="834" y="242" type="qcurve" smooth="yes"/>
      <point x="670" y="242"/>
      <point x="670" y="523" type="qcurve" smooth="yes"/>
      <point x="670" y="808"/>
      <point x="834" y="808" type="qcurve" smooth="yes"/>
      <point x="998" y="808"/>
    </contour>
    <contour>
      <point x="1489" y="510" type="line"/>
      <point x="1489" y="182" type="line"/>
      <point x="1574" y="182" type="line"/>
      <point x="1574" y="870" type="line"/>
      <point x="1489" y="870" type="line"/>
      <point x="1489" y="579" type="line"/>
      <point x="1227" y="579" type="line"/>
      <point x="1227" y="870" type="line"/>
      <point x="1142" y="870" type="line"/>
      <point x="1142" y="182" type="line"/>
      <point x="1227" y="182" type="line"/>
      <point x="1227" y="510" type="line"/>
    </contour>
  </outline>
</glyph>
<glyph name="uni0002" format="1">
  <advance width="1644"/>
  <unicode hex="0002"/>
  <outline>
    <contour>
      <point x="1624" y="966" type="line"/>
      <point x="1624" y="69" type="line"/>
      <point x="20" y="69" type="line"/>
      <point x="20" y="966" type="line"/>
    </contour>
    <contour>
      <point x="538" y="391" type="qcurve" smooth="yes"/>
      <point x="538" y="480"/>
      <point x="478" y="532" type="qcurve" smooth="yes"/>
      <point x="433" y="570"/>
      <point x="337" y="598" type="qcurve" smooth="yes"/>
      <point x="238" y="627"/>
      <point x="201" y="654" type="qcurve" smooth="yes"/>
      <point x="163" y="681"/>
      <point x="163" y="725" type="qcurve" smooth="yes"/>
      <point x="163" y="775"/>
      <point x="204" y="802" type="qcurve" smooth="yes"/>
      <point x="241" y="828"/>
      <point x="301" y="828" type="qcurve" smooth="yes"/>
      <point x="397" y="828"/>
      <point x="467" y="765" type="qcurve"/>
      <point x="518" y="821" type="line"/>
      <point x="426" y="900"/>
      <point x="299" y="900" type="qcurve" smooth="yes"/>
      <point x="200" y="900"/>
      <point x="138" y="850" type="qcurve" smooth="yes"/>
      <point x="76" y="801"/>
      <point x="76" y="723" type="qcurve" smooth="yes"/>
      <point x="76" y="646"/>
      <point x="136" y="597" type="qcurve" smooth="yes"/>
      <point x="186" y="557"/>
      <point x="298" y="524" type="qcurve" smooth="yes"/>
      <point x="386" y="498"/>
      <point x="418" y="469" type="qcurve" smooth="yes"/>
      <point x="449" y="440"/>
      <point x="449" y="389" type="qcurve" smooth="yes"/>
      <point x="449" y="327"/>
      <point x="400" y="292" type="qcurve" smooth="yes"/>
      <point x="356" y="261"/>
      <point x="289" y="261" type="qcurve" smooth="yes"/>
      <point x="175" y="261"/>
      <point x="97" y="334" type="qcurve"/>
      <point x="46" y="276" type="line"/>
      <point x="136" y="189"/>
      <point x="287" y="189" type="qcurve" smooth="yes"/>
      <point x="405" y="189"/>
      <point x="473" y="245" type="qcurve" smooth="yes"/>
      <point x="538" y="300"/>
    </contour>
    <contour>
      <point x="843" y="190" type="line"/>
      <point x="843" y="805" type="line"/>
      <point x="1052" y="805" type="line"/>
      <point x="1061" y="878" type="line"/>
      <point x="542" y="878" type="line"/>
      <point x="542" y="805" type="line"/>
      <point x="758" y="805" type="line"/>
      <point x="758" y="190" type="line"/>
    </contour>
    <contour>
      <point x="1190" y="878" type="line"/>
      <point x="1092" y="878" type="line"/>
      <point x="1290" y="557" type="line"/>
      <point x="1073" y="190" type="line"/>
      <point x="1165" y="190" type="line"/>
      <point x="1340" y="502" type="line"/>
      <point x="1512" y="190" type="line"/>
      <point x="1611" y="190" type="line"/>
      <point x="1391" y="562" type="line"/>
      <point x="1587" y="878" type="line"/>
      <point x="1494" y="878" type="line"/>
      <point x="1342" y="613" type="line"/>
    </contour>
  </outline>
</glyph>
<glyph name="uni0003" format="1">
  <advance width="1644"/>
  <unicode hex="0003"/>
  <outline>
    <contour>
      <point x="1624" y="966" type="line"/>
      <point x="1624" y="69" type="line"/>
      <point x="20" y="69" type="line"/>
      <point x="20" y="966" type="line"/>
    </contour>
    <contour>
      <point x="833" y="190" type="line"/>
      <point x="833" y="805" type="line"/>
      <point x="1042" y="805" type="line"/>
      <point x="1051" y="878" type="line"/>
      <point x="532" y="878" type="line"/>
      <point x="532" y="805" type="line"/>
      <point x="748" y="805" type="line"/>
      <point x="748" y="190" type="line"/>
    </contour>
    <contour>
      <point x="184" y="575" type="line"/>
      <point x="184" y="808" type="line"/>
      <point x="478" y="808" type="line"/>
      <point x="488" y="878" type="line"/>
      <point x="98" y="878" type="line"/>
      <point x="98" y="190" type="line"/>
      <point x="497" y="190" type="line"/>
      <point x="497" y="259" type="line"/>
      <point x="184" y="259" type="line"/>
      <point x="184" y="504" type="line"/>
      <point x="439" y="504" type="line"/>
      <point x="439" y="575" type="line"/>
    </contour>
    <contour>
      <point x="1190" y="878" type="line"/>
      <point x="1092" y="878" type="line"/>
      <point x="1290" y="557" type="line"/>
      <point x="1073" y="190" type="line"/>
      <point x="1165" y="190" type="line"/>
      <point x="1340" y="502" type="line"/>
      <point x="1512" y="190" type="line"/>
      <point x="1611" y="190" type="line"/>
      <point x="1391" y="562" type="line"/>
      <point x="1587" y="878" type="line"/>
      <point x="1494" y="878" type="line"/>
      <point x="1342" y="613" type="line"/>
    </contour>
  </outline>
</glyph>
<glyph name="uni0004" format="1">
  <advance width="1644"/>
  <unicode hex="0004"/>
  <outline>
    <contour>
      <point x="1624" y="966" type="line"/>
      <point x="1624" y="69" type="line"/>
      <point x="20" y="69" type="line"/>
      <point x="20" y="966" type="line"/>
    </contour>
    <contour>
      <point x="1363" y="180" type="line"/>
      <point x="1363" y="795" type="line"/>
      <point x="1572" y="795" type="line"/>
      <point x="1581" y="868" type="line"/>
      <point x="1062" y="868" type="line"/>
      <point x="1062" y="795" type="line"/>
      <point x="1278" y="795" type="line"/>
      <point x="1278" y="180" type="line"/>
    </contour>
    <contour>
      <point x="184" y="575" type="line"/>
      <point x="184" y="808" type="line"/>
      <point x="478" y="808" type="line"/>
      <point x="488" y="878" type="line"/>
      <point x="98" y="878" type="line"/>
      <point x="98" y="190" type="line"/>
      <point x="497" y="190" type="line"/>
      <point x="497" y="259" type="line"/>
      <point x="184" y="259" type="line"/>
      <point x="184" y="504" type="line"/>
      <point x="439" y="504" type="line"/>
      <point x="439" y="575" type="line"/>
    </contour>
    <contour>
      <point x="1035" y="534" type="qcurve" smooth="yes"/>
      <point x="1035" y="697"/>
      <point x="971" y="792" type="qcurve" smooth="yes"/>
      <point x="904" y="890"/>
      <point x="782" y="890" type="qcurve" smooth="yes"/>
      <point x="660" y="890"/>
      <point x="593" y="789" type="qcurve" smooth="yes"/>
      <point x="529" y="694"/>
      <point x="529" y="532" type="qcurve" smooth="yes"/>
      <point x="529" y="369"/>
      <point x="593" y="276" type="qcurve" smooth="yes"/>
      <point x="659" y="179"/>
      <point x="782" y="179" type="qcurve" smooth="yes"/>
      <point x="904" y="179"/>
      <point x="971" y="278" type="qcurve" smooth="yes"/>
      <point x="1035" y="373"/>
    </contour>
    <contour>
      <point x="946" y="534" type="qcurve" smooth="yes"/>
      <point x="946" y="251"/>
      <point x="782" y="251" type="qcurve" smooth="yes"/>
      <point x="618" y="251"/>
      <point x="618" y="532" type="qcurve" smooth="yes"/>
      <point x="618" y="817"/>
      <point x="782" y="817" type="qcurve" smooth="yes"/>
      <point x="946" y="817"/>
    </contour>
  </outline>
</glyph>
<glyph name="uni0005" format="1">
  <advance width="1644"/>
  <unicode hex="0005"/>
  <outline>
    <contour>
      <point x="1575" y="544" type="qcurve" smooth="yes"/>
      <point x="1575" y="707"/>
      <point x="1511" y="802" type="qcurve" smooth="yes"/>
      <point x="1444" y="900"/>
      <point x="1322" y="900" type="qcurve" smooth="yes"/>
      <point x="1199" y="900"/>
      <point x="1132" y="799" type="qcurve" smooth="yes"/>
      <point x="1068" y="704"/>
      <point x="1068" y="542" type="qcurve" smooth="yes"/>
      <point x="1068" y="380"/>
      <point x="1131" y="287" type="qcurve" smooth="yes"/>
      <point x="1195" y="191"/>
      <point x="1312" y="191" type="qcurve" smooth="yes"/>
      <point x="1397" y="191"/>
      <point x="1468" y="167" type="qcurve"/>
      <point x="1482" y="144"/>
      <point x="1487" y="137" type="qcurve"/>
      <point x="1596" y="117" type="line"/>
      <point x="1568" y="199"/>
      <point x="1438" y="226" type="qcurve"/>
      <point x="1575" y="307"/>
    </contour>
    <contour>
      <point x="645" y="783" type="line"/>
      <point x="885" y="194" type="line"/>
      <point x="1005" y="194" type="line"/>
      <point x="1005" y="882" type="line"/>
      <point x="925" y="882" type="line"/>
      <point x="925" y="537" type="line"/>
      <point x="937" y="434"/>
      <point x="937" y="290" type="qcurve"/>
      <point x="933" y="290" type="line"/>
      <point x="689" y="882" type="line"/>
      <point x="573" y="882" type="line"/>
      <point x="573" y="194" type="line"/>
      <point x="653" y="194" type="line"/>
      <point x="653" y="540" type="line"/>
      <point x="641" y="627"/>
      <point x="641" y="783" type="qcurve"/>
    </contour>
    <contour>
      <point x="1624" y="966" type="line"/>
      <point x="1624" y="69" type="line"/>
      <point x="20" y="69" type="line"/>
      <point x="20" y="966" type="line"/>
    </contour>
    <contour>
      <point x="174" y="585" type="line"/>
      <point x="174" y="818" type="line"/>
      <point x="468" y="818" type="line"/>
      <point x="478" y="888" type="line"/>
      <point x="88" y="888" type="line"/>
      <point x="88" y="200" type="line"/>
      <point x="487" y="200" type="line"/>
      <point x="487" y="269" type="line"/>
      <point x="174" y="269" type="line"/>
      <point x="174" y="514" type="line"/>
      <point x="429" y="514" type="line"/>
      <point x="429" y="585" type="line"/>
    </contour>
    <contour>
      <point x="1486" y="544" type="qcurve" smooth="yes"/>
      <point x="1486" y="261"/>
      <point x="1322" y="261" type="qcurve" smooth="yes"/>
      <point x="1157" y="261"/>
      <point x="1157" y="542" type="qcurve" smooth="yes"/>
      <point x="1157" y="828"/>
      <point x="1322" y="828" type="qcurve" smooth="yes"/>
      <point x="1486" y="828"/>
    </contour>
  </outline>
</glyph>
<glyph name="uni0006" format="1">
  <advance width="1644"/>
  <unicode hex="0006"/>
  <outline>
    <contour>
      <point x="1624" y="966" type="line"/>
      <point x="1624" y="69" type="line"/>
      <point x="20" y="69" type="line"/>
      <point x="20" y="966" type="line"/>
    </contour>
    <contour>
      <point x="193" y="366" type="line"/>
      <point x="466" y="366" type="line"/>
      <point x="521" y="190" type="line"/>
      <point x="611" y="190" type="line"/>
      <point x="387" y="878" type="line"/>
      <point x="277" y="878" type="line"/>
      <point x="53" y="190" type="line"/>
      <point x="137" y="190" type="line"/>
    </contour>
    <contour>
      <point x="444" y="437" type="line"/>
      <point x="215" y="437" type="line"/>
      <point x="330" y="806" type="line"/>
    </contour>
    <contour>
      <point x="1128" y="190" type="line"/>
      <point x="1213" y="190" type="line"/>
      <point x="1213" y="878" type="line"/>
      <point x="1128" y="878" type="line"/>
    </contour>
    <contour>
      <point x="1490" y="878" type="line"/>
      <point x="1218" y="558" type="line"/>
      <point x="1501" y="190" type="line"/>
      <point x="1608" y="190" type="line"/>
      <point x="1319" y="563" type="line"/>
      <point x="1589" y="878" type="line"/>
    </contour>
    <contour>
      <point x="870" y="890" type="qcurve" smooth="yes"/>
      <point x="745" y="890"/>
      <point x="663" y="800" type="qcurve" smooth="yes"/>
      <point x="576" y="702"/>
      <point x="576" y="535" type="qcurve" smooth="yes"/>
      <point x="576" y="366"/>
      <point x="662" y="270" type="qcurve" smooth="yes"/>
      <point x="743" y="179"/>
      <point x="874" y="179" type="qcurve" smooth="yes"/>
      <point x="1003" y="179"/>
      <point x="1079" y="253" type="qcurve"/>
      <point x="1035" y="310" type="line"/>
      <point x="963" y="252"/>
      <point x="875" y="252" type="qcurve" smooth="yes"/>
      <point x="780" y="252"/>
      <point x="726" y="316" type="qcurve" smooth="yes"/>
      <point x="665" y="389"/>
      <point x="665" y="535" type="qcurve" smooth="yes"/>
      <point x="665" y="683"/>
      <point x="728" y="756" type="qcurve" smooth="yes"/>
      <point x="782" y="818"/>
      <point x="876" y="818" type="qcurve" smooth="yes"/>
      <point x="959" y="818"/>
      <point x="1021" y="767" type="qcurve"/>
      <point x="1069" y="823" type="line"/>
      <point x="985" y="890"/>
    </contour>
  </outline>
</glyph>
<glyph name="uni0007" format="1">
  <advance width="1644"/>
  <unicode hex="0007"/>
  <outline>
    <contour>
      <point x="1624" y="966" type="line"/>
      <point x="1624" y="69" type="line"/>
      <point x="20" y="69" type="line"/>
      <point x="20" y="966" type="line"/>
    </contour>
    <contour>
      <point x="1165" y="876" type="line"/>
      <point x="1165" y="188" type="line"/>
      <point x="1555" y="188" type="line"/>
      <point x="1565" y="265" type="line"/>
      <point x="1251" y="265" type="line"/>
      <point x="1251" y="876" type="line"/>
    </contour>
    <contour>
      <point x="734" y="565" type="line"/>
      <point x="734" y="798" type="line"/>
      <point x="1028" y="798" type="line"/>
      <point x="1038" y="868" type="line"/>
      <point x="648" y="868" type="line"/>
      <point x="648" y="180" type="line"/>
      <point x="1047" y="180" type="line"/>
      <point x="1047" y="249" type="line"/>
      <point x="734" y="249" type="line"/>
      <point x="734" y="494" type="line"/>
      <point x="989" y="494" type="line"/>
      <point x="989" y="565" type="line"/>
    </contour>
    <contour>
      <point x="551" y="376" type="qcurve" smooth="yes"/>
      <point x="551" y="518"/>
      <point x="393" y="545" type="qcurve"/>
      <point x="521" y="572"/>
      <point x="521" y="695" type="qcurve" smooth="yes"/>
      <point x="521" y="868"/>
      <point x="278" y="868" type="qcurve" smooth="yes"/>
      <point x="109" y="868" type="line"/>
      <point x="109" y="180" type="line"/>
      <point x="293" y="180" type="line" smooth="yes"/>
      <point x="403" y="180"/>
      <point x="470" y="222" type="qcurve" smooth="yes"/>
      <point x="551" y="272"/>
    </contour>
    <contour>
      <point x="433" y="690" type="qcurve" smooth="yes"/>
      <point x="433" y="575"/>
      <point x="306" y="575" type="qcurve" smooth="yes"/>
      <point x="194" y="575" type="line"/>
      <point x="194" y="799" type="line"/>
      <point x="298" y="799" type="line" smooth="yes"/>
      <point x="433" y="799"/>
    </contour>
    <contour>
      <point x="461" y="373" type="qcurve" smooth="yes"/>
      <point x="461" y="251"/>
      <point x="309" y="251" type="qcurve" smooth="yes"/>
      <point x="194" y="251" type="line"/>
      <point x="194" y="504" type="line"/>
      <point x="313" y="504" type="line" smooth="yes"/>
      <point x="461" y="504"/>
    </contour>
  </outline>
</glyph>
<glyph name="uni0008" format="1">
  <advance width="1047"/>
  <unicode hex="0008"/>
  <outline>
    <contour>
      <point x="1027" y="966" type="line"/>
      <point x="1027" y="69" type="line"/>
      <point x="20" y="69" type="line"/>
      <point x="20" y="966" type="line"/>
    </contour>
    <contour>
      <point x="996" y="381" type="qcurve" smooth="yes"/>
      <point x="996" y="470"/>
      <point x="936" y="522" type="qcurve" smooth="yes"/>
      <point x="891" y="560"/>
      <point x="795" y="588" type="qcurve" smooth="yes"/>
      <point x="696" y="617"/>
      <point x="659" y="644" type="qcurve" smooth="yes"/>
      <point x="621" y="671"/>
      <point x="621" y="715" type="qcurve" smooth="yes"/>
      <point x="621" y="765"/>
      <point x="662" y="792" type="qcurve" smooth="yes"/>
      <point x="699" y="818"/>
      <point x="759" y="818" type="qcurve" smooth="yes"/>
      <point x="855" y="818"/>
      <point x="925" y="755" type="qcurve"/>
      <point x="976" y="811" type="line"/>
      <point x="884" y="890"/>
      <point x="757" y="890" type="qcurve" smooth="yes"/>
      <point x="658" y="890"/>
      <point x="596" y="840" type="qcurve" smooth="yes"/>
      <point x="534" y="791"/>
      <point x="534" y="713" type="qcurve" smooth="yes"/>
      <point x="534" y="636"/>
      <point x="594" y="587" type="qcurve" smooth="yes"/>
      <point x="644" y="547"/>
      <point x="756" y="514" type="qcurve" smooth="yes"/>
      <point x="844" y="488"/>
      <point x="876" y="459" type="qcurve" smooth="yes"/>
      <point x="907" y="430"/>
      <point x="907" y="379" type="qcurve" smooth="yes"/>
      <point x="907" y="317"/>
      <point x="858" y="282" type="qcurve" smooth="yes"/>
      <point x="814" y="251"/>
      <point x="747" y="251" type="qcurve" smooth="yes"/>
      <point x="633" y="251"/>
      <point x="555" y="324" type="qcurve"/>
      <point x="504" y="266" type="line"/>
      <point x="594" y="179"/>
      <point x="745" y="179" type="qcurve" smooth="yes"/>
      <point x="863" y="179"/>
      <point x="931" y="235" type="qcurve" smooth="yes"/>
      <point x="996" y="290"/>
    </contour>
    <contour>
      <point x="509" y="386" type="qcurve" smooth="yes"/>
      <point x="509" y="528"/>
      <point x="351" y="555" type="qcurve"/>
      <point x="479" y="582"/>
      <point x="479" y="705" type="qcurve" smooth="yes"/>
      <point x="479" y="878"/>
      <point x="236" y="878" type="qcurve" smooth="yes"/>
      <point x="67" y="878" type="line"/>
      <point x="67" y="190" type="line"/>
      <point x="251" y="190" type="line" smooth="yes"/>
      <point x="361" y="190"/>
      <point x="428" y="232" type="qcurve" smooth="yes"/>
      <point x="509" y="282"/>
    </contour>
    <contour>
      <point x="391" y="700" type="qcurve" smooth="yes"/>
      <point x="391" y="585"/>
      <point x="264" y="585" type="qcurve" smooth="yes"/>
      <point x="152" y="585" type="line"/>
      <point x="152" y="809" type="line"/>
      <point x="256" y="809" type="line" smooth="yes"/>
      <point x="391" y="809"/>
    </contour>
    <contour>
      <point x="419" y="383" type="qcurve" smooth="yes"/>
      <point x="419" y="261"/>
      <point x="267" y="261" type="qcurve" smooth="yes"/>
      <point x="152" y="261" type="line"/>
      <point x="152" y="514" type="line"/>
      <point x="271" y="514" type="line" smooth="yes"/>
      <point x="419" y="514"/>
    </contour>
  </outline>
</glyph>
<glyph name="uni0009" format="1">
  <advance width="1049"/>
  <unicode hex="0009"/>
  <outline>
    <contour>
      <point x="1029" y="966" type="line"/>
      <point x="1029" y="69" type="line"/>
      <point x="20" y="69" type="line"/>
      <point x="20" y="966" type="line"/>
    </contour>
    <contour>
      <point x="1004" y="888" type="line"/>
      <point x="405" y="888" type="line"/>
      <point x="405" y="596" type="line"/>
      <point x="143" y="596" type="line"/>
      <point x="143" y="887" type="line"/>
      <point x="58" y="887" type="line"/>
      <point x="58" y="199" type="line"/>
      <point x="143" y="199" type="line"/>
      <point x="143" y="527" type="line"/>
      <point x="405" y="527" type="line"/>
      <point x="405" y="199" type="line"/>
      <point x="490" y="199" type="line"/>
      <point x="490" y="815" type="line"/>
      <point x="701" y="815" type="line"/>
      <point x="701" y="200" type="line"/>
      <point x="786" y="200" type="line"/>
      <point x="786" y="815" type="line"/>
      <point x="995" y="815" type="line"/>
    </contour>
  </outline>
</glyph>
<glyph name="uni000A" format="1">
  <advance width="1054"/>
  <unicode hex="000A"/>
  <outline>
    <contour>
      <point x="1034" y="966" type="line"/>
      <point x="1034" y="69" type="line"/>
      <point x="20" y="69" type="line"/>
      <point x="20" y="966" type="line"/>
    </contour>
    <contour>
      <point x="189" y="267" type="line"/>
      <point x="189" y="878" type="line"/>
      <point x="103" y="878" type="line"/>
      <point x="103" y="190" type="line"/>
      <point x="661" y="190" type="line"/>
      <point x="661" y="497" type="line"/>
      <point x="931" y="497" type="line"/>
      <point x="931" y="566" type="line"/>
      <point x="661" y="566" type="line"/>
      <point x="661" y="808" type="line"/>
      <point x="970" y="808" type="line"/>
      <point x="981" y="878" type="line"/>
      <point x="576" y="878" type="line"/>
      <point x="576" y="267" type="line"/>
    </contour>
  </outline>
</glyph>
<glyph name="uni000B" format="1">
  <advance width="1054"/>
  <unicode hex="000B"/>
  <outline>
    <contour>
      <point x="1034" y="966" type="line"/>
      <point x="1034" y="69" type="line"/>
      <point x="20" y="69" type="line"/>
      <point x="20" y="966" type="line"/>
    </contour>
    <contour>
      <point x="497" y="878" type="line"/>
      <point x="497" y="850" type="line"/>
      <point x="319" y="288" type="line"/>
      <point x="134" y="878" type="line"/>
      <point x="42" y="878" type="line"/>
      <point x="273" y="190" type="line"/>
      <point x="361" y="190" type="line"/>
      <point x="567" y="805" type="line"/>
      <point x="713" y="805" type="line"/>
      <point x="713" y="190" type="line"/>
      <point x="798" y="190" type="line"/>
      <point x="798" y="805" type="line"/>
      <point x="1007" y="805" type="line"/>
      <point x="1016" y="878" type="line"/>
    </contour>
  </outline>
</glyph>
<glyph name="uni000C" format="1">
  <advance width="1054"/>
  <unicode hex="000C"/>
  <outline>
    <contour>
      <point x="1034" y="966" type="line"/>
      <point x="1034" y="69" type="line"/>
      <point x="20" y="69" type="line"/>
      <point x="20" y="966" type="line"/>
    </contour>
    <contour>
      <point x="681" y="566" type="line"/>
      <point x="681" y="808" type="line"/>
      <point x="990" y="808" type="line"/>
      <point x="1001" y="878" type="line"/>
      <point x="596" y="878" type="line"/>
      <point x="596" y="190" type="line"/>
      <point x="681" y="190" type="line"/>
      <point x="681" y="497" type="line"/>
      <point x="951" y="497" type="line"/>
      <point x="951" y="566" type="line"/>
    </contour>
    <contour>
      <point x="171" y="566" type="line"/>
      <point x="171" y="808" type="line"/>
      <point x="480" y="808" type="line"/>
      <point x="491" y="878" type="line"/>
      <point x="86" y="878" type="line"/>
      <point x="86" y="190" type="line"/>
      <point x="171" y="190" type="line"/>
      <point x="171" y="497" type="line"/>
      <point x="441" y="497" type="line"/>
      <point x="441" y="566" type="line"/>
    </contour>
  </outline>
</glyph>
<glyph name="uni000D" format="1">
  <advance width="1054"/>
  <unicode hex="000D"/>
  <outline>
    <contour>
      <point x="1034" y="966" type="line"/>
      <point x="1034" y="69" type="line"/>
      <point x="20" y="69" type="line"/>
      <point x="20" y="966" type="line"/>
    </contour>
    <contour>
      <point x="323" y="890" type="qcurve" smooth="yes"/>
      <point x="203" y="890"/>
      <point x="125" y="800" type="qcurve" smooth="yes"/>
      <point x="41" y="702"/>
      <point x="41" y="535" type="qcurve" smooth="yes"/>
      <point x="41" y="366"/>
      <point x="123" y="270" type="qcurve" smooth="yes"/>
      <point x="201" y="179"/>
      <point x="327" y="179" type="qcurve" smooth="yes"/>
      <point x="450" y="179"/>
      <point x="523" y="253" type="qcurve"/>
      <point x="481" y="310" type="line"/>
      <point x="412" y="252"/>
      <point x="328" y="252" type="qcurve" smooth="yes"/>
      <point x="236" y="252"/>
      <point x="184" y="316" type="qcurve" smooth="yes"/>
      <point x="126" y="389"/>
      <point x="126" y="535" type="qcurve" smooth="yes"/>
      <point x="126" y="683"/>
      <point x="187" y="756" type="qcurve" smooth="yes"/>
      <point x="239" y="818"/>
      <point x="328" y="818" type="qcurve" smooth="yes"/>
      <point x="408" y="818"/>
      <point x="467" y="767" type="qcurve"/>
      <point x="513" y="823" type="line"/>
      <point x="433" y="890"/>
    </contour>
    <contour>
      <point x="976" y="686" type="qcurve" smooth="yes"/>
      <point x="976" y="878"/>
      <point x="730" y="878" type="qcurve" smooth="yes"/>
      <point x="563" y="878" type="line"/>
      <point x="563" y="190" type="line"/>
      <point x="645" y="190" type="line"/>
      <point x="645" y="486" type="line"/>
      <point x="734" y="486" type="line"/>
      <point x="912" y="190" type="line"/>
      <point x="1010" y="190" type="line"/>
      <point x="815" y="496" type="line"/>
      <point x="976" y="536"/>
    </contour>
    <contour>
      <point x="882" y="696" type="qcurve" smooth="yes"/>
      <point x="882" y="563"/>
      <point x="726" y="563" type="qcurve" smooth="yes"/>
      <point x="625" y="563" type="line"/>
      <point x="625" y="820" type="line"/>
      <point x="725" y="820" type="line" smooth="yes"/>
      <point x="882" y="820"/>
    </contour>
  </outline>
</glyph>
<glyph name="uni000E" format="1">
  <advance width="1051"/>
  <unicode hex="000E"/>
  <outline>
    <contour>
      <point x="1031" y="966" type="line"/>
      <point x="1031" y="69" type="line"/>
      <point x="20" y="69" type="line"/>
      <point x="20" y="966" type="line"/>
    </contour>
    <contour>
      <point x="918" y="534" type="qcurve" smooth="yes"/>
      <point x="918" y="251"/>
      <point x="754" y="251" type="qcurve" smooth="yes"/>
      <point x="590" y="251"/>
      <point x="590" y="532" type="qcurve" smooth="yes"/>
      <point x="590" y="817"/>
      <point x="754" y="817" type="qcurve" smooth="yes"/>
      <point x="918" y="817"/>
    </contour>
    <contour>
      <point x="565" y="276" type="qcurve" smooth="yes"/>
      <point x="631" y="179"/>
      <point x="754" y="179" type="qcurve" smooth="yes"/>
      <point x="876" y="179"/>
      <point x="943" y="278" type="qcurve" smooth="yes"/>
      <point x="1007" y="373"/>
      <point x="1007" y="534" type="qcurve" smooth="yes"/>
      <point x="1007" y="697"/>
      <point x="943" y="792" type="qcurve" smooth="yes"/>
      <point x="876" y="890"/>
      <point x="754" y="890" type="qcurve" smooth="yes"/>
      <point x="633" y="890"/>
      <point x="565" y="789" type="qcurve" smooth="yes"/>
      <point x="499" y="691"/>
      <point x="499" y="571" type="qcurve" smooth="yes"/>
      <point x="499" y="551"/>
      <point x="501" y="532" type="qcurve" smooth="yes"/>
      <point x="504" y="504"/>
      <point x="504" y="463" type="qcurve"/>
      <point x="489" y="497"/>
      <point x="460" y="522" type="qcurve" smooth="yes"/>
      <point x="415" y="560"/>
      <point x="319" y="588" type="qcurve" smooth="yes"/>
      <point x="220" y="617"/>
      <point x="183" y="644" type="qcurve" smooth="yes"/>
      <point x="145" y="671"/>
      <point x="145" y="715" type="qcurve" smooth="yes"/>
      <point x="145" y="765"/>
      <point x="186" y="792" type="qcurve" smooth="yes"/>
      <point x="223" y="818"/>
      <point x="283" y="818" type="qcurve" smooth="yes"/>
      <point x="379" y="818"/>
      <point x="449" y="755" type="qcurve"/>
      <point x="500" y="811" type="line"/>
      <point x="408" y="890"/>
      <point x="281" y="890" type="qcurve" smooth="yes"/>
      <point x="182" y="890"/>
      <point x="120" y="840" type="qcurve" smooth="yes"/>
      <point x="58" y="791"/>
      <point x="58" y="713" type="qcurve" smooth="yes"/>
      <point x="58" y="636"/>
      <point x="118" y="587" type="qcurve" smooth="yes"/>
      <point x="168" y="547"/>
      <point x="280" y="514" type="qcurve" smooth="yes"/>
      <point x="368" y="488"/>
      <point x="400" y="459" type="qcurve" smooth="yes"/>
      <point x="431" y="430"/>
      <point x="431" y="379" type="qcurve" smooth="yes"/>
      <point x="431" y="317"/>
      <point x="382" y="282" type="qcurve" smooth="yes"/>
      <point x="338" y="251"/>
      <point x="271" y="251" type="qcurve" smooth="yes"/>
      <point x="157" y="251"/>
      <point x="79" y="324" type="qcurve"/>
      <point x="28" y="266" type="line"/>
      <point x="118" y="179"/>
      <point x="269" y="179" type="qcurve" smooth="yes"/>
      <point x="386" y="179"/>
      <point x="455" y="235" type="qcurve" smooth="yes"/>
      <point x="520" y="288"/>
      <point x="520" y="375" type="qcurve"/>
      <point x="536" y="318"/>
    </contour>
  </outline>
</glyph>
<glyph name="uni000F" format="1">
  <advance width="1051"/>
  <unicode hex="000F"/>
  <outline>
    <contour>
      <point x="1031" y="966" type="line"/>
      <point x="1031" y="69" type="line"/>
      <point x="20" y="69" type="line"/>
      <point x="20" y="966" type="line"/>
    </contour>
    <contour>
      <point x="543" y="376" type="qcurve" smooth="yes"/>
      <point x="543" y="465"/>
      <point x="483" y="517" type="qcurve" smooth="yes"/>
      <point x="438" y="555"/>
      <point x="342" y="583" type="qcurve" smooth="yes"/>
      <point x="243" y="612"/>
      <point x="206" y="639" type="qcurve" smooth="yes"/>
      <point x="168" y="666"/>
      <point x="168" y="710" type="qcurve" smooth="yes"/>
      <point x="168" y="760"/>
      <point x="209" y="787" type="qcurve" smooth="yes"/>
      <point x="246" y="813"/>
      <point x="306" y="813" type="qcurve" smooth="yes"/>
      <point x="402" y="813"/>
      <point x="472" y="750" type="qcurve"/>
      <point x="523" y="806" type="line"/>
      <point x="431" y="885"/>
      <point x="304" y="885" type="qcurve" smooth="yes"/>
      <point x="205" y="885"/>
      <point x="143" y="835" type="qcurve" smooth="yes"/>
      <point x="81" y="786"/>
      <point x="81" y="708" type="qcurve" smooth="yes"/>
      <point x="81" y="631"/>
      <point x="141" y="582" type="qcurve" smooth="yes"/>
      <point x="191" y="542"/>
      <point x="303" y="509" type="qcurve" smooth="yes"/>
      <point x="391" y="483"/>
      <point x="423" y="454" type="qcurve" smooth="yes"/>
      <point x="454" y="425"/>
      <point x="454" y="374" type="qcurve" smooth="yes"/>
      <point x="454" y="312"/>
      <point x="405" y="277" type="qcurve" smooth="yes"/>
      <point x="361" y="246"/>
      <point x="294" y="246" type="qcurve" smooth="yes"/>
      <point x="180" y="246"/>
      <point x="102" y="319" type="qcurve"/>
      <point x="51" y="261" type="line"/>
      <point x="141" y="174"/>
      <point x="292" y="174" type="qcurve" smooth="yes"/>
      <point x="410" y="174"/>
      <point x="478" y="230" type="qcurve" smooth="yes"/>
      <point x="543" y="285"/>
    </contour>
    <contour>
      <point x="971" y="800" type="line"/>
      <point x="971" y="868" type="line"/>
      <point x="577" y="868" type="line"/>
      <point x="577" y="800" type="line"/>
      <point x="731" y="800" type="line"/>
      <point x="731" y="249" type="line"/>
      <point x="577" y="249" type="line"/>
      <point x="577" y="180" type="line"/>
      <point x="971" y="180" type="line"/>
      <point x="971" y="249" type="line"/>
      <point x="817" y="249" type="line"/>
      <point x="817" y="800" type="line"/>
    </contour>
  </outline>
</glyph>
<glyph name="uni0010" format="1">
  <advance width="1644"/>
  <unicode hex="0010"/>
  <outline>
    <contour>
      <point x="1624" y="966" type="line"/>
      <point x="1624" y="69" type="line"/>
      <point x="20" y="69" type="line"/>
      <point x="20" y="966" type="line"/>
    </contour>
    <contour>
      <point x="645" y="876" type="line"/>
      <point x="645" y="188" type="line"/>
      <point x="1035" y="188" type="line"/>
      <point x="1045" y="265" type="line"/>
      <point x="731" y="265" type="line"/>
      <point x="731" y="876" type="line"/>
    </contour>
    <contour>
      <point x="1244" y="575" type="line"/>
      <point x="1244" y="808" type="line"/>
      <point x="1538" y="808" type="line"/>
      <point x="1548" y="878" type="line"/>
      <point x="1158" y="878" type="line"/>
      <point x="1158" y="190" type="line"/>
      <point x="1557" y="190" type="line"/>
      <point x="1557" y="259" type="line"/>
      <point x="1244" y="259" type="line"/>
      <point x="1244" y="504" type="line"/>
      <point x="1499" y="504" type="line"/>
      <point x="1499" y="575" type="line"/>
    </contour>
    <contour>
      <point x="544" y="540" type="qcurve" smooth="yes"/>
      <point x="544" y="739"/>
      <point x="443" y="823" type="qcurve" smooth="yes"/>
      <point x="366" y="887"/>
      <point x="222" y="887" type="qcurve" smooth="yes"/>
      <point x="76" y="887" type="line"/>
      <point x="76" y="184" type="line"/>
      <point x="233" y="184" type="line" smooth="yes"/>
      <point x="544" y="184"/>
    </contour>
    <contour>
      <point x="453" y="540" type="qcurve" smooth="yes"/>
      <point x="453" y="255"/>
      <point x="244" y="255" type="qcurve" smooth="yes"/>
      <point x="161" y="255" type="line"/>
      <point x="161" y="815" type="line"/>
      <point x="243" y="815" type="line" smooth="yes"/>
      <point x="335" y="815"/>
      <point x="384" y="769" type="qcurve" smooth="yes"/>
      <point x="453" y="704"/>
    </contour>
  </outline>
</glyph>
<glyph name="uni0011" format="1">
  <advance width="1644"/>
  <unicode hex="0011"/>
  <outline>
    <contour>
      <point x="1624" y="966" type="line"/>
      <point x="1624" y="69" type="line"/>
      <point x="20" y="69" type="line"/>
      <point x="20" y="966" type="line"/>
    </contour>
    <contour>
      <point x="160" y="878" type="line"/>
      <point x="62" y="878" type="line"/>
      <point x="260" y="557" type="line"/>
      <point x="43" y="190" type="line"/>
      <point x="135" y="190" type="line"/>
      <point x="310" y="502" type="line"/>
      <point x="482" y="190" type="line"/>
      <point x="581" y="190" type="line"/>
      <point x="361" y="562" type="line"/>
      <point x="557" y="878" type="line"/>
      <point x="464" y="878" type="line"/>
      <point x="312" y="613" type="line"/>
    </contour>
    <contour>
      <point x="1075" y="534" type="qcurve" smooth="yes"/>
      <point x="1075" y="697"/>
      <point x="1011" y="792" type="qcurve" smooth="yes"/>
      <point x="944" y="890"/>
      <point x="822" y="890" type="qcurve" smooth="yes"/>
      <point x="700" y="890"/>
      <point x="633" y="789" type="qcurve" smooth="yes"/>
      <point x="569" y="694"/>
      <point x="569" y="532" type="qcurve" smooth="yes"/>
      <point x="569" y="369"/>
      <point x="633" y="276" type="qcurve" smooth="yes"/>
      <point x="699" y="179"/>
      <point x="822" y="179" type="qcurve" smooth="yes"/>
      <point x="944" y="179"/>
      <point x="1011" y="278" type="qcurve" smooth="yes"/>
      <point x="1075" y="373"/>
    </contour>
    <contour>
      <point x="986" y="534" type="qcurve" smooth="yes"/>
      <point x="986" y="251"/>
      <point x="822" y="251" type="qcurve" smooth="yes"/>
      <point x="658" y="251"/>
      <point x="658" y="532" type="qcurve" smooth="yes"/>
      <point x="658" y="817"/>
      <point x="822" y="817" type="qcurve" smooth="yes"/>
      <point x="986" y="817"/>
    </contour>
    <contour>
      <point x="1215" y="783" type="line"/>
      <point x="1455" y="194" type="line"/>
      <point x="1575" y="194" type="line"/>
      <point x="1575" y="882" type="line"/>
      <point x="1495" y="882" type="line"/>
      <point x="1495" y="537" type="line"/>
      <point x="1507" y="434"/>
      <point x="1507" y="290" type="qcurve"/>
      <point x="1503" y="290" type="line"/>
      <point x="1259" y="882" type="line"/>
      <point x="1143" y="882" type="line"/>
      <point x="1143" y="194" type="line"/>
      <point x="1223" y="194" type="line"/>
      <point x="1223" y="540" type="line"/>
      <point x="1211" y="627"/>
      <point x="1211" y="783" type="qcurve"/>
    </contour>
  </outline>
</glyph>
<glyph name="uni0012" format="1">
  <advance width="1644"/>
  <unicode hex="0012"/>
  <outline>
    <contour>
      <point x="1624" y="966" type="line"/>
      <point x="1624" y="69" type="line"/>
      <point x="20" y="69" type="line"/>
      <point x="20" y="966" type="line"/>
    </contour>
    <contour>
      <point x="544" y="539" type="qcurve" smooth="yes"/>
      <point x="544" y="745"/>
      <point x="443" y="832" type="qcurve" smooth="yes"/>
      <point x="366" y="898"/>
      <point x="222" y="898" type="qcurve" smooth="yes"/>
      <point x="76" y="898" type="line"/>
      <point x="76" y="171" type="line"/>
      <point x="233" y="171" type="line" smooth="yes"/>
      <point x="544" y="171"/>
    </contour>
    <contour>
      <point x="446" y="539" type="qcurve" smooth="yes"/>
      <point x="446" y="244"/>
      <point x="237" y="244" type="qcurve" smooth="yes"/>
      <point x="154" y="244" type="line"/>
      <point x="154" y="824" type="line"/>
      <point x="236" y="824" type="line" smooth="yes"/>
      <point x="328" y="824"/>
      <point x="377" y="776" type="qcurve" smooth="yes"/>
      <point x="446" y="709"/>
    </contour>
    <contour>
      <point x="880" y="890" type="qcurve" smooth="yes"/>
      <point x="755" y="890"/>
      <point x="673" y="800" type="qcurve" smooth="yes"/>
      <point x="586" y="702"/>
      <point x="586" y="535" type="qcurve" smooth="yes"/>
      <point x="586" y="366"/>
      <point x="672" y="270" type="qcurve" smooth="yes"/>
      <point x="753" y="179"/>
      <point x="884" y="179" type="qcurve" smooth="yes"/>
      <point x="1013" y="179"/>
      <point x="1089" y="253" type="qcurve"/>
      <point x="1045" y="310" type="line"/>
      <point x="973" y="252"/>
      <point x="885" y="252" type="qcurve" smooth="yes"/>
      <point x="790" y="252"/>
      <point x="736" y="316" type="qcurve" smooth="yes"/>
      <point x="675" y="389"/>
      <point x="675" y="535" type="qcurve" smooth="yes"/>
      <point x="675" y="683"/>
      <point x="738" y="756" type="qcurve" smooth="yes"/>
      <point x="792" y="818"/>
      <point x="886" y="818" type="qcurve" smooth="yes"/>
      <point x="969" y="818"/>
      <point x="1031" y="767" type="qcurve"/>
      <point x="1079" y="823" type="line"/>
      <point x="995" y="890"/>
    </contour>
    <contour>
      <point x="1344" y="900" type="qcurve" smooth="yes"/>
      <point x="1217" y="900"/>
      <point x="1134" y="801" type="qcurve"/>
      <point x="1192" y="757" type="line"/>
      <point x="1255" y="830"/>
      <point x="1341" y="830" type="qcurve" smooth="yes"/>
      <point x="1399" y="830"/>
      <point x="1431" y="796" type="qcurve" smooth="yes"/>
      <point x="1464" y="763"/>
      <point x="1464" y="705" type="qcurve" smooth="yes"/>
      <point x="1464" y="621"/>
      <point x="1404" y="538" type="qcurve" smooth="yes"/>
      <point x="1344" y="456"/>
      <point x="1148" y="268" type="qcurve"/>
      <point x="1148" y="200" type="line"/>
      <point x="1557" y="200" type="line"/>
      <point x="1567" y="271" type="line"/>
      <point x="1243" y="271" type="line"/>
      <point x="1418" y="431"/>
      <point x="1482" y="519" type="qcurve" smooth="yes"/>
      <point x="1551" y="615"/>
      <point x="1551" y="707" type="qcurve" smooth="yes"/>
      <point x="1551" y="792"/>
      <point x="1496" y="845" type="qcurve" smooth="yes"/>
      <point x="1439" y="900"/>
    </contour>
  </outline>
</glyph>
<glyph name="uni0013" format="1">
  <advance width="1644"/>
  <unicode hex="0013"/>
  <outline>
    <contour>
      <point x="1624" y="966" type="line"/>
      <point x="1624" y="69" type="line"/>
      <point x="20" y="69" type="line"/>
      <point x="20" y="966" type="line"/>
    </contour>
    <contour>
      <point x="160" y="878" type="line"/>
      <point x="62" y="878" type="line"/>
      <point x="260" y="557" type="line"/>
      <point x="43" y="190" type="line"/>
      <point x="135" y="190" type="line"/>
      <point x="310" y="502" type="line"/>
      <point x="482" y="190" type="line"/>
      <point x="581" y="190" type="line"/>
      <point x="361" y="562" type="line"/>
      <point x="557" y="878" type="line"/>
      <point x="464" y="878" type="line"/>
      <point x="312" y="613" type="line"/>
    </contour>
    <contour>
      <point x="1095" y="534" type="qcurve" smooth="yes"/>
      <point x="1095" y="697"/>
      <point x="1031" y="792" type="qcurve" smooth="yes"/>
      <point x="964" y="890"/>
      <point x="842" y="890" type="qcurve" smooth="yes"/>
      <point x="720" y="890"/>
      <point x="653" y="789" type="qcurve" smooth="yes"/>
      <point x="589" y="694"/>
      <point x="589" y="532" type="qcurve" smooth="yes"/>
      <point x="589" y="369"/>
      <point x="653" y="276" type="qcurve" smooth="yes"/>
      <point x="719" y="179"/>
      <point x="842" y="179" type="qcurve" smooth="yes"/>
      <point x="964" y="179"/>
      <point x="1031" y="278" type="qcurve" smooth="yes"/>
      <point x="1095" y="373"/>
    </contour>
    <contour>
      <point x="1006" y="534" type="qcurve" smooth="yes"/>
      <point x="1006" y="251"/>
      <point x="842" y="251" type="qcurve" smooth="yes"/>
      <point x="678" y="251"/>
      <point x="678" y="532" type="qcurve" smooth="yes"/>
      <point x="678" y="817"/>
      <point x="842" y="817" type="qcurve" smooth="yes"/>
      <point x="1006" y="817"/>
    </contour>
    <contour>
      <point x="1266" y="566" type="line"/>
      <point x="1266" y="808" type="line"/>
      <point x="1575" y="808" type="line"/>
      <point x="1586" y="878" type="line"/>
      <point x="1181" y="878" type="line"/>
      <point x="1181" y="190" type="line"/>
      <point x="1266" y="190" type="line"/>
      <point x="1266" y="497" type="line"/>
      <point x="1536" y="497" type="line"/>
      <point x="1536" y="566" type="line"/>
    </contour>
  </outline>
</glyph>
<glyph name="uni0014" format="1">
  <advance width="1644"/>
  <unicode hex="0014"/>
  <outline>
    <contour>
      <point x="1624" y="966" type="line"/>
      <point x="1624" y="69" type="line"/>
      <point x="20" y="69" type="line"/>
      <point x="20" y="966" type="line"/>
    </contour>
    <contour>
      <point x="544" y="549" type="qcurve" smooth="yes"/>
      <point x="544" y="755"/>
      <point x="443" y="842" type="qcurve" smooth="yes"/>
      <point x="366" y="908"/>
      <point x="222" y="908" type="qcurve" smooth="yes"/>
      <point x="76" y="908" type="line"/>
      <point x="76" y="181" type="line"/>
      <point x="233" y="181" type="line" smooth="yes"/>
      <point x="544" y="181"/>
    </contour>
    <contour>
      <point x="446" y="549" type="qcurve" smooth="yes"/>
      <point x="446" y="254"/>
      <point x="237" y="254" type="qcurve" smooth="yes"/>
      <point x="154" y="254" type="line"/>
      <point x="154" y="834" type="line"/>
      <point x="236" y="834" type="line" smooth="yes"/>
      <point x="328" y="834"/>
      <point x="377" y="786" type="qcurve" smooth="yes"/>
      <point x="446" y="719"/>
    </contour>
    <contour>
      <point x="880" y="890" type="qcurve" smooth="yes"/>
      <point x="755" y="890"/>
      <point x="673" y="800" type="qcurve" smooth="yes"/>
      <point x="586" y="702"/>
      <point x="586" y="535" type="qcurve" smooth="yes"/>
      <point x="586" y="366"/>
      <point x="672" y="270" type="qcurve" smooth="yes"/>
      <point x="753" y="179"/>
      <point x="884" y="179" type="qcurve" smooth="yes"/>
      <point x="1013" y="179"/>
      <point x="1089" y="253" type="qcurve"/>
      <point x="1045" y="310" type="line"/>
      <point x="973" y="252"/>
      <point x="885" y="252" type="qcurve" smooth="yes"/>
      <point x="790" y="252"/>
      <point x="736" y="316" type="qcurve" smooth="yes"/>
      <point x="675" y="389"/>
      <point x="675" y="535" type="qcurve" smooth="yes"/>
      <point x="675" y="683"/>
      <point x="738" y="756" type="qcurve" smooth="yes"/>
      <point x="792" y="818"/>
      <point x="886" y="818" type="qcurve" smooth="yes"/>
      <point x="969" y="818"/>
      <point x="1031" y="767" type="qcurve"/>
      <point x="1079" y="823" type="line"/>
      <point x="995" y="890"/>
    </contour>
    <contour>
      <point x="1570" y="348" type="line"/>
      <point x="1570" y="414" type="line"/>
      <point x="1481" y="414" type="line"/>
      <point x="1481" y="610" type="line"/>
      <point x="1408" y="610" type="line"/>
      <point x="1408" y="414" type="line"/>
      <point x="1202" y="414" type="line"/>
      <point x="1386" y="850" type="line"/>
      <point x="1317" y="880" type="line"/>
      <point x="1114" y="408" type="line"/>
      <point x="1114" y="348" type="line"/>
      <point x="1400" y="348" type="line"/>
      <point x="1400" y="180" type="line"/>
      <point x="1481" y="180" type="line"/>
      <point x="1481" y="348" type="line"/>
    </contour>
  </outline>
</glyph>
<glyph name="uni0015" format="1">
  <advance width="1644"/>
  <unicode hex="0015"/>
  <outline>
    <contour>
      <point x="145" y="783" type="line"/>
      <point x="385" y="194" type="line"/>
      <point x="505" y="194" type="line"/>
      <point x="505" y="882" type="line"/>
      <point x="425" y="882" type="line"/>
      <point x="425" y="537" type="line"/>
      <point x="437" y="434"/>
      <point x="437" y="290" type="qcurve"/>
      <point x="433" y="290" type="line"/>
      <point x="189" y="882" type="line"/>
      <point x="73" y="882" type="line"/>
      <point x="73" y="194" type="line"/>
      <point x="153" y="194" type="line"/>
      <point x="153" y="540" type="line"/>
      <point x="141" y="627"/>
      <point x="141" y="783" type="qcurve"/>
    </contour>
    <contour>
      <point x="1624" y="966" type="line"/>
      <point x="1624" y="69" type="line"/>
      <point x="20" y="69" type="line"/>
      <point x="20" y="966" type="line"/>
    </contour>
    <contour>
      <point x="683" y="366" type="line"/>
      <point x="956" y="366" type="line"/>
      <point x="1011" y="190" type="line"/>
      <point x="1101" y="190" type="line"/>
      <point x="877" y="878" type="line"/>
      <point x="767" y="878" type="line"/>
      <point x="543" y="190" type="line"/>
      <point x="627" y="190" type="line"/>
    </contour>
    <contour>
      <point x="934" y="437" type="line"/>
      <point x="705" y="437" type="line"/>
      <point x="820" y="806" type="line"/>
    </contour>
    <contour>
      <point x="1128" y="190" type="line"/>
      <point x="1213" y="190" type="line"/>
      <point x="1213" y="878" type="line"/>
      <point x="1128" y="878" type="line"/>
    </contour>
    <contour>
      <point x="1490" y="878" type="line"/>
      <point x="1218" y="558" type="line"/>
      <point x="1501" y="190" type="line"/>
      <point x="1608" y="190" type="line"/>
      <point x="1319" y="563" type="line"/>
      <point x="1589" y="878" type="line"/>
    </contour>
  </outline>
</glyph>
<glyph name="uni0016" format="1">
  <advance width="1644"/>
  <unicode hex="0016"/>
  <outline>
    <contour>
      <point x="1215" y="783" type="line"/>
      <point x="1455" y="194" type="line"/>
      <point x="1575" y="194" type="line"/>
      <point x="1575" y="882" type="line"/>
      <point x="1495" y="882" type="line"/>
      <point x="1495" y="537" type="line"/>
      <point x="1507" y="434"/>
      <point x="1507" y="290" type="qcurve"/>
      <point x="1503" y="290" type="line"/>
      <point x="1259" y="882" type="line"/>
      <point x="1143" y="882" type="line"/>
      <point x="1143" y="194" type="line"/>
      <point x="1223" y="194" type="line"/>
      <point x="1223" y="540" type="line"/>
      <point x="1211" y="627"/>
      <point x="1211" y="783" type="qcurve"/>
    </contour>
    <contour>
      <point x="1624" y="966" type="line"/>
      <point x="1624" y="69" type="line"/>
      <point x="20" y="69" type="line"/>
      <point x="20" y="966" type="line"/>
    </contour>
    <contour>
      <point x="548" y="381" type="qcurve" smooth="yes"/>
      <point x="548" y="470"/>
      <point x="488" y="522" type="qcurve" smooth="yes"/>
      <point x="443" y="560"/>
      <point x="347" y="588" type="qcurve" smooth="yes"/>
      <point x="248" y="617"/>
      <point x="211" y="644" type="qcurve" smooth="yes"/>
      <point x="173" y="671"/>
      <point x="173" y="715" type="qcurve" smooth="yes"/>
      <point x="173" y="765"/>
      <point x="214" y="792" type="qcurve" smooth="yes"/>
      <point x="251" y="818"/>
      <point x="311" y="818" type="qcurve" smooth="yes"/>
      <point x="407" y="818"/>
      <point x="477" y="755" type="qcurve"/>
      <point x="528" y="811" type="line"/>
      <point x="436" y="890"/>
      <point x="309" y="890" type="qcurve" smooth="yes"/>
      <point x="210" y="890"/>
      <point x="148" y="840" type="qcurve" smooth="yes"/>
      <point x="86" y="791"/>
      <point x="86" y="713" type="qcurve" smooth="yes"/>
      <point x="86" y="636"/>
      <point x="146" y="587" type="qcurve" smooth="yes"/>
      <point x="196" y="547"/>
      <point x="308" y="514" type="qcurve" smooth="yes"/>
      <point x="396" y="488"/>
      <point x="428" y="459" type="qcurve" smooth="yes"/>
      <point x="459" y="430"/>
      <point x="459" y="379" type="qcurve" smooth="yes"/>
      <point x="459" y="317"/>
      <point x="410" y="282" type="qcurve" smooth="yes"/>
      <point x="366" y="251"/>
      <point x="299" y="251" type="qcurve" smooth="yes"/>
      <point x="185" y="251"/>
      <point x="107" y="324" type="qcurve"/>
      <point x="56" y="266" type="line"/>
      <point x="146" y="179"/>
      <point x="297" y="179" type="qcurve" smooth="yes"/>
      <point x="415" y="179"/>
      <point x="483" y="235" type="qcurve" smooth="yes"/>
      <point x="548" y="290"/>
    </contour>
    <contour>
      <point x="865" y="190" type="line"/>
      <point x="865" y="456" type="line"/>
      <point x="1098" y="878" type="line"/>
      <point x="1009" y="878" type="line"/>
      <point x="824" y="533" type="line"/>
      <point x="641" y="878" type="line"/>
      <point x="546" y="878" type="line"/>
      <point x="779" y="455" type="line"/>
      <point x="779" y="190" type="line"/>
    </contour>
  </outline>
</glyph>
<glyph name="uni0017" format="1">
  <advance width="1644"/>
  <unicode hex="0017"/>
  <outline>
    <contour>
      <point x="1624" y="966" type="line"/>
      <point x="1624" y="69" type="line"/>
      <point x="20" y="69" type="line"/>
      <point x="20" y="966" type="line"/>
    </contour>
    <contour>
      <point x="863" y="190" type="line"/>
      <point x="863" y="805" type="line"/>
      <point x="1072" y="805" type="line"/>
      <point x="1081" y="878" type="line"/>
      <point x="562" y="878" type="line"/>
      <point x="562" y="805" type="line"/>
      <point x="778" y="805" type="line"/>
      <point x="778" y="190" type="line"/>
    </contour>
    <contour>
      <point x="174" y="585" type="line"/>
      <point x="174" y="818" type="line"/>
      <point x="468" y="818" type="line"/>
      <point x="478" y="888" type="line"/>
      <point x="88" y="888" type="line"/>
      <point x="88" y="200" type="line"/>
      <point x="487" y="200" type="line"/>
      <point x="487" y="269" type="line"/>
      <point x="174" y="269" type="line"/>
      <point x="174" y="514" type="line"/>
      <point x="429" y="514" type="line"/>
      <point x="429" y="585" type="line"/>
    </contour>
    <contour>
      <point x="1591" y="386" type="qcurve" smooth="yes"/>
      <point x="1591" y="528"/>
      <point x="1433" y="555" type="qcurve"/>
      <point x="1561" y="582"/>
      <point x="1561" y="705" type="qcurve" smooth="yes"/>
      <point x="1561" y="878"/>
      <point x="1318" y="878" type="qcurve" smooth="yes"/>
      <point x="1149" y="878" type="line"/>
      <point x="1149" y="190" type="line"/>
      <point x="1333" y="190" type="line" smooth="yes"/>
      <point x="1443" y="190"/>
      <point x="1510" y="232" type="qcurve" smooth="yes"/>
      <point x="1591" y="282"/>
    </contour>
    <contour>
      <point x="1473" y="700" type="qcurve" smooth="yes"/>
      <point x="1473" y="585"/>
      <point x="1346" y="585" type="qcurve" smooth="yes"/>
      <point x="1234" y="585" type="line"/>
      <point x="1234" y="809" type="line"/>
      <point x="1338" y="809" type="line" smooth="yes"/>
      <point x="1473" y="809"/>
    </contour>
    <contour>
      <point x="1501" y="383" type="qcurve" smooth="yes"/>
      <point x="1501" y="261"/>
      <point x="1349" y="261" type="qcurve" smooth="yes"/>
      <point x="1234" y="261" type="line"/>
      <point x="1234" y="514" type="line"/>
      <point x="1353" y="514" type="line" smooth="yes"/>
      <point x="1501" y="514"/>
    </contour>
  </outline>
</glyph>
<glyph name="uni0018" format="1">
  <advance width="1644"/>
  <unicode hex="0018"/>
  <outline>
    <contour>
      <point x="1209" y="780" type="line"/>
      <point x="1449" y="191" type="line"/>
      <point x="1569" y="191" type="line"/>
      <point x="1569" y="879" type="line"/>
      <point x="1489" y="879" type="line"/>
      <point x="1489" y="534" type="line"/>
      <point x="1501" y="431"/>
      <point x="1501" y="287" type="qcurve"/>
      <point x="1497" y="287" type="line"/>
      <point x="1253" y="879" type="line"/>
      <point x="1137" y="879" type="line"/>
      <point x="1137" y="191" type="line"/>
      <point x="1217" y="191" type="line"/>
      <point x="1217" y="537" type="line"/>
      <point x="1205" y="624"/>
      <point x="1205" y="780" type="qcurve"/>
    </contour>
    <contour>
      <point x="1624" y="966" type="line"/>
      <point x="1624" y="69" type="line"/>
      <point x="20" y="69" type="line"/>
      <point x="20" y="966" type="line"/>
    </contour>
    <contour>
      <point x="693" y="366" type="line"/>
      <point x="966" y="366" type="line"/>
      <point x="1021" y="190" type="line"/>
      <point x="1111" y="190" type="line"/>
      <point x="887" y="878" type="line"/>
      <point x="777" y="878" type="line"/>
      <point x="553" y="190" type="line"/>
      <point x="637" y="190" type="line"/>
    </contour>
    <contour>
      <point x="944" y="437" type="line"/>
      <point x="715" y="437" type="line"/>
      <point x="830" y="806" type="line"/>
    </contour>
    <contour>
      <point x="340" y="890" type="qcurve" smooth="yes"/>
      <point x="215" y="890"/>
      <point x="133" y="800" type="qcurve" smooth="yes"/>
      <point x="46" y="702"/>
      <point x="46" y="535" type="qcurve" smooth="yes"/>
      <point x="46" y="366"/>
      <point x="132" y="270" type="qcurve" smooth="yes"/>
      <point x="213" y="179"/>
      <point x="344" y="179" type="qcurve" smooth="yes"/>
      <point x="473" y="179"/>
      <point x="549" y="253" type="qcurve"/>
      <point x="505" y="310" type="line"/>
      <point x="433" y="252"/>
      <point x="345" y="252" type="qcurve" smooth="yes"/>
      <point x="250" y="252"/>
      <point x="196" y="316" type="qcurve" smooth="yes"/>
      <point x="135" y="389"/>
      <point x="135" y="535" type="qcurve" smooth="yes"/>
      <point x="135" y="683"/>
      <point x="198" y="756" type="qcurve" smooth="yes"/>
      <point x="252" y="818"/>
      <point x="346" y="818" type="qcurve" smooth="yes"/>
      <point x="429" y="818"/>
      <point x="491" y="767" type="qcurve"/>
      <point x="539" y="823" type="line"/>
      <point x="455" y="890"/>
    </contour>
  </outline>
</glyph>
<glyph name="uni0019" format="1">
  <advance width="1048"/>
  <unicode hex="0019"/>
  <outline>
    <contour>
      <point x="1028" y="966" type="line"/>
      <point x="1028" y="69" type="line"/>
      <point x="20" y="69" type="line"/>
      <point x="20" y="966" type="line"/>
    </contour>
    <contour>
      <point x="538" y="190" type="line"/>
      <point x="557" y="551" type="line" smooth="yes"/>
      <point x="561" y="637"/>
      <point x="561" y="780" type="qcurve"/>
      <point x="565" y="780" type="line"/>
      <point x="683" y="314" type="line"/>
      <point x="770" y="314" type="line"/>
      <point x="884" y="780" type="line"/>
      <point x="886" y="780" type="line"/>
      <point x="886" y="665"/>
      <point x="892" y="551" type="qcurve" smooth="yes"/>
      <point x="914" y="190" type="line"/>
      <point x="996" y="190" type="line"/>
      <point x="957" y="878" type="line"/>
      <point x="836" y="878" type="line"/>
      <point x="729" y="407" type="line"/>
      <point x="617" y="878" type="line"/>
      <point x="497" y="878" type="line"/>
      <point x="462" y="259" type="line"/>
      <point x="149" y="259" type="line"/>
      <point x="149" y="504" type="line"/>
      <point x="404" y="504" type="line"/>
      <point x="404" y="575" type="line"/>
      <point x="149" y="575" type="line"/>
      <point x="149" y="808" type="line"/>
      <point x="443" y="808" type="line"/>
      <point x="453" y="878" type="line"/>
      <point x="63" y="878" type="line"/>
      <point x="63" y="190" type="line"/>
    </contour>
  </outline>
</glyph>
<glyph name="uni001A" format="1">
  <advance width="1644"/>
  <unicode hex="001A"/>
  <outline>
    <contour>
      <point x="1055" y="881" type="line"/>
      <point x="969" y="881" type="line"/>
      <point x="969" y="412" type="line" smooth="yes"/>
      <point x="969" y="256"/>
      <point x="827" y="256" type="qcurve" smooth="yes"/>
      <point x="686" y="256"/>
      <point x="686" y="412" type="qcurve" smooth="yes"/>
      <point x="686" y="881" type="line"/>
      <point x="601" y="881" type="line"/>
      <point x="601" y="416" type="line" smooth="yes"/>
      <point x="601" y="310"/>
      <point x="661" y="247" type="qcurve" smooth="yes"/>
      <point x="722" y="182"/>
      <point x="827" y="182" type="qcurve" smooth="yes"/>
      <point x="931" y="182"/>
      <point x="993" y="247" type="qcurve" smooth="yes"/>
      <point x="1055" y="311"/>
      <point x="1055" y="416" type="qcurve" smooth="yes"/>
    </contour>
    <contour>
      <point x="1624" y="966" type="line"/>
      <point x="1624" y="69" type="line"/>
      <point x="20" y="69" type="line"/>
      <point x="20" y="966" type="line"/>
    </contour>
    <contour>
      <point x="538" y="391" type="qcurve" smooth="yes"/>
      <point x="538" y="480"/>
      <point x="478" y="532" type="qcurve" smooth="yes"/>
      <point x="433" y="570"/>
      <point x="337" y="598" type="qcurve" smooth="yes"/>
      <point x="238" y="627"/>
      <point x="201" y="654" type="qcurve" smooth="yes"/>
      <point x="163" y="681"/>
      <point x="163" y="725" type="qcurve" smooth="yes"/>
      <point x="163" y="775"/>
      <point x="204" y="802" type="qcurve" smooth="yes"/>
      <point x="241" y="828"/>
      <point x="301" y="828" type="qcurve" smooth="yes"/>
      <point x="397" y="828"/>
      <point x="467" y="765" type="qcurve"/>
      <point x="518" y="821" type="line"/>
      <point x="426" y="900"/>
      <point x="299" y="900" type="qcurve" smooth="yes"/>
      <point x="200" y="900"/>
      <point x="138" y="850" type="qcurve" smooth="yes"/>
      <point x="76" y="801"/>
      <point x="76" y="723" type="qcurve" smooth="yes"/>
      <point x="76" y="646"/>
      <point x="136" y="597" type="qcurve" smooth="yes"/>
      <point x="186" y="557"/>
      <point x="298" y="524" type="qcurve" smooth="yes"/>
      <point x="386" y="498"/>
      <point x="418" y="469" type="qcurve" smooth="yes"/>
      <point x="449" y="440"/>
      <point x="449" y="389" type="qcurve" smooth="yes"/>
      <point x="449" y="327"/>
      <point x="400" y="292" type="qcurve" smooth="yes"/>
      <point x="356" y="261"/>
      <point x="289" y="261" type="qcurve" smooth="yes"/>
      <point x="175" y="261"/>
      <point x="97" y="334" type="qcurve"/>
      <point x="46" y="276" type="line"/>
      <point x="136" y="189"/>
      <point x="287" y="189" type="qcurve" smooth="yes"/>
      <point x="405" y="189"/>
      <point x="473" y="245" type="qcurve" smooth="yes"/>
      <point x="538" y="300"/>
    </contour>
    <contour>
      <point x="1581" y="386" type="qcurve" smooth="yes"/>
      <point x="1581" y="528"/>
      <point x="1423" y="555" type="qcurve"/>
      <point x="1551" y="582"/>
      <point x="1551" y="705" type="qcurve" smooth="yes"/>
      <point x="1551" y="878"/>
      <point x="1308" y="878" type="qcurve" smooth="yes"/>
      <point x="1139" y="878" type="line"/>
      <point x="1139" y="190" type="line"/>
      <point x="1323" y="190" type="line" smooth="yes"/>
      <point x="1433" y="190"/>
      <point x="1500" y="232" type="qcurve" smooth="yes"/>
      <point x="1581" y="282"/>
    </contour>
    <contour>
      <point x="1463" y="700" type="qcurve" smooth="yes"/>
      <point x="1463" y="585"/>
      <point x="1336" y="585" type="qcurve" smooth="yes"/>
      <point x="1224" y="585" type="line"/>
      <point x="1224" y="809" type="line"/>
      <point x="1328" y="809" type="line" smooth="yes"/>
      <point x="1463" y="809"/>
    </contour>
    <contour>
      <point x="1491" y="383" type="qcurve" smooth="yes"/>
      <point x="1491" y="261"/>
      <point x="1339" y="261" type="qcurve" smooth="yes"/>
      <point x="1224" y="261" type="line"/>
      <point x="1224" y="514" type="line"/>
      <point x="1343" y="514" type="line" smooth="yes"/>
      <point x="1491" y="514"/>
    </contour>
  </outline>
</glyph>
<glyph name="uni001B" format="1">
  <advance width="1644"/>
  <unicode hex="001B"/>
  <outline>
    <contour>
      <point x="1624" y="966" type="line"/>
      <point x="1624" y="69" type="line"/>
      <point x="20" y="69" type="line"/>
      <point x="20" y="966" type="line"/>
    </contour>
    <contour>
      <point x="1038" y="381" type="qcurve" smooth="yes"/>
      <point x="1038" y="470"/>
      <point x="978" y="522" type="qcurve" smooth="yes"/>
      <point x="933" y="560"/>
      <point x="837" y="588" type="qcurve" smooth="yes"/>
      <point x="738" y="617"/>
      <point x="701" y="644" type="qcurve" smooth="yes"/>
      <point x="663" y="671"/>
      <point x="663" y="715" type="qcurve" smooth="yes"/>
      <point x="663" y="765"/>
      <point x="704" y="792" type="qcurve" smooth="yes"/>
      <point x="741" y="818"/>
      <point x="801" y="818" type="qcurve" smooth="yes"/>
      <point x="897" y="818"/>
      <point x="967" y="755" type="qcurve"/>
      <point x="1018" y="811" type="line"/>
      <point x="926" y="890"/>
      <point x="799" y="890" type="qcurve" smooth="yes"/>
      <point x="700" y="890"/>
      <point x="638" y="840" type="qcurve" smooth="yes"/>
      <point x="576" y="791"/>
      <point x="576" y="713" type="qcurve" smooth="yes"/>
      <point x="576" y="636"/>
      <point x="636" y="587" type="qcurve" smooth="yes"/>
      <point x="686" y="547"/>
      <point x="798" y="514" type="qcurve" smooth="yes"/>
      <point x="886" y="488"/>
      <point x="918" y="459" type="qcurve" smooth="yes"/>
      <point x="949" y="430"/>
      <point x="949" y="379" type="qcurve" smooth="yes"/>
      <point x="949" y="317"/>
      <point x="900" y="282" type="qcurve" smooth="yes"/>
      <point x="856" y="251"/>
      <point x="789" y="251" type="qcurve" smooth="yes"/>
      <point x="675" y="251"/>
      <point x="597" y="324" type="qcurve"/>
      <point x="546" y="266" type="line"/>
      <point x="636" y="179"/>
      <point x="787" y="179" type="qcurve" smooth="yes"/>
      <point x="905" y="179"/>
      <point x="973" y="235" type="qcurve" smooth="yes"/>
      <point x="1038" y="290"/>
    </contour>
    <contour>
      <point x="174" y="575" type="line"/>
      <point x="174" y="808" type="line"/>
      <point x="468" y="808" type="line"/>
      <point x="478" y="878" type="line"/>
      <point x="88" y="878" type="line"/>
      <point x="88" y="190" type="line"/>
      <point x="487" y="190" type="line"/>
      <point x="487" y="259" type="line"/>
      <point x="174" y="259" type="line"/>
      <point x="174" y="504" type="line"/>
      <point x="429" y="504" type="line"/>
      <point x="429" y="575" type="line"/>
    </contour>
    <contour>
      <point x="1380" y="890" type="qcurve" smooth="yes"/>
      <point x="1255" y="890"/>
      <point x="1173" y="800" type="qcurve" smooth="yes"/>
      <point x="1086" y="702"/>
      <point x="1086" y="535" type="qcurve" smooth="yes"/>
      <point x="1086" y="366"/>
      <point x="1172" y="270" type="qcurve" smooth="yes"/>
      <point x="1253" y="179"/>
      <point x="1384" y="179" type="qcurve" smooth="yes"/>
      <point x="1513" y="179"/>
      <point x="1589" y="253" type="qcurve"/>
      <point x="1545" y="310" type="line"/>
      <point x="1473" y="252"/>
      <point x="1385" y="252" type="qcurve" smooth="yes"/>
      <point x="1290" y="252"/>
      <point x="1236" y="316" type="qcurve" smooth="yes"/>
      <point x="1175" y="389"/>
      <point x="1175" y="535" type="qcurve" smooth="yes"/>
      <point x="1175" y="683"/>
      <point x="1238" y="756" type="qcurve" smooth="yes"/>
      <point x="1292" y="818"/>
      <point x="1386" y="818" type="qcurve" smooth="yes"/>
      <point x="1469" y="818"/>
      <point x="1531" y="767" type="qcurve"/>
      <point x="1579" y="823" type="line"/>
      <point x="1495" y="890"/>
    </contour>
  </outline>
</glyph>
<glyph name="uni001C" format="1">
  <advance width="1047"/>
  <unicode hex="001C"/>
  <outline>
    <contour>
      <point x="1027" y="966" type="line"/>
      <point x="1027" y="69" type="line"/>
      <point x="20" y="69" type="line"/>
      <point x="20" y="966" type="line"/>
    </contour>
    <contour>
      <point x="86" y="878" type="line"/>
      <point x="86" y="190" type="line"/>
      <point x="171" y="190" type="line"/>
      <point x="171" y="497" type="line"/>
      <point x="441" y="497" type="line"/>
      <point x="441" y="566" type="line"/>
      <point x="171" y="566" type="line"/>
      <point x="171" y="808" type="line"/>
      <point x="560" y="808" type="line"/>
      <point x="521" y="765"/>
      <point x="521" y="703" type="qcurve" smooth="yes"/>
      <point x="521" y="626"/>
      <point x="581" y="577" type="qcurve" smooth="yes"/>
      <point x="631" y="537"/>
      <point x="743" y="504" type="qcurve" smooth="yes"/>
      <point x="831" y="478"/>
      <point x="863" y="449" type="qcurve" smooth="yes"/>
      <point x="894" y="420"/>
      <point x="894" y="369" type="qcurve" smooth="yes"/>
      <point x="894" y="307"/>
      <point x="845" y="272" type="qcurve" smooth="yes"/>
      <point x="801" y="241"/>
      <point x="734" y="241" type="qcurve" smooth="yes"/>
      <point x="620" y="241"/>
      <point x="542" y="314" type="qcurve"/>
      <point x="491" y="256" type="line"/>
      <point x="581" y="169"/>
      <point x="732" y="169" type="qcurve" smooth="yes"/>
      <point x="850" y="169"/>
      <point x="918" y="225" type="qcurve" smooth="yes"/>
      <point x="983" y="280"/>
      <point x="983" y="371" type="qcurve" smooth="yes"/>
      <point x="983" y="460"/>
      <point x="923" y="512" type="qcurve" smooth="yes"/>
      <point x="878" y="550"/>
      <point x="782" y="578" type="qcurve" smooth="yes"/>
      <point x="683" y="607"/>
      <point x="646" y="634" type="qcurve" smooth="yes"/>
      <point x="608" y="661"/>
      <point x="608" y="705" type="qcurve" smooth="yes"/>
      <point x="608" y="755"/>
      <point x="649" y="782" type="qcurve" smooth="yes"/>
      <point x="686" y="808"/>
      <point x="746" y="808" type="qcurve" smooth="yes"/>
      <point x="842" y="808"/>
      <point x="912" y="745" type="qcurve"/>
      <point x="963" y="801" type="line"/>
      <point x="871" y="880"/>
      <point x="744" y="880" type="qcurve" smooth="yes"/>
      <point x="724" y="880"/>
      <point x="706" y="878" type="qcurve" smooth="yes"/>
    </contour>
  </outline>
</glyph>
<glyph name="uni001D" format="1">
  <advance width="1047"/>
  <unicode hex="001D"/>
  <outline>
    <contour>
      <point x="1027" y="966" type="line"/>
      <point x="1027" y="69" type="line"/>
      <point x="20" y="69" type="line"/>
      <point x="20" y="966" type="line"/>
    </contour>
    <contour>
      <point x="301" y="169" type="qcurve" smooth="yes"/>
      <point x="414" y="169"/>
      <point x="525" y="228" type="qcurve"/>
      <point x="525" y="252" type="line"/>
      <point x="614" y="169"/>
      <point x="762" y="169" type="qcurve" smooth="yes"/>
      <point x="880" y="169"/>
      <point x="948" y="225" type="qcurve" smooth="yes"/>
      <point x="1013" y="280"/>
      <point x="1013" y="371" type="qcurve" smooth="yes"/>
      <point x="1013" y="460"/>
      <point x="953" y="512" type="qcurve" smooth="yes"/>
      <point x="908" y="550"/>
      <point x="812" y="578" type="qcurve" smooth="yes"/>
      <point x="713" y="607"/>
      <point x="676" y="634" type="qcurve" smooth="yes"/>
      <point x="638" y="661"/>
      <point x="638" y="705" type="qcurve" smooth="yes"/>
      <point x="638" y="755"/>
      <point x="679" y="782" type="qcurve" smooth="yes"/>
      <point x="716" y="808"/>
      <point x="776" y="808" type="qcurve" smooth="yes"/>
      <point x="872" y="808"/>
      <point x="942" y="745" type="qcurve"/>
      <point x="993" y="801" type="line"/>
      <point x="901" y="880"/>
      <point x="774" y="880" type="qcurve" smooth="yes"/>
      <point x="675" y="880"/>
      <point x="613" y="830" type="qcurve" smooth="yes"/>
      <point x="551" y="781"/>
      <point x="551" y="703" type="qcurve" smooth="yes"/>
      <point x="551" y="626"/>
      <point x="611" y="577" type="qcurve" smooth="yes"/>
      <point x="661" y="537"/>
      <point x="773" y="504" type="qcurve" smooth="yes"/>
      <point x="861" y="478"/>
      <point x="893" y="449" type="qcurve" smooth="yes"/>
      <point x="924" y="420"/>
      <point x="924" y="369" type="qcurve" smooth="yes"/>
      <point x="924" y="307"/>
      <point x="875" y="272" type="qcurve" smooth="yes"/>
      <point x="831" y="241"/>
      <point x="764" y="241" type="qcurve" smooth="yes"/>
      <point x="650" y="241"/>
      <point x="572" y="314" type="qcurve" smooth="yes"/>
      <point x="525" y="356" type="line"/>
      <point x="525" y="556" type="line"/>
      <point x="294" y="556" type="line"/>
      <point x="304" y="485" type="line"/>
      <point x="440" y="485" type="line"/>
      <point x="440" y="274" type="line"/>
      <point x="380" y="241"/>
      <point x="308" y="241" type="qcurve" smooth="yes"/>
      <point x="124" y="241"/>
      <point x="124" y="525" type="qcurve" smooth="yes"/>
      <point x="124" y="672"/>
      <point x="185" y="746" type="qcurve" smooth="yes"/>
      <point x="236" y="807"/>
      <point x="321" y="807" type="qcurve" smooth="yes"/>
      <point x="404" y="807"/>
      <point x="465" y="750" type="qcurve"/>
      <point x="517" y="804" type="line"/>
      <point x="435" y="880"/>
      <point x="321" y="880" type="qcurve" smooth="yes"/>
      <point x="202" y="880"/>
      <point x="122" y="791" type="qcurve" smooth="yes"/>
      <point x="33" y="694"/>
      <point x="33" y="525" type="qcurve" smooth="yes"/>
      <point x="33" y="350"/>
      <point x="106" y="258" type="qcurve" smooth="yes"/>
      <point x="176" y="169"/>
    </contour>
  </outline>
</glyph>
<glyph name="uni001E" format="1">
  <advance width="1047"/>
  <unicode hex="001E"/>
  <outline>
    <contour>
      <point x="1027" y="966" type="line"/>
      <point x="1027" y="69" type="line"/>
      <point x="20" y="69" type="line"/>
      <point x="20" y="966" type="line"/>
    </contour>
    <contour>
      <point x="1003" y="371" type="qcurve" smooth="yes"/>
      <point x="1003" y="460"/>
      <point x="943" y="512" type="qcurve" smooth="yes"/>
      <point x="898" y="550"/>
      <point x="802" y="578" type="qcurve" smooth="yes"/>
      <point x="703" y="607"/>
      <point x="666" y="634" type="qcurve" smooth="yes"/>
      <point x="628" y="661"/>
      <point x="628" y="705" type="qcurve" smooth="yes"/>
      <point x="628" y="755"/>
      <point x="669" y="782" type="qcurve" smooth="yes"/>
      <point x="706" y="808"/>
      <point x="766" y="808" type="qcurve" smooth="yes"/>
      <point x="862" y="808"/>
      <point x="932" y="745" type="qcurve"/>
      <point x="983" y="801" type="line"/>
      <point x="891" y="880"/>
      <point x="764" y="880" type="qcurve" smooth="yes"/>
      <point x="665" y="880"/>
      <point x="603" y="830" type="qcurve" smooth="yes"/>
      <point x="541" y="781"/>
      <point x="541" y="703" type="qcurve" smooth="yes"/>
      <point x="541" y="626"/>
      <point x="601" y="577" type="qcurve" smooth="yes"/>
      <point x="651" y="537"/>
      <point x="763" y="504" type="qcurve" smooth="yes"/>
      <point x="851" y="478"/>
      <point x="883" y="449" type="qcurve" smooth="yes"/>
      <point x="914" y="420"/>
      <point x="914" y="369" type="qcurve" smooth="yes"/>
      <point x="914" y="307"/>
      <point x="865" y="272" type="qcurve" smooth="yes"/>
      <point x="821" y="241"/>
      <point x="754" y="241" type="qcurve" smooth="yes"/>
      <point x="640" y="241"/>
      <point x="562" y="314" type="qcurve"/>
      <point x="511" y="256" type="line"/>
      <point x="601" y="169"/>
      <point x="752" y="169" type="qcurve" smooth="yes"/>
      <point x="870" y="169"/>
      <point x="938" y="225" type="qcurve" smooth="yes"/>
      <point x="1003" y="280"/>
    </contour>
    <contour>
      <point x="486" y="686" type="qcurve" smooth="yes"/>
      <point x="486" y="878"/>
      <point x="240" y="878" type="qcurve" smooth="yes"/>
      <point x="73" y="878" type="line"/>
      <point x="73" y="190" type="line"/>
      <point x="155" y="190" type="line"/>
      <point x="155" y="486" type="line"/>
      <point x="244" y="486" type="line"/>
      <point x="422" y="190" type="line"/>
      <point x="520" y="190" type="line"/>
      <point x="325" y="496" type="line"/>
      <point x="486" y="536"/>
    </contour>
    <contour>
      <point x="412" y="696" type="qcurve" smooth="yes"/>
      <point x="412" y="563"/>
      <point x="256" y="563" type="qcurve" smooth="yes"/>
      <point x="155" y="563" type="line"/>
      <point x="155" y="820" type="line"/>
      <point x="255" y="820" type="line" smooth="yes"/>
      <point x="412" y="820"/>
    </contour>
  </outline>
</glyph>
<glyph name="uni001F" format="1">
  <advance width="1051"/>
  <unicode hex="001F"/>
  <outline>
    <contour>
      <point x="503" y="881" type="line"/>
      <point x="417" y="881" type="line"/>
      <point x="417" y="412" type="line" smooth="yes"/>
      <point x="417" y="256"/>
      <point x="275" y="256" type="qcurve" smooth="yes"/>
      <point x="134" y="256"/>
      <point x="134" y="412" type="qcurve" smooth="yes"/>
      <point x="134" y="881" type="line"/>
      <point x="49" y="881" type="line"/>
      <point x="49" y="416" type="line" smooth="yes"/>
      <point x="49" y="310"/>
      <point x="109" y="247" type="qcurve" smooth="yes"/>
      <point x="170" y="182"/>
      <point x="275" y="182" type="qcurve" smooth="yes"/>
      <point x="379" y="182"/>
      <point x="441" y="247" type="qcurve" smooth="yes"/>
      <point x="503" y="311"/>
      <point x="503" y="416" type="qcurve" smooth="yes"/>
    </contour>
    <contour>
      <point x="1031" y="966" type="line"/>
      <point x="1031" y="69" type="line"/>
      <point x="20" y="69" type="line"/>
      <point x="20" y="966" type="line"/>
    </contour>
    <contour>
      <point x="1006" y="381" type="qcurve" smooth="yes"/>
      <point x="1006" y="470"/>
      <point x="946" y="522" type="qcurve" smooth="yes"/>
      <point x="901" y="560"/>
      <point x="805" y="588" type="qcurve" smooth="yes"/>
      <point x="706" y="617"/>
      <point x="669" y="644" type="qcurve" smooth="yes"/>
      <point x="631" y="671"/>
      <point x="631" y="715" type="qcurve" smooth="yes"/>
      <point x="631" y="765"/>
      <point x="672" y="792" type="qcurve" smooth="yes"/>
      <point x="709" y="818"/>
      <point x="769" y="818" type="qcurve" smooth="yes"/>
      <point x="865" y="818"/>
      <point x="935" y="755" type="qcurve"/>
      <point x="986" y="811" type="line"/>
      <point x="894" y="890"/>
      <point x="767" y="890" type="qcurve" smooth="yes"/>
      <point x="668" y="890"/>
      <point x="606" y="840" type="qcurve" smooth="yes"/>
      <point x="544" y="791"/>
      <point x="544" y="713" type="qcurve" smooth="yes"/>
      <point x="544" y="636"/>
      <point x="604" y="587" type="qcurve" smooth="yes"/>
      <point x="654" y="547"/>
      <point x="766" y="514" type="qcurve" smooth="yes"/>
      <point x="854" y="488"/>
      <point x="886" y="459" type="qcurve" smooth="yes"/>
      <point x="917" y="430"/>
      <point x="917" y="379" type="qcurve" smooth="yes"/>
      <point x="917" y="317"/>
      <point x="868" y="282" type="qcurve" smooth="yes"/>
      <point x="824" y="251"/>
      <point x="757" y="251" type="qcurve" smooth="yes"/>
      <point x="643" y="251"/>
      <point x="565" y="324" type="qcurve"/>
      <point x="514" y="266" type="line"/>
      <point x="604" y="179"/>
      <point x="755" y="179" type="qcurve" smooth="yes"/>
      <point x="873" y="179"/>
      <point x="941" y="235" type="qcurve" smooth="yes"/>
      <point x="1006" y="290"/>
    </contour>
  </outline>
</glyph>
<glyph name="exclam" format="1">
  <advance width="600"/>
  <unicode hex="0021"/>
  <outline>
    <contour>
      <point x="247" y="689" type="line"/>
      <point x="258" y="230" type="line"/>
      <point x="339" y="230" type="line"/>
      <point x="349" y="689" type="line"/>
    </contour>
    <contour>
      <point x="260" y="127"/>
      <point x="230" y="96"/>
      <point x="230" y="58" type="curve" smooth="yes"/>
      <point x="230" y="19"/>
      <point x="260" y="-12"/>
      <point x="299" y="-12" type="curve" smooth="yes"/>
      <point x="339" y="-12"/>
      <point x="369" y="19"/>
      <point x="369" y="58" type="curve" smooth="yes"/>
      <point x="369" y="96"/>
      <point x="339" y="127"/>
      <point x="299" y="127" type="curve" smooth="yes"/>
    </contour>
  </outline>
</glyph>
<glyph name="numbersign" format="1">
  <advance width="600"/>
  <unicode hex="0023"/>
  <outline>
    <contour>
      <point x="549" y="455" type="line"/>
      <point x="549" y="525" type="line"/>
      <point x="471" y="525" type="line"/>
      <point x="494" y="689" type="line"/>
      <point x="416" y="689" type="line"/>
      <point x="394" y="525" type="line"/>
      <point x="253" y="525" type="line"/>
      <point x="276" y="689" type="line"/>
      <point x="198" y="689" type="line"/>
      <point x="176" y="525" type="line"/>
      <point x="88" y="525" type="line"/>
      <point x="88" y="455" type="line"/>
      <point x="167" y="455" type="line"/>
      <point x="137" y="236" type="line"/>
      <point x="51" y="236" type="line"/>
      <point x="51" y="167" type="line"/>
      <point x="128" y="167" type="line"/>
      <point x="106" y="0" type="line"/>
      <point x="184" y="0" type="line"/>
      <point x="206" y="167" type="line"/>
      <point x="346" y="167" type="line"/>
      <point x="324" y="0" type="line"/>
      <point x="402" y="0" type="line"/>
      <point x="423" y="167" type="line"/>
      <point x="512" y="167" type="line"/>
      <point x="512" y="236" type="line"/>
      <point x="433" y="236" type="line"/>
      <point x="462" y="455" type="line"/>
    </contour>
    <contour>
      <point x="244" y="455" type="line"/>
      <point x="385" y="455" type="line"/>
      <point x="355" y="236" type="line"/>
      <point x="215" y="236" type="line"/>
    </contour>
  </outline>
</glyph>
<glyph name="dollar" format="1">
  <advance width="600"/>
  <unicode hex="0024"/>
  <outline>
    <contour>
      <point x="277" y="849" type="line"/>
      <point x="277" y="699" type="line"/>
      <point x="154" y="687"/>
      <point x="92" y="609"/>
      <point x="92" y="526" type="curve" smooth="yes"/>
      <point x="92" y="433"/>
      <point x="157" y="374"/>
      <point x="277" y="334" type="curve"/>
      <point x="277" y="65" type="line"/>
      <point x="212" y="70"/>
      <point x="161" y="100"/>
      <point x="119" y="142" type="curve"/>
      <point x="66" y="83" type="line"/>
      <point x="111" y="39"/>
      <point x="182" y="-5"/>
      <point x="277" y="-11" type="curve"/>
      <point x="277" y="-154" type="line"/>
      <point x="346" y="-154" type="line"/>
      <point x="346" y="-8" type="line"/>
      <point x="474" y="9"/>
      <point x="540" y="94"/>
      <point x="540" y="191" type="curve" smooth="yes"/>
      <point x="540" y="313"/>
      <point x="450" y="369"/>
      <point x="346" y="403" type="curve"/>
      <point x="346" y="625" type="line"/>
      <point x="395" y="619"/>
      <point x="439" y="598"/>
      <point x="477" y="563" type="curve"/>
      <point x="531" y="619" type="line"/>
      <point x="489" y="657"/>
      <point x="426" y="691"/>
      <point x="346" y="699" type="curve"/>
      <point x="346" y="849" type="line"/>
    </contour>
    <contour>
      <point x="419" y="279"/>
      <point x="443" y="242"/>
      <point x="443" y="188" type="curve" smooth="yes"/>
      <point x="443" y="121"/>
      <point x="410" y="82"/>
      <point x="346" y="69" type="curve"/>
      <point x="346" y="310" type="line"/>
    </contour>
    <contour>
      <point x="277" y="426" type="line"/>
      <point x="206" y="455"/>
      <point x="187" y="484"/>
      <point x="187" y="529" type="curve" smooth="yes"/>
      <point x="187" y="583"/>
      <point x="224" y="614"/>
      <point x="277" y="623" type="curve"/>
    </contour>
  </outline>
</glyph>
<glyph name="percent" format="1">
  <advance width="600"/>
  <unicode hex="0025"/>
  <outline>
    <contour>
      <point x="38" y="14" type="line"/>
      <point x="94" y="-21" type="line"/>
      <point x="553" y="673" type="line"/>
      <point x="496" y="708" type="line"/>
    </contour>
    <contour>
      <point x="477" y="253"/>
      <point x="504" y="225"/>
      <point x="504" y="155" type="curve" smooth="yes"/>
      <point x="504" y="86"/>
      <point x="477" y="55"/>
      <point x="438" y="55" type="curve" smooth="yes"/>
      <point x="398" y="55"/>
      <point x="371" y="92"/>
      <point x="371" y="155" type="curve" smooth="yes"/>
      <point x="371" y="223"/>
      <point x="399" y="253"/>
      <point x="438" y="253" type="curve" smooth="yes"/>
    </contour>
    <contour>
      <point x="203" y="639"/>
      <point x="230" y="611"/>
      <point x="230" y="541" type="curve" smooth="yes"/>
      <point x="230" y="472"/>
      <point x="203" y="441"/>
      <point x="164" y="441" type="curve" smooth="yes"/>
      <point x="124" y="441"/>
      <point x="97" y="478"/>
      <point x="97" y="541" type="curve" smooth="yes"/>
      <point x="97" y="607"/>
      <point x="125" y="639"/>
      <point x="164" y="639" type="curve" smooth="yes"/>
    </contour>
    <contour>
      <point x="71" y="701"/>
      <point x="17" y="628"/>
      <point x="17" y="541" type="curve" smooth="yes"/>
      <point x="17" y="455"/>
      <point x="71" y="380"/>
      <point x="164" y="380" type="curve" smooth="yes"/>
      <point x="257" y="380"/>
      <point x="310" y="455"/>
      <point x="310" y="541" type="curve" smooth="yes"/>
      <point x="310" y="628"/>
      <point x="257" y="701"/>
      <point x="164" y="701" type="curve" smooth="yes"/>
    </contour>
    <contour>
      <point x="345" y="315"/>
      <point x="291" y="242"/>
      <point x="291" y="155" type="curve" smooth="yes"/>
      <point x="291" y="69"/>
      <point x="345" y="-6"/>
      <point x="438" y="-6" type="curve" smooth="yes"/>
      <point x="531" y="-6"/>
      <point x="584" y="69"/>
      <point x="584" y="155" type="curve" smooth="yes"/>
      <point x="584" y="242"/>
      <point x="531" y="315"/>
      <point x="438" y="315" type="curve" smooth="yes"/>
    </contour>
  </outline>
</glyph>
<glyph name="quotesingle" format="1">
  <advance width="600"/>
  <unicode hex="0027"/>
  <outline>
    <contour>
      <point x="339" y="477" type="line"/>
      <point x="355" y="739" type="line"/>
      <point x="245" y="739" type="line"/>
      <point x="261" y="477" type="line"/>
    </contour>
  </outline>
</glyph>
<glyph name="parenleft" format="1">
  <advance width="600"/>
  <unicode hex="0028"/>
  <outline>
    <contour>
      <point x="218" y="555"/>
      <point x="286" y="662"/>
      <point x="429" y="792" type="curve"/>
      <point x="380" y="842" type="line"/>
      <point x="218" y="709"/>
      <point x="122" y="577"/>
      <point x="122" y="350" type="curve" smooth="yes"/>
      <point x="122" y="123"/>
      <point x="218" y="-9"/>
      <point x="380" y="-142" type="curve"/>
      <point x="429" y="-92" type="line"/>
      <point x="286" y="38"/>
      <point x="218" y="146"/>
      <point x="218" y="350" type="curve" smooth="yes"/>
    </contour>
  </outline>
</glyph>
<glyph name="parenright" format="1">
  <advance width="600"/>
  <unicode hex="0029"/>
  <outline>
    <contour>
      <point x="382" y="146"/>
      <point x="314" y="38"/>
      <point x="171" y="-92" type="curve"/>
      <point x="220" y="-142" type="line"/>
      <point x="382" y="-9"/>
      <point x="478" y="123"/>
      <point x="478" y="350" type="curve" smooth="yes"/>
      <point x="478" y="577"/>
      <point x="382" y="709"/>
      <point x="220" y="842" type="curve"/>
      <point x="171" y="792" type="line"/>
      <point x="314" y="662"/>
      <point x="382" y="555"/>
      <point x="382" y="350" type="curve" smooth="yes"/>
    </contour>
  </outline>
</glyph>
<glyph name="asterisk" format="1">
  <advance width="600"/>
  <unicode hex="002A"/>
  <outline>
    <contour>
      <point x="255" y="527" type="line"/>
      <point x="270" y="364" type="line"/>
      <point x="121" y="427" type="line"/>
      <point x="94" y="342" type="line"/>
      <point x="252" y="307" type="line"/>
      <point x="146" y="182" type="line"/>
      <point x="221" y="131" type="line"/>
      <point x="301" y="273" type="line"/>
      <point x="386" y="133" type="line"/>
      <point x="459" y="188" type="line"/>
      <point x="349" y="307" type="line"/>
      <point x="506" y="342" type="line"/>
      <point x="479" y="427" type="line"/>
      <point x="329" y="364" type="line"/>
      <point x="345" y="527" type="line"/>
    </contour>
  </outline>
</glyph>
<glyph name="plus" format="1">
  <advance width="600"/>
  <unicode hex="002B"/>
  <outline>
    <contour>
      <point x="257" y="499" type="line"/>
      <point x="257" y="349" type="line"/>
      <point x="112" y="349" type="line"/>
      <point x="112" y="273" type="line"/>
      <point x="257" y="273" type="line"/>
      <point x="257" y="124" type="line"/>
      <point x="341" y="124" type="line"/>
      <point x="341" y="273" type="line"/>
      <point x="488" y="273" type="line"/>
      <point x="488" y="349" type="line"/>
      <point x="341" y="349" type="line"/>
      <point x="341" y="499" type="line"/>
    </contour>
  </outline>
</glyph>
<glyph name="comma" format="1">
  <advance width="600"/>
  <unicode hex="002C"/>
  <outline>
    <contour>
      <point x="253" y="169"/>
      <point x="217" y="132"/>
      <point x="217" y="86" type="curve" smooth="yes"/>
      <point x="217" y="58"/>
      <point x="230" y="32"/>
      <point x="251" y="17" type="curve"/>
      <point x="203" y="-182" type="line"/>
      <point x="282" y="-182" type="line"/>
      <point x="362" y="1" type="line" smooth="yes"/>
      <point x="378" y="36"/>
      <point x="384" y="60"/>
      <point x="384" y="86" type="curve" smooth="yes"/>
      <point x="384" y="132"/>
      <point x="348" y="169"/>
      <point x="300" y="169" type="curve" smooth="yes"/>
    </contour>
  </outline>
</glyph>
<glyph name="hyphen" format="1">
  <advance width="600"/>
  <unicode hex="002D"/>
  <outline>
    <contour>
      <point x="477" y="274" type="line"/>
      <point x="477" y="352" type="line"/>
      <point x="123" y="352" type="line"/>
      <point x="123" y="274" type="line"/>
    </contour>
  </outline>
</glyph>
<glyph name="period" format="1">
  <advance width="600"/>
  <unicode hex="002E"/>
  <outline>
    <contour>
      <point x="209" y="28"/>
      <point x="248" y="-12"/>
      <point x="299" y="-12" type="curve" smooth="yes"/>
      <point x="351" y="-12"/>
      <point x="390" y="28"/>
      <point x="390" y="79" type="curve" smooth="yes"/>
      <point x="390" y="129"/>
      <point x="351" y="169"/>
      <point x="299" y="169" type="curve" smooth="yes"/>
      <point x="248" y="169"/>
      <point x="209" y="129"/>
      <point x="209" y="79" type="curve" smooth="yes"/>
    </contour>
  </outline>
</glyph>
<glyph name="slash" format="1">
  <advance width="600"/>
  <unicode hex="002F"/>
  <outline>
    <contour>
      <point x="550" y="775" type="line"/>
      <point x="477" y="810" type="line"/>
      <point x="50" y="-71" type="line"/>
      <point x="124" y="-104" type="line"/>
    </contour>
  </outline>
</glyph>
<glyph name="zero" format="1">
  <advance width="600"/>
  <unicode hex="0030"/>
  <outline>
    <contour>
      <point x="150" y="701"/>
      <point x="72" y="573"/>
      <point x="72" y="345" type="curve" smooth="yes"/>
      <point x="72" y="116"/>
      <point x="150" y="-12"/>
      <point x="300" y="-12" type="curve" smooth="yes"/>
      <point x="450" y="-12"/>
      <point x="528" y="116"/>
      <point x="528" y="345" type="curve" smooth="yes"/>
      <point x="528" y="573"/>
      <point x="450" y="701"/>
      <point x="300" y="701" type="curve" smooth="yes"/>
    </contour>
    <contour>
      <point x="384" y="628"/>
      <point x="433" y="546"/>
      <point x="433" y="345" type="curve" smooth="yes"/>
      <point x="433" y="143"/>
      <point x="384" y="61"/>
      <point x="300" y="61" type="curve" smooth="yes"/>
      <point x="217" y="61"/>
      <point x="167" y="143"/>
      <point x="167" y="345" type="curve" smooth="yes"/>
      <point x="167" y="546"/>
      <point x="217" y="628"/>
      <point x="300" y="628" type="curve" smooth="yes"/>
    </contour>
    <contour>
      <point x="263" y="410"/>
      <point x="235" y="381"/>
      <point x="235" y="345" type="curve" smooth="yes"/>
      <point x="235" y="308"/>
      <point x="263" y="279"/>
      <point x="300" y="279" type="curve" smooth="yes"/>
      <point x="338" y="279"/>
      <point x="366" y="308"/>
      <point x="366" y="345" type="curve" smooth="yes"/>
      <point x="366" y="381"/>
      <point x="338" y="410"/>
      <point x="300" y="410" type="curve" smooth="yes"/>
    </contour>
  </outline>
</glyph>
<glyph name="one" format="1">
  <advance width="600"/>
  <unicode hex="0031"/>
  <outline>
    <contour>
      <point x="298" y="689" type="line"/>
      <point x="91" y="561" type="line"/>
      <point x="131" y="496" type="line"/>
      <point x="287" y="591" type="line"/>
      <point x="287" y="20" type="line"/>
      <point x="379" y="20" type="line"/>
      <point x="379" y="689" type="line"/>
    </contour>
    <contour>
      <point x="118" y="74" type="line"/>
      <point x="118" y="0" type="line"/>
      <point x="521" y="0" type="line"/>
      <point x="521" y="74" type="line"/>
    </contour>
  </outline>
</glyph>
<glyph name="three" format="1">
  <advance width="600"/>
  <unicode hex="0033"/>
  <outline>
    <contour>
      <point x="196" y="701"/>
      <point x="128" y="676"/>
      <point x="69" y="620" type="curve"/>
      <point x="119" y="565" type="line"/>
      <point x="164" y="607"/>
      <point x="205" y="628"/>
      <point x="264" y="628" type="curve" smooth="yes"/>
      <point x="335" y="628"/>
      <point x="391" y="588"/>
      <point x="391" y="515" type="curve" smooth="yes"/>
      <point x="391" y="435"/>
      <point x="329" y="398"/>
      <point x="263" y="398" type="curve" smooth="yes"/>
      <point x="222" y="398" type="line"/>
      <point x="211" y="327" type="line"/>
      <point x="269" y="327" type="line" smooth="yes"/>
      <point x="350" y="327"/>
      <point x="409" y="295"/>
      <point x="409" y="199" type="curve" smooth="yes"/>
      <point x="409" y="115"/>
      <point x="353" y="63"/>
      <point x="260" y="63" type="curve" smooth="yes"/>
      <point x="204" y="63"/>
      <point x="147" y="85"/>
      <point x="108" y="131" type="curve"/>
      <point x="48" y="81" type="line"/>
      <point x="101" y="17"/>
      <point x="183" y="-12"/>
      <point x="263" y="-12" type="curve" smooth="yes"/>
      <point x="408" y="-12"/>
      <point x="505" y="79"/>
      <point x="505" y="198" type="curve" smooth="yes"/>
      <point x="505" y="305"/>
      <point x="430" y="360"/>
      <point x="348" y="367" type="curve"/>
      <point x="422" y="382"/>
      <point x="483" y="444"/>
      <point x="483" y="528" type="curve" smooth="yes"/>
      <point x="483" y="622"/>
      <point x="401" y="701"/>
      <point x="269" y="701" type="curve" smooth="yes"/>
    </contour>
  </outline>
</glyph>
<glyph name="four" format="1">
  <advance width="600"/>
  <unicode hex="0034"/>
  <outline>
    <contour>
      <point x="69" y="231" type="line"/>
      <point x="69" y="165" type="line"/>
      <point x="531" y="165" type="line"/>
      <point x="531" y="238" type="line"/>
      <point x="166" y="238" type="line"/>
      <point x="347" y="669" type="line"/>
      <point x="270" y="701" type="line"/>
    </contour>
    <contour>
      <point x="364" y="430" type="line"/>
      <point x="355" y="222" type="line"/>
      <point x="355" y="0" type="line"/>
      <point x="444" y="0" type="line"/>
      <point x="444" y="430" type="line"/>
    </contour>
  </outline>
</glyph>
<glyph name="five" format="1">
  <advance width="600"/>
  <unicode hex="0035"/>
  <outline>
    <contour>
      <point x="119" y="689" type="line"/>
      <point x="119" y="342" type="line"/>
      <point x="191" y="342" type="line"/>
      <point x="230" y="357"/>
      <point x="257" y="365"/>
      <point x="296" y="365" type="curve" smooth="yes"/>
      <point x="364" y="365"/>
      <point x="417" y="329"/>
      <point x="417" y="221" type="curve" smooth="yes"/>
      <point x="417" y="118"/>
      <point x="364" y="63"/>
      <point x="275" y="63" type="curve" smooth="yes"/>
      <point x="217" y="63"/>
      <point x="170" y="84"/>
      <point x="129" y="127" type="curve"/>
      <point x="73" y="73" type="line"/>
      <point x="126" y="20"/>
      <point x="191" y="-12"/>
      <point x="276" y="-12" type="curve" smooth="yes"/>
      <point x="420" y="-12"/>
      <point x="513" y="81"/>
      <point x="513" y="219" type="curve" smooth="yes"/>
      <point x="513" y="357"/>
      <point x="436" y="436"/>
      <point x="324" y="436" type="curve" smooth="yes"/>
      <point x="284" y="436"/>
      <point x="248" y="429"/>
      <point x="207" y="407" type="curve"/>
      <point x="207" y="617" type="line"/>
      <point x="477" y="617" type="line"/>
      <point x="490" y="689" type="line"/>
    </contour>
  </outline>
</glyph>
<glyph name="six" format="1">
  <advance width="600"/>
  <unicode hex="0036"/>
  <outline>
    <contour>
      <point x="173" y="701"/>
      <point x="76" y="553"/>
      <point x="76" y="324" type="curve" smooth="yes"/>
      <point x="76" y="122"/>
      <point x="139" y="-12"/>
      <point x="308" y="-12" type="curve" smooth="yes"/>
      <point x="431" y="-12"/>
      <point x="528" y="81"/>
      <point x="528" y="232" type="curve" smooth="yes"/>
      <point x="528" y="379"/>
      <point x="439" y="450"/>
      <point x="333" y="450" type="curve"/>
      <point x="262" y="450"/>
      <point x="204" y="419"/>
      <point x="159" y="345" type="curve"/>
      <point x="161" y="268" type="line"/>
      <point x="194" y="332"/>
      <point x="248" y="377"/>
      <point x="317" y="377" type="curve"/>
      <point x="387" y="377"/>
      <point x="434" y="340"/>
      <point x="434" y="229" type="curve" smooth="yes"/>
      <point x="434" y="126"/>
      <point x="392" y="61"/>
      <point x="308" y="61" type="curve" smooth="yes"/>
      <point x="209" y="61"/>
      <point x="170" y="137"/>
      <point x="170" y="305" type="curve"/>
      <point x="169" y="339" type="line"/>
      <point x="168" y="515"/>
      <point x="229" y="628"/>
      <point x="336" y="628" type="curve"/>
      <point x="373" y="628"/>
      <point x="408" y="618"/>
      <point x="439" y="599" type="curve"/>
      <point x="475" y="660" type="line"/>
      <point x="436" y="686"/>
      <point x="391" y="701"/>
      <point x="337" y="701" type="curve"/>
    </contour>
  </outline>
</glyph>
<glyph name="seven" format="1">
  <advance width="600"/>
  <unicode hex="0037"/>
  <outline>
    <contour>
      <point x="508" y="620" type="line"/>
      <point x="508" y="689" type="line"/>
      <point x="94" y="689" type="line"/>
      <point x="94" y="614" type="line"/>
      <point x="415" y="614" type="line"/>
      <point x="148" y="16" type="line"/>
      <point x="234" y="-10" type="line"/>
    </contour>
  </outline>
</glyph>
<glyph name="nine" format="1">
  <advance width="600"/>
  <unicode hex="0039"/>
  <outline>
    <contour>
      <point x="164" y="700"/>
      <point x="64" y="619"/>
      <point x="64" y="471" type="curve"/>
      <point x="64" y="334"/>
      <point x="147" y="250"/>
      <point x="261" y="251" type="curve" smooth="yes"/>
      <point x="338" y="252"/>
      <point x="393" y="292"/>
      <point x="425" y="338" type="curve"/>
      <point x="430" y="420" type="line"/>
      <point x="392" y="362"/>
      <point x="346" y="324"/>
      <point x="280" y="323" type="curve" smooth="yes"/>
      <point x="205" y="322"/>
      <point x="159" y="366"/>
      <point x="159" y="469" type="curve"/>
      <point x="159" y="573"/>
      <point x="204" y="627"/>
      <point x="290" y="627" type="curve" smooth="yes"/>
      <point x="388" y="627"/>
      <point x="429" y="566"/>
      <point x="422" y="387" type="curve"/>
      <point x="421" y="341" type="line"/>
      <point x="419" y="175"/>
      <point x="309" y="96"/>
      <point x="124" y="47" type="curve"/>
      <point x="145" y="-22" type="line"/>
      <point x="406" y="49"/>
      <point x="518" y="142"/>
      <point x="518" y="433" type="curve" smooth="yes"/>
      <point x="518" y="597"/>
      <point x="445" y="700"/>
      <point x="290" y="700" type="curve" smooth="yes"/>
    </contour>
  </outline>
</glyph>
<glyph name="colon" format="1">
  <advance width="600"/>
  <unicode hex="003A"/>
  <outline>
    <contour>
      <point x="216" y="25"/>
      <point x="252" y="-12"/>
      <point x="299" y="-12" type="curve" smooth="yes"/>
      <point x="347" y="-12"/>
      <point x="383" y="25"/>
      <point x="383" y="72" type="curve" smooth="yes"/>
      <point x="383" y="117"/>
      <point x="347" y="155"/>
      <point x="299" y="155" type="curve" smooth="yes"/>
      <point x="252" y="155"/>
      <point x="216" y="117"/>
      <point x="216" y="72" type="curve" smooth="yes"/>
    </contour>
    <contour>
      <point x="216" y="385"/>
      <point x="252" y="347"/>
      <point x="299" y="347" type="curve" smooth="yes"/>
      <point x="347" y="347"/>
      <point x="383" y="385"/>
      <point x="383" y="431" type="curve" smooth="yes"/>
      <point x="383" y="477"/>
      <point x="347" y="514"/>
      <point x="299" y="514" type="curve" smooth="yes"/>
      <point x="252" y="514"/>
      <point x="216" y="477"/>
      <point x="216" y="431" type="curve" smooth="yes"/>
    </contour>
  </outline>
</glyph>
<glyph name="semicolon" format="1">
  <advance width="600"/>
  <unicode hex="003B"/>
  <outline>
    <contour>
      <point x="252" y="169"/>
      <point x="216" y="132"/>
      <point x="216" y="86" type="curve" smooth="yes"/>
      <point x="216" y="58"/>
      <point x="229" y="32"/>
      <point x="250" y="17" type="curve"/>
      <point x="202" y="-182" type="line"/>
      <point x="281" y="-182" type="line"/>
      <point x="361" y="1" type="line" smooth="yes"/>
      <point x="377" y="36"/>
      <point x="383" y="60"/>
      <point x="383" y="86" type="curve" smooth="yes"/>
      <point x="383" y="132"/>
      <point x="347" y="169"/>
      <point x="299" y="169" type="curve" smooth="yes"/>
    </contour>
    <contour>
      <point x="252" y="514"/>
      <point x="216" y="477"/>
      <point x="216" y="431" type="curve" smooth="yes"/>
      <point x="216" y="385"/>
      <point x="252" y="347"/>
      <point x="299" y="347" type="curve" smooth="yes"/>
      <point x="347" y="347"/>
      <point x="383" y="385"/>
      <point x="383" y="431" type="curve" smooth="yes"/>
      <point x="383" y="477"/>
      <point x="347" y="514"/>
      <point x="299" y="514" type="curve" smooth="yes"/>
    </contour>
  </outline>
</glyph>
<glyph name="less" format="1">
  <advance width="600"/>
  <unicode hex="003C"/>
  <outline>
    <contour>
      <point x="86" y="358" type="line"/>
      <point x="86" y="269" type="line"/>
      <point x="467" y="31" type="line"/>
      <point x="515" y="98" type="line"/>
      <point x="165" y="313" type="line"/>
      <point x="515" y="527" type="line"/>
      <point x="471" y="596" type="line"/>
    </contour>
  </outline>
</glyph>
<glyph name="equal" format="1">
  <advance width="600"/>
  <unicode hex="003D"/>
  <outline>
    <contour>
      <point x="102" y="446" type="line"/>
      <point x="102" y="368" type="line"/>
      <point x="498" y="368" type="line"/>
      <point x="498" y="446" type="line"/>
    </contour>
    <contour>
      <point x="102" y="254" type="line"/>
      <point x="102" y="176" type="line"/>
      <point x="498" y="176" type="line"/>
      <point x="498" y="254" type="line"/>
    </contour>
  </outline>
</glyph>
<glyph name="greater" format="1">
  <advance width="600"/>
  <unicode hex="003E"/>
  <outline>
    <contour>
      <point x="86" y="527" type="line"/>
      <point x="436" y="313" type="line"/>
      <point x="86" y="98" type="line"/>
      <point x="134" y="31" type="line"/>
      <point x="515" y="269" type="line"/>
      <point x="515" y="358" type="line"/>
      <point x="130" y="596" type="line"/>
    </contour>
  </outline>
</glyph>
<glyph name="question" format="1">
  <advance width="600"/>
  <unicode hex="003F"/>
  <outline>
    <contour>
      <point x="216" y="701"/>
      <point x="144" y="669"/>
      <point x="86" y="601" type="curve"/>
      <point x="150" y="553" type="line"/>
      <point x="191" y="603"/>
      <point x="243" y="625"/>
      <point x="290" y="625" type="curve" smooth="yes"/>
      <point x="355" y="625"/>
      <point x="404" y="594"/>
      <point x="404" y="539" type="curve" smooth="yes"/>
      <point x="404" y="429"/>
      <point x="228" y="431"/>
      <point x="228" y="268" type="curve" smooth="yes"/>
      <point x="228" y="230" type="line"/>
      <point x="319" y="230" type="line"/>
      <point x="319" y="263" type="line" smooth="yes"/>
      <point x="319" y="406"/>
      <point x="500" y="385"/>
      <point x="500" y="545" type="curve" smooth="yes"/>
      <point x="500" y="625"/>
      <point x="425" y="701"/>
      <point x="299" y="701" type="curve" smooth="yes"/>
    </contour>
    <contour>
      <point x="237" y="127"/>
      <point x="207" y="96"/>
      <point x="207" y="58" type="curve" smooth="yes"/>
      <point x="207" y="19"/>
      <point x="237" y="-12"/>
      <point x="276" y="-12" type="curve" smooth="yes"/>
      <point x="316" y="-12"/>
      <point x="346" y="19"/>
      <point x="346" y="58" type="curve" smooth="yes"/>
      <point x="346" y="96"/>
      <point x="316" y="127"/>
      <point x="276" y="127" type="curve" smooth="yes"/>
    </contour>
  </outline>
</glyph>
<glyph name="A" format="1">
  <advance width="600"/>
  <unicode hex="0041"/>
  <outline>
    <contour>
      <point x="483" y="0" type="line"/>
      <point x="583" y="0" type="line"/>
      <point x="360" y="689" type="line"/>
      <point x="240" y="689" type="line"/>
      <point x="17" y="0" type="line"/>
      <point x="112" y="0" type="line"/>
      <point x="165" y="173" type="line"/>
      <point x="430" y="173" type="line"/>
    </contour>
    <contour>
      <point x="298" y="611" type="line"/>
      <point x="407" y="250" type="line"/>
      <point x="188" y="250" type="line"/>
    </contour>
    <contour>
      <point x="548" y="0" type="move" name="ogonek"/>
    </contour>
    <contour>
      <point x="300" y="689" type="move" name="top"/>
    </contour>
    <contour>
      <point x="196" y="689" type="move" name="topleft"/>
    </contour>
    <contour>
      <point x="298" y="0" type="move" name="bottom"/>
    </contour>
  </outline>
</glyph>
<glyph name="B" format="1">
  <advance width="600"/>
  <unicode hex="0042"/>
  <outline>
    <contour>
      <point x="443" y="96"/>
      <point x="362" y="77"/>
      <point x="295" y="77" type="curve" smooth="yes"/>
      <point x="187" y="77" type="line"/>
      <point x="187" y="322" type="line"/>
      <point x="299" y="322" type="line" smooth="yes"/>
      <point x="378" y="322"/>
      <point x="443" y="296"/>
      <point x="443" y="195" type="curve" smooth="yes"/>
    </contour>
    <contour>
      <point x="416" y="431"/>
      <point x="372" y="398"/>
      <point x="292" y="398" type="curve" smooth="yes"/>
      <point x="187" y="398" type="line"/>
      <point x="187" y="614" type="line"/>
      <point x="284" y="614" type="line" smooth="yes"/>
      <point x="366" y="614"/>
      <point x="416" y="585"/>
      <point x="416" y="509" type="curve" smooth="yes"/>
    </contour>
    <contour>
      <point x="543" y="313"/>
      <point x="461" y="352"/>
      <point x="385" y="365" type="curve"/>
      <point x="451" y="380"/>
      <point x="513" y="427"/>
      <point x="513" y="515" type="curve" smooth="yes"/>
      <point x="513" y="650"/>
      <point x="390" y="689"/>
      <point x="267" y="689" type="curve" smooth="yes"/>
      <point x="92" y="689" type="line"/>
      <point x="92" y="0" type="line"/>
      <point x="282" y="0" type="line" smooth="yes"/>
      <point x="411" y="0"/>
      <point x="543" y="46"/>
      <point x="543" y="197" type="curve" smooth="yes"/>
    </contour>
    <contour>
      <point x="300" y="689" type="move" name="top"/>
    </contour>
    <contour>
      <point x="300" y="0" type="move" name="bottom"/>
    </contour>
  </outline>
</glyph>
<glyph name="D" format="1">
  <advance width="600"/>
  <unicode hex="0044"/>
  <outline>
    <contour>
      <point x="454" y="125"/>
      <point x="350" y="75"/>
      <point x="252" y="75" type="curve" smooth="yes"/>
      <point x="175" y="75" type="line"/>
      <point x="175" y="613" type="line"/>
      <point x="251" y="613" type="line" smooth="yes"/>
      <point x="345" y="613"/>
      <point x="454" y="582"/>
      <point x="454" y="348" type="curve" smooth="yes"/>
    </contour>
    <contour>
      <point x="555" y="634"/>
      <point x="393" y="689"/>
      <point x="230" y="689" type="curve" smooth="yes"/>
      <point x="80" y="689" type="line"/>
      <point x="80" y="0" type="line"/>
      <point x="241" y="0" type="line" smooth="yes"/>
      <point x="387" y="0"/>
      <point x="555" y="60"/>
      <point x="555" y="348" type="curve" smooth="yes"/>
    </contour>
    <contour>
      <point x="300" y="345" type="move" name="center"/>
    </contour>
    <contour>
      <point x="300" y="0" type="move" name="bottom"/>
    </contour>
    <contour>
      <point x="284" y="689" type="move" name="top"/>
    </contour>
  </outline>
</glyph>
<glyph name="E" format="1">
  <advance width="600"/>
  <unicode hex="0045"/>
  <outline>
    <contour>
      <point x="509" y="613" type="line"/>
      <point x="520" y="689" type="line"/>
      <point x="122" y="689" type="line"/>
      <point x="122" y="0" type="line"/>
      <point x="528" y="0" type="line"/>
      <point x="528" y="75" type="line"/>
      <point x="217" y="75" type="line"/>
      <point x="217" y="312" type="line"/>
      <point x="471" y="312" type="line"/>
      <point x="471" y="388" type="line"/>
      <point x="217" y="388" type="line"/>
      <point x="217" y="613" type="line"/>
    </contour>
    <contour>
      <point x="478" y="0" type="move" name="ogonek"/>
    </contour>
    <contour>
      <point x="321" y="689" type="move" name="top"/>
    </contour>
    <contour>
      <point x="112" y="689" type="move" name="topleft"/>
    </contour>
    <contour>
      <point x="325" y="0" type="move" name="bottom"/>
    </contour>
  </outline>
</glyph>
<glyph name="F" format="1">
  <advance width="600"/>
  <unicode hex="0046"/>
  <outline>
    <contour>
      <point x="535" y="613" type="line"/>
      <point x="546" y="689" type="line"/>
      <point x="135" y="689" type="line"/>
      <point x="135" y="0" type="line"/>
      <point x="230" y="0" type="line"/>
      <point x="230" y="303" type="line"/>
      <point x="497" y="303" type="line"/>
      <point x="497" y="378" type="line"/>
      <point x="230" y="378" type="line"/>
      <point x="230" y="613" type="line"/>
    </contour>
    <contour>
      <point x="300" y="689" type="move" name="top"/>
    </contour>
    <contour>
      <point x="300" y="0" type="move" name="bottom"/>
    </contour>
  </outline>
</glyph>
<glyph name="G" format="1">
  <advance width="600"/>
  <unicode hex="0047"/>
  <outline>
    <contour>
      <point x="412" y="-12"/>
      <point x="479" y="14"/>
      <point x="542" y="49" type="curve"/>
      <point x="542" y="379" type="line"/>
      <point x="307" y="379" type="line"/>
      <point x="318" y="302" type="line"/>
      <point x="448" y="302" type="line"/>
      <point x="448" y="98" type="line"/>
      <point x="410" y="77"/>
      <point x="368" y="66"/>
      <point x="322" y="66" type="curve" smooth="yes"/>
      <point x="205" y="66"/>
      <point x="144" y="147"/>
      <point x="144" y="345" type="curve" smooth="yes"/>
      <point x="144" y="553"/>
      <point x="237" y="623"/>
      <point x="336" y="623" type="curve" smooth="yes"/>
      <point x="392" y="623"/>
      <point x="436" y="605"/>
      <point x="478" y="566" type="curve"/>
      <point x="534" y="624" type="line"/>
      <point x="480" y="674"/>
      <point x="426" y="701"/>
      <point x="335" y="701" type="curve" smooth="yes"/>
      <point x="183" y="701"/>
      <point x="43" y="582"/>
      <point x="43" y="345" type="curve" smooth="yes"/>
      <point x="43" y="107"/>
      <point x="148" y="-12"/>
      <point x="315" y="-12" type="curve" smooth="yes"/>
    </contour>
    <contour>
      <point x="330" y="689" type="move" name="top"/>
    </contour>
    <contour>
      <point x="330" y="0" type="move" name="bottom"/>
    </contour>
  </outline>
</glyph>
<glyph name="H" format="1">
  <advance width="600"/>
  <unicode hex="0048"/>
  <outline>
    <contour>
      <point x="520" y="0" type="line"/>
      <point x="520" y="689" type="line"/>
      <point x="425" y="689" type="line"/>
      <point x="425" y="401" type="line"/>
      <point x="175" y="401" type="line"/>
      <point x="175" y="689" type="line"/>
      <point x="80" y="689" type="line"/>
      <point x="80" y="0" type="line"/>
      <point x="175" y="0" type="line"/>
      <point x="175" y="323" type="line"/>
      <point x="425" y="323" type="line"/>
      <point x="425" y="0" type="line"/>
    </contour>
    <contour>
      <point x="300" y="345" type="move" name="center"/>
    </contour>
    <contour>
      <point x="530" y="0" type="move" name="bottomright"/>
    </contour>
    <contour>
      <point x="300" y="689" type="move" name="top"/>
    </contour>
  </outline>
</glyph>
<glyph name="I" format="1">
  <advance width="600"/>
  <unicode hex="0049"/>
  <outline>
    <contour>
      <point x="100" y="689" type="line"/>
      <point x="100" y="614" type="line"/>
      <point x="252" y="614" type="line"/>
      <point x="252" y="75" type="line"/>
      <point x="100" y="75" type="line"/>
      <point x="100" y="0" type="line"/>
      <point x="500" y="0" type="line"/>
      <point x="500" y="75" type="line"/>
      <point x="348" y="75" type="line"/>
      <point x="348" y="614" type="line"/>
      <point x="500" y="614" type="line"/>
      <point x="500" y="689" type="line"/>
    </contour>
    <contour>
      <point x="358" y="0" type="move" name="ogonek"/>
    </contour>
    <contour>
      <point x="300" y="689" type="move" name="top"/>
    </contour>
    <contour>
      <point x="90" y="689" type="move" name="topleft"/>
    </contour>
  </outline>
</glyph>
<glyph name="J" format="1">
  <advance width="600"/>
  <unicode hex="004A"/>
  <outline>
    <contour>
      <point x="200" y="689" type="line"/>
      <point x="200" y="613" type="line"/>
      <point x="405" y="613" type="line"/>
      <point x="405" y="235" type="line" smooth="yes"/>
      <point x="405" y="129"/>
      <point x="351" y="66"/>
      <point x="258" y="66" type="curve" smooth="yes"/>
      <point x="216" y="66"/>
      <point x="168" y="76"/>
      <point x="110" y="113" type="curve"/>
      <point x="69" y="51" type="line"/>
      <point x="124" y="10"/>
      <point x="190" y="-12"/>
      <point x="260" y="-12" type="curve" smooth="yes"/>
      <point x="441" y="-12"/>
      <point x="500" y="111"/>
      <point x="500" y="231" type="curve" smooth="yes"/>
      <point x="500" y="689" type="line"/>
    </contour>
    <contour>
      <point x="350" y="689" type="move" name="top"/>
    </contour>
  </outline>
</glyph>
<glyph name="M" format="1">
  <advance width="600"/>
  <unicode hex="004D"/>
  <outline>
    <contour>
      <point x="405" y="689" type="line"/>
      <point x="302" y="220" type="line"/>
      <point x="194" y="689" type="line"/>
      <point x="68" y="689" type="line"/>
      <point x="29" y="0" type="line"/>
      <point x="117" y="0" type="line"/>
      <point x="134" y="353" type="line" smooth="yes"/>
      <point x="138" y="442"/>
      <point x="137" y="560"/>
      <point x="134" y="603" type="curve"/>
      <point x="254" y="123" type="line"/>
      <point x="345" y="123" type="line"/>
      <point x="457" y="603" type="line"/>
      <point x="456" y="563"/>
      <point x="456" y="450"/>
      <point x="461" y="353" type="curve" smooth="yes"/>
      <point x="481" y="0" type="line"/>
      <point x="571" y="0" type="line"/>
      <point x="532" y="689" type="line"/>
    </contour>
    <contour>
      <point x="300" y="689" type="move" name="top"/>
    </contour>
    <contour>
      <point x="300" y="0" type="move" name="bottom"/>
    </contour>
    <contour>
      <point x="567" y="0" type="move" name="bottomright"/>
    </contour>
  </outline>
</glyph>
<glyph name="N" format="1">
  <advance width="600"/>
  <unicode hex="004E"/>
  <outline>
    <contour>
      <point x="520" y="0" type="line"/>
      <point x="520" y="689" type="line"/>
      <point x="433" y="689" type="line"/>
      <point x="433" y="353" type="line" smooth="yes"/>
      <point x="433" y="229"/>
      <point x="444" y="119"/>
      <point x="446" y="103" type="curve"/>
      <point x="442" y="103" type="line"/>
      <point x="207" y="689" type="line"/>
      <point x="80" y="689" type="line"/>
      <point x="80" y="0" type="line"/>
      <point x="167" y="0" type="line"/>
      <point x="167" y="336" type="line" smooth="yes"/>
      <point x="167" y="444"/>
      <point x="156" y="567"/>
      <point x="154" y="583" type="curve"/>
      <point x="158" y="583" type="line"/>
      <point x="390" y="0" type="line"/>
    </contour>
    <contour>
      <point x="300" y="689" type="move" name="top"/>
    </contour>
    <contour>
      <point x="300" y="0" type="move" name="bottom"/>
    </contour>
  </outline>
</glyph>
<glyph name="Q" format="1">
  <advance width="600"/>
  <unicode hex="0051"/>
  <outline>
    <contour>
      <point x="556" y="558"/>
      <point x="469" y="701"/>
      <point x="300" y="701" type="curve" smooth="yes"/>
      <point x="131" y="701"/>
      <point x="44" y="553"/>
      <point x="44" y="343" type="curve" smooth="yes"/>
      <point x="44" y="129"/>
      <point x="130" y="-10"/>
      <point x="290" y="-10" type="curve" smooth="yes"/>
      <point x="409" y="-10"/>
      <point x="459" y="-67"/>
      <point x="501" y="-173" type="curve"/>
      <point x="597" y="-136" type="line"/>
      <point x="563" y="-34"/>
      <point x="511" y="9"/>
      <point x="418" y="28" type="curve"/>
      <point x="519" y="86"/>
      <point x="556" y="199"/>
      <point x="556" y="344" type="curve" smooth="yes"/>
    </contour>
    <contour>
      <point x="457" y="162"/>
      <point x="412" y="66"/>
      <point x="300" y="66" type="curve" smooth="yes"/>
      <point x="191" y="66"/>
      <point x="143" y="161"/>
      <point x="143" y="343" type="curve" smooth="yes"/>
      <point x="143" y="525"/>
      <point x="188" y="623"/>
      <point x="300" y="623" type="curve" smooth="yes"/>
      <point x="412" y="623"/>
      <point x="457" y="526"/>
      <point x="457" y="344" type="curve" smooth="yes"/>
    </contour>
  </outline>
</glyph>
<glyph name="R" format="1">
  <advance width="600"/>
  <unicode hex="0052"/>
  <outline>
    <contour>
      <point x="540" y="623"/>
      <point x="450" y="689"/>
      <point x="278" y="689" type="curve" smooth="yes"/>
      <point x="97" y="689" type="line"/>
      <point x="97" y="0" type="line"/>
      <point x="192" y="0" type="line"/>
      <point x="192" y="292" type="line"/>
      <point x="280" y="292" type="line"/>
      <point x="464" y="0" type="line"/>
      <point x="577" y="0" type="line"/>
      <point x="375" y="304" type="line"/>
      <point x="468" y="328"/>
      <point x="540" y="391"/>
      <point x="540" y="494" type="curve" smooth="yes"/>
    </contour>
    <contour>
      <point x="439" y="401"/>
      <point x="384" y="365"/>
      <point x="288" y="365" type="curve" smooth="yes"/>
      <point x="192" y="365" type="line"/>
      <point x="192" y="615" type="line"/>
      <point x="287" y="615" type="line" smooth="yes"/>
      <point x="390" y="615"/>
      <point x="439" y="580"/>
      <point x="439" y="494" type="curve" smooth="yes"/>
    </contour>
    <contour>
      <point x="300" y="689" type="move" name="top"/>
    </contour>
    <contour>
      <point x="300" y="0" type="move" name="bottom"/>
    </contour>
  </outline>
</glyph>
<glyph name="S" format="1">
  <advance width="600"/>
  <unicode hex="0053"/>
  <outline>
    <contour>
      <point x="540" y="323"/>
      <point x="448" y="369"/>
      <point x="338" y="401" type="curve" smooth="yes"/>
      <point x="209" y="439"/>
      <point x="168" y="467"/>
      <point x="168" y="525" type="curve" smooth="yes"/>
      <point x="168" y="591"/>
      <point x="228" y="623"/>
      <point x="302" y="623" type="curve" smooth="yes"/>
      <point x="360" y="623"/>
      <point x="418" y="604"/>
      <point x="467" y="561" type="curve"/>
      <point x="521" y="621" type="line"/>
      <point x="463" y="672"/>
      <point x="394" y="701"/>
      <point x="298" y="701" type="curve" smooth="yes"/>
      <point x="165" y="701"/>
      <point x="71" y="627"/>
      <point x="71" y="521" type="curve" smooth="yes"/>
      <point x="71" y="412"/>
      <point x="154" y="361"/>
      <point x="293" y="320" type="curve" smooth="yes"/>
      <point x="409" y="286"/>
      <point x="441" y="254"/>
      <point x="441" y="189" type="curve" smooth="yes"/>
      <point x="441" y="106"/>
      <point x="368" y="66"/>
      <point x="286" y="66" type="curve" smooth="yes"/>
      <point x="203" y="66"/>
      <point x="143" y="94"/>
      <point x="95" y="139" type="curve"/>
      <point x="40" y="77" type="line"/>
      <point x="98" y="21"/>
      <point x="181" y="-12"/>
      <point x="285" y="-12" type="curve" smooth="yes"/>
      <point x="447" y="-12"/>
      <point x="540" y="72"/>
      <point x="540" y="192" type="curve" smooth="yes"/>
    </contour>
    <contour>
      <point x="306" y="689" type="move" name="top"/>
    </contour>
    <contour>
      <point x="297" y="0" type="move" name="bottom"/>
    </contour>
  </outline>
</glyph>
<glyph name="T" format="1">
  <advance width="600"/>
  <unicode hex="0054"/>
  <outline>
    <contour>
      <point x="552" y="609" type="line"/>
      <point x="562" y="689" type="line"/>
      <point x="38" y="689" type="line"/>
      <point x="38" y="609" type="line"/>
      <point x="251" y="609" type="line"/>
      <point x="251" y="0" type="line"/>
      <point x="346" y="0" type="line"/>
      <point x="346" y="609" type="line"/>
    </contour>
    <contour>
      <point x="299" y="0" type="move" name="bottom"/>
    </contour>
    <contour>
      <point x="299" y="689" type="move" name="top"/>
    </contour>
    <contour>
      <point x="356" y="0" type="move" name="bottomright"/>
    </contour>
    <contour>
      <point x="300" y="345" type="move" name="center"/>
    </contour>
  </outline>
</glyph>
<glyph name="V" format="1">
  <advance width="600"/>
  <unicode hex="0056"/>
  <outline>
    <contour>
      <point x="124" y="689" type="line"/>
      <point x="22" y="689" type="line"/>
      <point x="249" y="0" type="line"/>
      <point x="351" y="0" type="line"/>
      <point x="578" y="689" type="line"/>
      <point x="482" y="689" type="line"/>
      <point x="302" y="102" type="line"/>
    </contour>
    <contour>
      <point x="300" y="689" type="move" name="top"/>
    </contour>
    <contour>
      <point x="300" y="0" type="move" name="bottom"/>
    </contour>
  </outline>
</glyph>
<glyph name="W" format="1">
  <advance width="600"/>
  <unicode hex="0057"/>
  <outline>
    <contour>
      <point x="509" y="689" type="line"/>
      <point x="432" y="100" type="line"/>
      <point x="356" y="609" type="line"/>
      <point x="246" y="609" type="line"/>
      <point x="166" y="100" type="line"/>
      <point x="98" y="689" type="line"/>
      <point x="4" y="689" type="line"/>
      <point x="98" y="0" type="line"/>
      <point x="221" y="0" type="line"/>
      <point x="298" y="517" type="line"/>
      <point x="374" y="0" type="line"/>
      <point x="494" y="0" type="line"/>
      <point x="596" y="689" type="line"/>
    </contour>
    <contour>
      <point x="300" y="689" type="move" name="top"/>
    </contour>
  </outline>
</glyph>
<glyph name="X" format="1">
  <advance width="600"/>
  <unicode hex="0058"/>
  <outline>
    <contour>
      <point x="242" y="367" type="line"/>
      <point x="28" y="0" type="line"/>
      <point x="130" y="0" type="line"/>
      <point x="298" y="306" type="line"/>
      <point x="464" y="0" type="line"/>
      <point x="572" y="0" type="line"/>
      <point x="355" y="372" type="line"/>
      <point x="549" y="689" type="line"/>
      <point x="447" y="689" type="line"/>
      <point x="300" y="429" type="line"/>
      <point x="154" y="689" type="line"/>
      <point x="46" y="689" type="line"/>
    </contour>
    <contour>
      <point x="300" y="689" type="move" name="top"/>
    </contour>
    <contour>
      <point x="300" y="0" type="move" name="bottom"/>
    </contour>
    <contour>
      <point x="527" y="0" type="move" name="bottomright"/>
    </contour>
  </outline>
</glyph>
<glyph name="Y" format="1">
  <advance width="600"/>
  <unicode hex="0059"/>
  <outline>
    <contour>
      <point x="580" y="689" type="line"/>
      <point x="481" y="689" type="line"/>
      <point x="302" y="349" type="line"/>
      <point x="125" y="689" type="line"/>
      <point x="20" y="689" type="line"/>
      <point x="252" y="264" type="line"/>
      <point x="252" y="0" type="line"/>
      <point x="348" y="0" type="line"/>
      <point x="348" y="265" type="line"/>
    </contour>
    <contour>
      <point x="303" y="689" type="move" name="top"/>
    </contour>
  </outline>
</glyph>
<glyph name="Z" format="1">
  <advance width="600"/>
  <unicode hex="005A"/>
  <outline>
    <contour>
      <point x="531" y="612" type="line"/>
      <point x="531" y="689" type="line"/>
      <point x="104" y="689" type="line"/>
      <point x="104" y="609" type="line"/>
      <point x="428" y="609" type="line"/>
      <point x="68" y="76" type="line"/>
      <point x="68" y="0" type="line"/>
      <point x="520" y="0" type="line"/>
      <point x="531" y="81" type="line"/>
      <point x="174" y="81" type="line"/>
    </contour>
    <contour>
      <point x="318" y="689" type="move" name="top"/>
    </contour>
  </outline>
</glyph>
<glyph name="bracketleft" format="1">
  <advance width="600"/>
  <unicode hex="005B"/>
  <outline>
    <contour>
      <point x="438" y="-116" type="line"/>
      <point x="438" y="-40" type="line"/>
      <point x="268" y="-40" type="line"/>
      <point x="268" y="739" type="line"/>
      <point x="438" y="739" type="line"/>
      <point x="438" y="816" type="line"/>
      <point x="181" y="816" type="line"/>
      <point x="181" y="-116" type="line"/>
    </contour>
  </outline>
</glyph>
<glyph name="backslash" format="1">
  <advance width="600"/>
  <unicode hex="005C"/>
  <outline>
    <contour>
      <point x="476" y="-104" type="line"/>
      <point x="550" y="-71" type="line"/>
      <point x="123" y="810" type="line"/>
      <point x="50" y="775" type="line"/>
    </contour>
  </outline>
</glyph>
<glyph name="bracketright" format="1">
  <advance width="600"/>
  <unicode hex="005D"/>
  <outline>
    <contour>
      <point x="162" y="816" type="line"/>
      <point x="162" y="739" type="line"/>
      <point x="332" y="739" type="line"/>
      <point x="332" y="-40" type="line"/>
      <point x="162" y="-40" type="line"/>
      <point x="162" y="-116" type="line"/>
      <point x="419" y="-116" type="line"/>
      <point x="419" y="816" type="line"/>
    </contour>
  </outline>
</glyph>
<glyph name="asciicircum" format="1">
  <advance width="600"/>
  <unicode hex="005E"/>
  <outline>
    <contour>
      <point x="259" y="840" type="line"/>
      <point x="70" y="527" type="line"/>
      <point x="167" y="527" type="line"/>
      <point x="299" y="760" type="line"/>
      <point x="432" y="527" type="line"/>
      <point x="530" y="527" type="line"/>
      <point x="341" y="840" type="line"/>
    </contour>
  </outline>
</glyph>
<glyph name="underscore" format="1">
  <advance width="600"/>
  <unicode hex="005F"/>
  <outline>
    <contour>
      <point x="550" y="-182" type="line"/>
      <point x="550" y="-103" type="line"/>
      <point x="50" y="-103" type="line"/>
      <point x="50" y="-182" type="line"/>
    </contour>
  </outline>
</glyph>
<glyph name="grave" format="1">
  <advance width="600"/>
  <unicode hex="0060"/>
  <outline>
    <contour>
      <point x="417" y="672" type="line"/>
      <point x="229" y="792" type="line"/>
      <point x="182" y="715" type="line"/>
      <point x="388" y="622" type="line"/>
    </contour>
    <contour>
      <point x="300" y="527" type="move" name="_top"/>
    </contour>
  </outline>
</glyph>
<glyph name="a" format="1">
  <advance width="600"/>
  <unicode hex="0061"/>
  <outline>
    <contour>
      <point x="482" y="367" type="line" smooth="yes"/>
      <point x="482" y="473"/>
      <point x="415" y="539"/>
      <point x="281" y="539" type="curve" smooth="yes"/>
      <point x="229" y="539"/>
      <point x="170" y="529"/>
      <point x="105" y="505" type="curve"/>
      <point x="129" y="437" type="line"/>
      <point x="183" y="456"/>
      <point x="232" y="464"/>
      <point x="267" y="464" type="curve" smooth="yes"/>
      <point x="344" y="464"/>
      <point x="390" y="436"/>
      <point x="390" y="362" type="curve" smooth="yes"/>
      <point x="390" y="321" type="line"/>
      <point x="313" y="321" type="line" smooth="yes"/>
      <point x="153" y="321"/>
      <point x="65" y="260"/>
      <point x="65" y="151" type="curve" smooth="yes"/>
      <point x="65" y="53"/>
      <point x="130" y="-12"/>
      <point x="236" y="-12" type="curve" smooth="yes"/>
      <point x="304" y="-12"/>
      <point x="364" y="13"/>
      <point x="402" y="62" type="curve"/>
      <point x="418" y="15"/>
      <point x="455" y="-6"/>
      <point x="502" y="-12" type="curve"/>
      <point x="524" y="52" type="line"/>
      <point x="495" y="61"/>
      <point x="482" y="77"/>
      <point x="482" y="119" type="curve" smooth="yes"/>
    </contour>
    <contour>
      <point x="195" y="57"/>
      <point x="163" y="90"/>
      <point x="163" y="153" type="curve" smooth="yes"/>
      <point x="163" y="219"/>
      <point x="205" y="260"/>
      <point x="318" y="260" type="curve" smooth="yes"/>
      <point x="390" y="260" type="line"/>
      <point x="390" y="130" type="line"/>
      <point x="360" y="84"/>
      <point x="311" y="57"/>
      <point x="261" y="57" type="curve" smooth="yes"/>
    </contour>
    <contour>
      <point x="512" y="-12" type="move" name="ogonek"/>
    </contour>
    <contour>
      <point x="300" y="0" type="move" name="bottom"/>
    </contour>
    <contour>
      <point x="292" y="527" type="move" name="top"/>
    </contour>
  </outline>
</glyph>
<glyph name="d" format="1">
  <advance width="600"/>
  <unicode hex="0064"/>
  <outline>
    <contour>
      <point x="411" y="478" type="line"/>
      <point x="376" y="518"/>
      <point x="331" y="539"/>
      <point x="272" y="539" type="curve" smooth="yes"/>
      <point x="142" y="539"/>
      <point x="65" y="422"/>
      <point x="65" y="263" type="curve" smooth="yes"/>
      <point x="65" y="99"/>
      <point x="128" y="-12"/>
      <point x="265" y="-12" type="curve" smooth="yes"/>
      <point x="324" y="-12"/>
      <point x="376" y="14"/>
      <point x="414" y="68" type="curve"/>
      <point x="422" y="0" type="line"/>
      <point x="503" y="0" type="line"/>
      <point x="503" y="739" type="line"/>
      <point x="411" y="750" type="line"/>
    </contour>
    <contour>
      <point x="343" y="466"/>
      <point x="383" y="442"/>
      <point x="411" y="401" type="curve"/>
      <point x="411" y="142" type="line"/>
      <point x="383" y="99"/>
      <point x="343" y="61"/>
      <point x="286" y="61" type="curve" smooth="yes"/>
      <point x="207" y="61"/>
      <point x="164" y="127"/>
      <point x="164" y="263" type="curve" smooth="yes"/>
      <point x="164" y="400"/>
      <point x="212" y="466"/>
      <point x="296" y="466" type="curve" smooth="yes"/>
    </contour>
    <contour>
      <point x="300" y="0" type="move" name="bottom"/>
    </contour>
    <contour>
      <point x="300" y="739" type="move" name="top"/>
    </contour>
    <contour>
      <point x="533" y="739" type="move" name="topright"/>
    </contour>
    <contour>
      <point x="300" y="264" type="move" name="center"/>
    </contour>
  </outline>
</glyph>
<glyph name="f" format="1">
  <advance width="600"/>
  <unicode hex="0066"/>
  <outline>
    <contour>
      <point x="298" y="750"/>
      <point x="216" y="687"/>
      <point x="216" y="589" type="curve" smooth="yes"/>
      <point x="216" y="487" type="line"/>
      <point x="92" y="487" type="line"/>
      <point x="92" y="416" type="line"/>
      <point x="216" y="416" type="line"/>
      <point x="216" y="0" type="line"/>
      <point x="308" y="0" type="line"/>
      <point x="308" y="416" type="line"/>
      <point x="476" y="416" type="line"/>
      <point x="486" y="487" type="line"/>
      <point x="308" y="487" type="line"/>
      <point x="308" y="590" type="line" smooth="yes"/>
      <point x="308" y="648"/>
      <point x="344" y="676"/>
      <point x="416" y="676" type="curve" smooth="yes"/>
      <point x="456" y="676"/>
      <point x="495" y="669"/>
      <point x="529" y="654" type="curve"/>
      <point x="558" y="721" type="line"/>
      <point x="516" y="739"/>
      <point x="470" y="750"/>
      <point x="411" y="750" type="curve" smooth="yes"/>
    </contour>
    <contour>
      <point x="370" y="739" type="move" name="top"/>
    </contour>
    <contour>
      <point x="262" y="0" type="move" name="bottom"/>
    </contour>
  </outline>
</glyph>
<glyph name="g" format="1">
  <advance width="600"/>
  <unicode hex="0067"/>
  <outline>
    <contour>
      <point x="468" y="558"/>
      <point x="420" y="539"/>
      <point x="289" y="539" type="curve" smooth="yes"/>
      <point x="163" y="539"/>
      <point x="76" y="463"/>
      <point x="76" y="355" type="curve" smooth="yes"/>
      <point x="76" y="287"/>
      <point x="104" y="241"/>
      <point x="165" y="209" type="curve"/>
      <point x="127" y="184"/>
      <point x="107" y="150"/>
      <point x="107" y="116" type="curve" smooth="yes"/>
      <point x="107" y="63"/>
      <point x="149" y="16"/>
      <point x="243" y="16" type="curve" smooth="yes"/>
      <point x="336" y="16" type="line" smooth="yes"/>
      <point x="402" y="16"/>
      <point x="450" y="-9"/>
      <point x="450" y="-57" type="curve" smooth="yes"/>
      <point x="450" y="-112"/>
      <point x="402" y="-141"/>
      <point x="288" y="-141" type="curve" smooth="yes"/>
      <point x="172" y="-141"/>
      <point x="145" y="-113"/>
      <point x="145" y="-53" type="curve"/>
      <point x="62" y="-53" type="line"/>
      <point x="62" y="-160"/>
      <point x="116" y="-213"/>
      <point x="288" y="-213" type="curve" smooth="yes"/>
      <point x="451" y="-213"/>
      <point x="543" y="-155"/>
      <point x="543" y="-51" type="curve" smooth="yes"/>
      <point x="543" y="31"/>
      <point x="463" y="93"/>
      <point x="355" y="93" type="curve" smooth="yes"/>
      <point x="261" y="93" type="line" smooth="yes"/>
      <point x="207" y="93"/>
      <point x="192" y="112"/>
      <point x="192" y="136" type="curve" smooth="yes"/>
      <point x="192" y="155"/>
      <point x="203" y="174"/>
      <point x="218" y="185" type="curve"/>
      <point x="240" y="178"/>
      <point x="261" y="175"/>
      <point x="295" y="175" type="curve" smooth="yes"/>
      <point x="421" y="175"/>
      <point x="496" y="250"/>
      <point x="496" y="354" type="curve" smooth="yes"/>
      <point x="496" y="415"/>
      <point x="465" y="459"/>
      <point x="403" y="487" type="curve"/>
      <point x="463" y="487"/>
      <point x="513" y="489"/>
      <point x="557" y="503" type="curve"/>
      <point x="530" y="586" type="line"/>
    </contour>
    <contour>
      <point x="364" y="473"/>
      <point x="402" y="433"/>
      <point x="402" y="356" type="curve" smooth="yes"/>
      <point x="402" y="280"/>
      <point x="363" y="236"/>
      <point x="291" y="236" type="curve" smooth="yes"/>
      <point x="209" y="236"/>
      <point x="170" y="285"/>
      <point x="170" y="355" type="curve" smooth="yes"/>
      <point x="170" y="424"/>
      <point x="208" y="473"/>
      <point x="289" y="473" type="curve" smooth="yes"/>
    </contour>
    <contour>
      <point x="300" y="-202" type="move" name="bottom "/>
    </contour>
    <contour>
      <point x="294" y="527" type="move" name="top"/>
    </contour>
  </outline>
</glyph>
<glyph name="h" format="1">
  <advance width="600"/>
  <unicode hex="0068"/>
  <outline>
    <contour>
      <point x="97" y="738" type="line"/>
      <point x="97" y="0" type="line"/>
      <point x="189" y="0" type="line"/>
      <point x="189" y="382" type="line"/>
      <point x="217" y="423"/>
      <point x="268" y="467"/>
      <point x="325" y="467" type="curve" smooth="yes"/>
      <point x="385" y="467"/>
      <point x="412" y="440"/>
      <point x="412" y="377" type="curve" smooth="yes"/>
      <point x="412" y="0" type="line"/>
      <point x="504" y="0" type="line"/>
      <point x="504" y="383" type="line" smooth="yes"/>
      <point x="504" y="481"/>
      <point x="458" y="539"/>
      <point x="356" y="539" type="curve" smooth="yes"/>
      <point x="294" y="539"/>
      <point x="231" y="511"/>
      <point x="189" y="457" type="curve"/>
      <point x="189" y="748" type="line"/>
    </contour>
    <contour>
      <point x="300" y="264" type="move" name="center"/>
    </contour>
    <contour>
      <point x="300" y="0" type="move" name="bottom"/>
    </contour>
    <contour>
      <point x="300" y="739" type="move" name="top"/>
    </contour>
  </outline>
</glyph>
<glyph name="i" format="1">
  <advance width="600"/>
  <unicode hex="0069"/>
  <outline>
    <contour>
      <point x="122" y="527" type="line"/>
      <point x="122" y="456" type="line"/>
      <point x="278" y="456" type="line"/>
      <point x="278" y="71" type="line"/>
      <point x="117" y="71" type="line"/>
      <point x="117" y="0" type="line"/>
      <point x="517" y="0" type="line"/>
      <point x="517" y="71" type="line"/>
      <point x="370" y="71" type="line"/>
      <point x="370" y="527" type="line"/>
    </contour>
    <contour>
      <point x="262" y="777"/>
      <point x="236" y="750"/>
      <point x="236" y="715" type="curve" smooth="yes"/>
      <point x="236" y="679"/>
      <point x="262" y="652"/>
      <point x="300" y="652" type="curve" smooth="yes"/>
      <point x="339" y="652"/>
      <point x="365" y="679"/>
      <point x="365" y="715" type="curve" smooth="yes"/>
      <point x="365" y="750"/>
      <point x="339" y="777"/>
      <point x="300" y="777" type="curve" smooth="yes"/>
    </contour>
    <contour>
      <point x="300" y="0" type="move" name="bottom"/>
    </contour>
  </outline>
</glyph>
<glyph name="j" format="1">
  <advance width="600"/>
  <unicode hex="006A"/>
  <outline>
    <contour>
      <point x="140" y="527" type="line"/>
      <point x="140" y="456" type="line"/>
      <point x="356" y="456" type="line"/>
      <point x="356" y="86" type="line" smooth="yes"/>
      <point x="356" y="-57"/>
      <point x="249" y="-115"/>
      <point x="93" y="-142" type="curve"/>
      <point x="108" y="-213" type="line"/>
      <point x="324" y="-176"/>
      <point x="448" y="-90"/>
      <point x="448" y="92" type="curve" smooth="yes"/>
      <point x="448" y="527" type="line"/>
    </contour>
    <contour>
      <point x="329" y="777"/>
      <point x="303" y="750"/>
      <point x="303" y="715" type="curve" smooth="yes"/>
      <point x="303" y="679"/>
      <point x="329" y="652"/>
      <point x="367" y="652" type="curve" smooth="yes"/>
      <point x="406" y="652"/>
      <point x="432" y="679"/>
      <point x="432" y="715" type="curve" smooth="yes"/>
      <point x="432" y="750"/>
      <point x="406" y="777"/>
      <point x="367" y="777" type="curve" smooth="yes"/>
    </contour>
    <contour>
      <point x="300" y="-202" type="move" name="bottom "/>
    </contour>
    <contour>
      <point x="368" y="527" type="move" name="top"/>
    </contour>
  </outline>
</glyph>
<glyph name="k" format="1">
  <advance width="600"/>
  <unicode hex="006B"/>
  <outline>
    <contour>
      <point x="430" y="527" type="line"/>
      <point x="203" y="288" type="line"/>
      <point x="453" y="0" type="line"/>
      <point x="571" y="0" type="line"/>
      <point x="315" y="290" type="line"/>
      <point x="545" y="527" type="line"/>
    </contour>
    <contour>
      <point x="102" y="739" type="line"/>
      <point x="102" y="0" type="line"/>
      <point x="194" y="0" type="line"/>
      <point x="194" y="750" type="line"/>
    </contour>
    <contour>
      <point x="300" y="739" type="move" name="top"/>
    </contour>
    <contour>
      <point x="305" y="0" type="move" name="bottom"/>
    </contour>
  </outline>
</glyph>
<glyph name="l" format="1">
  <advance width="600"/>
  <unicode hex="006C"/>
  <outline>
    <contour>
      <point x="57" y="739" type="line"/>
      <point x="57" y="668" type="line"/>
      <point x="218" y="668" type="line"/>
      <point x="218" y="140" type="line" smooth="yes"/>
      <point x="218" y="45"/>
      <point x="281" y="-12"/>
      <point x="378" y="-12" type="curve" smooth="yes"/>
      <point x="433" y="-12"/>
      <point x="477" y="1"/>
      <point x="506" y="16" type="curve"/>
      <point x="482" y="82" type="line"/>
      <point x="454" y="71"/>
      <point x="426" y="64"/>
      <point x="395" y="64" type="curve" smooth="yes"/>
      <point x="345" y="64"/>
      <point x="310" y="83"/>
      <point x="310" y="134" type="curve" smooth="yes"/>
      <point x="310" y="739" type="line"/>
    </contour>
    <contour>
      <point x="360" y="0" type="move" name="bottom"/>
    </contour>
    <contour>
      <point x="264" y="739" type="move" name="top"/>
    </contour>
    <contour>
      <point x="350" y="739" type="move" name="topright"/>
    </contour>
    <contour>
      <point x="561" y="383" type="move" name="center"/>
    </contour>
  </outline>
</glyph>
<glyph name="m" format="1">
  <advance width="600"/>
  <unicode hex="006D"/>
  <outline>
    <contour>
      <point x="396" y="539"/>
      <point x="362" y="511"/>
      <point x="333" y="470" type="curve"/>
      <point x="317" y="523"/>
      <point x="279" y="539"/>
      <point x="239" y="539" type="curve" smooth="yes"/>
      <point x="187" y="539"/>
      <point x="154" y="508"/>
      <point x="125" y="467" type="curve"/>
      <point x="119" y="527" type="line"/>
      <point x="48" y="527" type="line"/>
      <point x="48" y="0" type="line"/>
      <point x="132" y="0" type="line"/>
      <point x="132" y="407" type="line"/>
      <point x="160" y="450"/>
      <point x="189" y="467"/>
      <point x="220" y="467" type="curve" smooth="yes"/>
      <point x="256" y="467"/>
      <point x="259" y="441"/>
      <point x="259" y="378" type="curve" smooth="yes"/>
      <point x="259" y="0" type="line"/>
      <point x="341" y="0" type="line"/>
      <point x="341" y="407" type="line"/>
      <point x="369" y="450"/>
      <point x="399" y="467"/>
      <point x="429" y="467" type="curve" smooth="yes"/>
      <point x="465" y="467"/>
      <point x="468" y="441"/>
      <point x="468" y="378" type="curve" smooth="yes"/>
      <point x="468" y="0" type="line"/>
      <point x="552" y="0" type="line"/>
      <point x="552" y="392" type="line" smooth="yes"/>
      <point x="552" y="512"/>
      <point x="502" y="539"/>
      <point x="449" y="539" type="curve" smooth="yes"/>
    </contour>
    <contour>
      <point x="300" y="527" type="move" name="top"/>
    </contour>
    <contour>
      <point x="300" y="0" type="move" name="bottom"/>
    </contour>
  </outline>
</glyph>
<glyph name="n" format="1">
  <advance width="600"/>
  <unicode hex="006E"/>
  <outline>
    <contour>
      <point x="189" y="0" type="line"/>
      <point x="189" y="382" type="line"/>
      <point x="217" y="423"/>
      <point x="267" y="467"/>
      <point x="326" y="467" type="curve" smooth="yes"/>
      <point x="401" y="467"/>
      <point x="412" y="426"/>
      <point x="412" y="323" type="curve" smooth="yes"/>
      <point x="412" y="0" type="line"/>
      <point x="504" y="0" type="line"/>
      <point x="504" y="383" type="line" smooth="yes"/>
      <point x="504" y="481"/>
      <point x="458" y="539"/>
      <point x="356" y="539" type="curve" smooth="yes"/>
      <point x="294" y="539"/>
      <point x="226" y="509"/>
      <point x="183" y="455" type="curve"/>
      <point x="176" y="527" type="line"/>
      <point x="97" y="527" type="line"/>
      <point x="97" y="0" type="line"/>
    </contour>
    <contour>
      <point x="300" y="527" type="move" name="top"/>
    </contour>
    <contour>
      <point x="301" y="0" type="move" name="bottom"/>
    </contour>
  </outline>
</glyph>
<glyph name="o" format="1">
  <advance width="600"/>
  <unicode hex="006F"/>
  <outline>
    <contour>
      <point x="151" y="539"/>
      <point x="70" y="426"/>
      <point x="70" y="263" type="curve" smooth="yes"/>
      <point x="70" y="96"/>
      <point x="150" y="-12"/>
      <point x="300" y="-12" type="curve" smooth="yes"/>
      <point x="449" y="-12"/>
      <point x="530" y="101"/>
      <point x="530" y="264" type="curve" smooth="yes"/>
      <point x="530" y="431"/>
      <point x="451" y="539"/>
      <point x="301" y="539" type="curve" smooth="yes"/>
    </contour>
    <contour>
      <point x="388" y="465"/>
      <point x="432" y="401"/>
      <point x="432" y="264" type="curve" smooth="yes"/>
      <point x="432" y="126"/>
      <point x="388" y="62"/>
      <point x="300" y="62" type="curve" smooth="yes"/>
      <point x="212" y="62"/>
      <point x="168" y="126"/>
      <point x="168" y="263" type="curve" smooth="yes"/>
      <point x="168" y="401"/>
      <point x="213" y="465"/>
      <point x="301" y="465" type="curve" smooth="yes"/>
    </contour>
    <contour>
      <point x="300" y="527" type="move" name="top"/>
    </contour>
    <contour>
      <point x="300" y="0" type="move" name="bottom"/>
    </contour>
  </outline>
</glyph>
<glyph name="s" format="1">
  <advance width="600"/>
  <unicode hex="0073"/>
  <outline>
    <contour>
      <point x="218" y="62"/>
      <point x="163" y="85"/>
      <point x="122" y="119" type="curve"/>
      <point x="71" y="60" type="line"/>
      <point x="117" y="20"/>
      <point x="184" y="-12"/>
      <point x="280" y="-12" type="curve" smooth="yes"/>
      <point x="395" y="-12"/>
      <point x="505" y="34"/>
      <point x="505" y="147" type="curve" smooth="yes"/>
      <point x="505" y="246"/>
      <point x="437" y="282"/>
      <point x="334" y="310" type="curve" smooth="yes"/>
      <point x="228" y="339"/>
      <point x="196" y="355"/>
      <point x="196" y="400" type="curve" smooth="yes"/>
      <point x="196" y="439"/>
      <point x="226" y="466"/>
      <point x="306" y="466" type="curve" smooth="yes"/>
      <point x="372" y="466"/>
      <point x="418" y="446"/>
      <point x="458" y="419" type="curve"/>
      <point x="498" y="480" type="line"/>
      <point x="453" y="513"/>
      <point x="390" y="539"/>
      <point x="304" y="539" type="curve" smooth="yes"/>
      <point x="182" y="539"/>
      <point x="101" y="482"/>
      <point x="101" y="393" type="curve" smooth="yes"/>
      <point x="101" y="301"/>
      <point x="171" y="267"/>
      <point x="279" y="240" type="curve" smooth="yes"/>
      <point x="390" y="212"/>
      <point x="406" y="188"/>
      <point x="406" y="142" type="curve" smooth="yes"/>
      <point x="406" y="93"/>
      <point x="358" y="62"/>
      <point x="280" y="62" type="curve" smooth="yes"/>
    </contour>
    <contour>
      <point x="308" y="527" type="move" name="top"/>
    </contour>
    <contour>
      <point x="297" y="0" type="move" name="bottom"/>
    </contour>
  </outline>
</glyph>
<glyph name="u" format="1">
  <advance width="600"/>
  <unicode hex="0075"/>
  <outline>
    <contour>
      <point x="97" y="527" type="line"/>
      <point x="97" y="144" type="line" smooth="yes"/>
      <point x="97" y="46"/>
      <point x="147" y="-12"/>
      <point x="249" y="-12" type="curve" smooth="yes"/>
      <point x="311" y="-12"/>
      <point x="376" y="17"/>
      <point x="417" y="70" type="curve"/>
      <point x="424" y="0" type="line"/>
      <point x="503" y="0" type="line"/>
      <point x="503" y="527" type="line"/>
      <point x="411" y="527" type="line"/>
      <point x="411" y="141" type="line"/>
      <point x="383" y="97"/>
      <point x="329" y="60"/>
      <point x="274" y="60" type="curve" smooth="yes"/>
      <point x="216" y="60"/>
      <point x="189" y="88"/>
      <point x="189" y="155" type="curve" smooth="yes"/>
      <point x="189" y="527" type="line"/>
    </contour>
    <contour>
      <point x="513" y="0" type="move" name="ogonek"/>
    </contour>
    <contour>
      <point x="300" y="527" type="move" name="top"/>
    </contour>
  </outline>
</glyph>
<glyph name="v" format="1">
  <advance width="600"/>
  <unicode hex="0076"/>
  <outline>
    <contour>
      <point x="448" y="527" type="line"/>
      <point x="302" y="81" type="line"/>
      <point x="155" y="527" type="line"/>
      <point x="57" y="527" type="line"/>
      <point x="246" y="0" type="line"/>
      <point x="353" y="0" type="line"/>
      <point x="543" y="527" type="line"/>
    </contour>
  </outline>
</glyph>
<glyph name="w" format="1">
  <advance width="600"/>
  <unicode hex="0077"/>
  <outline>
    <contour>
      <point x="584" y="527" type="line"/>
      <point x="496" y="527" type="line"/>
      <point x="432" y="57" type="line"/>
      <point x="356" y="460" type="line"/>
      <point x="253" y="460" type="line"/>
      <point x="172" y="57" type="line"/>
      <point x="108" y="527" type="line"/>
      <point x="16" y="527" type="line"/>
      <point x="110" y="0" type="line"/>
      <point x="232" y="0" type="line"/>
      <point x="303" y="383" type="line"/>
      <point x="369" y="0" type="line"/>
      <point x="494" y="0" type="line"/>
    </contour>
    <contour>
      <point x="300" y="527" type="move" name="top"/>
    </contour>
  </outline>
</glyph>
<glyph name="x" format="1">
  <advance width="600"/>
  <unicode hex="0078"/>
  <outline>
    <contour>
      <point x="297" y="223" type="line"/>
      <point x="437" y="0" type="line"/>
      <point x="548" y="0" type="line"/>
      <point x="355" y="282" type="line"/>
      <point x="524" y="527" type="line"/>
      <point x="420" y="527" type="line"/>
      <point x="301" y="334" type="line"/>
      <point x="183" y="527" type="line"/>
      <point x="75" y="527" type="line"/>
      <point x="245" y="278" type="line"/>
      <point x="52" y="0" type="line"/>
      <point x="156" y="0" type="line"/>
    </contour>
    <contour>
      <point x="300" y="527" type="move" name="top"/>
    </contour>
    <contour>
      <point x="300" y="0" type="move" name="bottom"/>
    </contour>
    <contour>
      <point x="493" y="0" type="move" name="bottomright"/>
    </contour>
  </outline>
</glyph>
<glyph name="y" format="1">
  <advance width="600"/>
  <unicode hex="0079"/>
  <outline>
    <contour>
      <point x="447" y="527" type="line"/>
      <point x="302" y="68" type="line"/>
      <point x="156" y="527" type="line"/>
      <point x="58" y="527" type="line"/>
      <point x="240" y="0" type="line"/>
      <point x="271" y="0" type="line"/>
      <point x="243" y="-80"/>
      <point x="211" y="-123"/>
      <point x="103" y="-141" type="curve"/>
      <point x="116" y="-213" type="line"/>
      <point x="258" y="-199"/>
      <point x="320" y="-114"/>
      <point x="358" y="-3" type="curve" smooth="yes"/>
      <point x="542" y="527" type="line"/>
    </contour>
    <contour>
      <point x="300" y="-202" type="move" name="bottom "/>
    </contour>
    <contour>
      <point x="300" y="527" type="move" name="top"/>
    </contour>
  </outline>
</glyph>
<glyph name="z" format="1">
  <advance width="600"/>
  <unicode hex="007A"/>
  <outline>
    <contour>
      <point x="498" y="457" type="line"/>
      <point x="498" y="527" type="line"/>
      <point x="122" y="527" type="line"/>
      <point x="122" y="449" type="line"/>
      <point x="388" y="449" type="line"/>
      <point x="99" y="69" type="line"/>
      <point x="99" y="0" type="line"/>
      <point x="490" y="0" type="line"/>
      <point x="501" y="77" type="line"/>
      <point x="211" y="77" type="line"/>
    </contour>
    <contour>
      <point x="310" y="527" type="move" name="top"/>
    </contour>
  </outline>
</glyph>
<glyph name="braceleft" format="1">
  <advance width="600"/>
  <unicode hex="007B"/>
  <outline>
    <contour>
      <point x="333" y="836"/>
      <point x="233" y="801"/>
      <point x="246" y="677" type="curve" smooth="yes"/>
      <point x="266" y="491" type="line" smooth="yes"/>
      <point x="273" y="422"/>
      <point x="245" y="387"/>
      <point x="116" y="387" type="curve"/>
      <point x="116" y="313" type="line"/>
      <point x="245" y="313"/>
      <point x="273" y="277"/>
      <point x="266" y="208" type="curve" smooth="yes"/>
      <point x="246" y="23" type="line" smooth="yes"/>
      <point x="233" y="-101"/>
      <point x="333" y="-136"/>
      <point x="453" y="-136" type="curve"/>
      <point x="453" y="-65" type="line"/>
      <point x="381" y="-65"/>
      <point x="325" y="-48"/>
      <point x="331" y="13" type="curve" smooth="yes"/>
      <point x="351" y="212" type="line" smooth="yes"/>
      <point x="360" y="303"/>
      <point x="325" y="337"/>
      <point x="251" y="350" type="curve"/>
      <point x="323" y="363"/>
      <point x="360" y="401"/>
      <point x="351" y="488" type="curve" smooth="yes"/>
      <point x="331" y="687" type="line" smooth="yes"/>
      <point x="325" y="747"/>
      <point x="381" y="765"/>
      <point x="453" y="765" type="curve"/>
      <point x="453" y="836" type="line"/>
    </contour>
  </outline>
</glyph>
<glyph name="bar" format="1">
  <advance width="600"/>
  <unicode hex="007C"/>
  <outline>
    <contour>
      <point x="258" y="807" type="line"/>
      <point x="258" y="-102" type="line"/>
      <point x="341" y="-102" type="line"/>
      <point x="341" y="807" type="line"/>
    </contour>
  </outline>
</glyph>
<glyph name="braceright" format="1">
  <advance width="600"/>
  <unicode hex="007D"/>
  <outline>
    <contour>
      <point x="147" y="765" type="line"/>
      <point x="219" y="765"/>
      <point x="275" y="747"/>
      <point x="269" y="687" type="curve" smooth="yes"/>
      <point x="249" y="488" type="line" smooth="yes"/>
      <point x="240" y="401"/>
      <point x="277" y="363"/>
      <point x="359" y="349" type="curve"/>
      <point x="275" y="337"/>
      <point x="240" y="303"/>
      <point x="249" y="212" type="curve" smooth="yes"/>
      <point x="269" y="13" type="line" smooth="yes"/>
      <point x="275" y="-48"/>
      <point x="219" y="-65"/>
      <point x="147" y="-65" type="curve"/>
      <point x="147" y="-136" type="line"/>
      <point x="267" y="-136"/>
      <point x="367" y="-101"/>
      <point x="354" y="23" type="curve" smooth="yes"/>
      <point x="334" y="208" type="line" smooth="yes"/>
      <point x="327" y="277"/>
      <point x="365" y="313"/>
      <point x="484" y="313" type="curve"/>
      <point x="484" y="387" type="line"/>
      <point x="365" y="387"/>
      <point x="327" y="422"/>
      <point x="334" y="491" type="curve" smooth="yes"/>
      <point x="354" y="677" type="line" smooth="yes"/>
      <point x="367" y="801"/>
      <point x="267" y="836"/>
      <point x="147" y="836" type="curve"/>
    </contour>
  </outline>
</glyph>
<glyph name="asciitilde" format="1">
  <advance width="600"/>
  <unicode hex="007E"/>
  <outline>
    <contour>
      <point x="116" y="404"/>
      <point x="72" y="334"/>
      <point x="41" y="273" type="curve"/>
      <point x="104" y="242" type="line"/>
      <point x="130" y="290"/>
      <point x="159" y="326"/>
      <point x="202" y="326" type="curve" smooth="yes"/>
      <point x="265" y="326"/>
      <point x="301" y="226"/>
      <point x="395" y="226" type="curve" smooth="yes"/>
      <point x="483" y="226"/>
      <point x="528" y="295"/>
      <point x="559" y="356" type="curve"/>
      <point x="496" y="388" type="line"/>
      <point x="470" y="340"/>
      <point x="439" y="304"/>
      <point x="398" y="304" type="curve" smooth="yes"/>
      <point x="337" y="304"/>
      <point x="305" y="404"/>
      <point x="205" y="404" type="curve" smooth="yes"/>
    </contour>
  </outline>
</glyph>
<glyph name="uni007F" format="1">
  <advance width="1644"/>
  <unicode hex="007F"/>
  <outline>
    <contour>
      <point x="1624" y="966" type="line"/>
      <point x="1624" y="69" type="line"/>
      <point x="20" y="69" type="line"/>
      <point x="20" y="966" type="line"/>
    </contour>
    <contour>
      <point x="1165" y="876" type="line"/>
      <point x="1165" y="188" type="line"/>
      <point x="1555" y="188" type="line"/>
      <point x="1565" y="265" type="line"/>
      <point x="1251" y="265" type="line"/>
      <point x="1251" y="876" type="line"/>
    </contour>
    <contour>
      <point x="734" y="565" type="line"/>
      <point x="734" y="798" type="line"/>
      <point x="1028" y="798" type="line"/>
      <point x="1038" y="868" type="line"/>
      <point x="648" y="868" type="line"/>
      <point x="648" y="180" type="line"/>
      <point x="1047" y="180" type="line"/>
      <point x="1047" y="249" type="line"/>
      <point x="734" y="249" type="line"/>
      <point x="734" y="494" type="line"/>
      <point x="989" y="494" type="line"/>
      <point x="989" y="565" type="line"/>
    </contour>
    <contour>
      <point x="544" y="529" type="qcurve" smooth="yes"/>
      <point x="544" y="735"/>
      <point x="443" y="822" type="qcurve" smooth="yes"/>
      <point x="366" y="888"/>
      <point x="222" y="888" type="qcurve" smooth="yes"/>
      <point x="76" y="888" type="line"/>
      <point x="76" y="161" type="line"/>
      <point x="233" y="161" type="line" smooth="yes"/>
      <point x="544" y="161"/>
    </contour>
    <contour>
      <point x="456" y="529" type="qcurve" smooth="yes"/>
      <point x="456" y="234"/>
      <point x="247" y="234" type="qcurve" smooth="yes"/>
      <point x="164" y="234" type="line"/>
      <point x="164" y="814" type="line"/>
      <point x="246" y="814" type="line" smooth="yes"/>
      <point x="338" y="814"/>
      <point x="387" y="766" type="qcurve" smooth="yes"/>
      <point x="456" y="699"/>
    </contour>
  </outline>
</glyph>
<glyph name="uni0080" format="1">
  <advance width="1644"/>
  <unicode hex="0080"/>
  <outline>
    <contour>
      <point x="1624" y="966" type="line"/>
      <point x="1624" y="69" type="line"/>
      <point x="20" y="69" type="line"/>
      <point x="20" y="966" type="line"/>
    </contour>
    <contour>
      <point x="633" y="366" type="line"/>
      <point x="906" y="366" type="line"/>
      <point x="961" y="190" type="line"/>
      <point x="1051" y="190" type="line"/>
      <point x="827" y="878" type="line"/>
      <point x="717" y="878" type="line"/>
      <point x="493" y="190" type="line"/>
      <point x="577" y="190" type="line"/>
    </contour>
    <contour>
      <point x="884" y="437" type="line"/>
      <point x="655" y="437" type="line"/>
      <point x="770" y="806" type="line"/>
    </contour>
    <contour>
      <point x="1594" y="541" type="qcurve" smooth="yes"/>
      <point x="1594" y="737"/>
      <point x="1493" y="820" type="qcurve" smooth="yes"/>
      <point x="1416" y="883"/>
      <point x="1272" y="883" type="qcurve" smooth="yes"/>
      <point x="1126" y="883" type="line"/>
      <point x="1126" y="190" type="line"/>
      <point x="1283" y="190" type="line" smooth="yes"/>
      <point x="1594" y="190"/>
    </contour>
    <contour>
      <point x="1506" y="541" type="qcurve" smooth="yes"/>
      <point x="1506" y="260"/>
      <point x="1297" y="260" type="qcurve" smooth="yes"/>
      <point x="1214" y="260" type="line"/>
      <point x="1214" y="812" type="line"/>
      <point x="1296" y="812" type="line" smooth="yes"/>
      <point x="1388" y="812"/>
      <point x="1437" y="767" type="qcurve" smooth="yes"/>
      <point x="1506" y="703"/>
    </contour>
    <contour>
      <point x="532" y="667" type="qcurve" smooth="yes"/>
      <point x="532" y="878"/>
      <point x="266" y="878" type="qcurve" smooth="yes"/>
      <point x="92" y="878" type="line"/>
      <point x="92" y="190" type="line"/>
      <point x="177" y="190" type="line"/>
      <point x="177" y="446" type="line"/>
      <point x="266" y="446" type="line" smooth="yes"/>
      <point x="532" y="446"/>
    </contour>
    <contour>
      <point x="287" y="810" type="line" smooth="yes"/>
      <point x="450" y="810"/>
      <point x="450" y="666" type="qcurve" smooth="yes"/>
      <point x="450" y="515"/>
      <point x="284" y="515" type="qcurve" smooth="yes"/>
      <point x="187" y="515" type="line"/>
      <point x="187" y="810" type="line"/>
    </contour>
  </outline>
</glyph>
<glyph name="uni0081" format="1">
  <advance width="1644"/>
  <unicode hex="0081"/>
  <outline>
    <contour>
      <point x="1624" y="966" type="line"/>
      <point x="1624" y="69" type="line"/>
      <point x="20" y="69" type="line"/>
      <point x="20" y="966" type="line"/>
    </contour>
    <contour>
      <point x="1075" y="534" type="qcurve" smooth="yes"/>
      <point x="1075" y="697"/>
      <point x="1011" y="792" type="qcurve" smooth="yes"/>
      <point x="944" y="890"/>
      <point x="822" y="890" type="qcurve" smooth="yes"/>
      <point x="700" y="890"/>
      <point x="633" y="789" type="qcurve" smooth="yes"/>
      <point x="569" y="694"/>
      <point x="569" y="532" type="qcurve" smooth="yes"/>
      <point x="569" y="369"/>
      <point x="633" y="276" type="qcurve" smooth="yes"/>
      <point x="699" y="179"/>
      <point x="822" y="179" type="qcurve" smooth="yes"/>
      <point x="944" y="179"/>
      <point x="1011" y="278" type="qcurve" smooth="yes"/>
      <point x="1075" y="373"/>
    </contour>
    <contour>
      <point x="986" y="534" type="qcurve" smooth="yes"/>
      <point x="986" y="251"/>
      <point x="822" y="251" type="qcurve" smooth="yes"/>
      <point x="658" y="251"/>
      <point x="658" y="532" type="qcurve" smooth="yes"/>
      <point x="658" y="817"/>
      <point x="822" y="817" type="qcurve" smooth="yes"/>
      <point x="986" y="817"/>
    </contour>
    <contour>
      <point x="1582" y="667" type="qcurve" smooth="yes"/>
      <point x="1582" y="878"/>
      <point x="1316" y="878" type="qcurve" smooth="yes"/>
      <point x="1142" y="878" type="line"/>
      <point x="1142" y="190" type="line"/>
      <point x="1227" y="190" type="line"/>
      <point x="1227" y="446" type="line"/>
      <point x="1316" y="446" type="line" smooth="yes"/>
      <point x="1582" y="446"/>
    </contour>
    <contour>
      <point x="1337" y="810" type="line" smooth="yes"/>
      <point x="1500" y="810"/>
      <point x="1500" y="666" type="qcurve" smooth="yes"/>
      <point x="1500" y="515"/>
      <point x="1334" y="515" type="qcurve" smooth="yes"/>
      <point x="1237" y="515" type="line"/>
      <point x="1237" y="810" type="line"/>
    </contour>
    <contour>
      <point x="419" y="520" type="line"/>
      <point x="419" y="192" type="line"/>
      <point x="504" y="192" type="line"/>
      <point x="504" y="880" type="line"/>
      <point x="419" y="880" type="line"/>
      <point x="419" y="589" type="line"/>
      <point x="157" y="589" type="line"/>
      <point x="157" y="880" type="line"/>
      <point x="72" y="880" type="line"/>
      <point x="72" y="192" type="line"/>
      <point x="157" y="192" type="line"/>
      <point x="157" y="520" type="line"/>
    </contour>
  </outline>
</glyph>
<glyph name="uni0082" format="1">
  <advance width="1644"/>
  <unicode hex="0082"/>
  <outline>
    <contour>
      <point x="1624" y="966" type="line"/>
      <point x="1624" y="69" type="line"/>
      <point x="20" y="69" type="line"/>
      <point x="20" y="966" type="line"/>
    </contour>
    <contour>
      <point x="541" y="376" type="qcurve" smooth="yes"/>
      <point x="541" y="518"/>
      <point x="383" y="545" type="qcurve"/>
      <point x="511" y="572"/>
      <point x="511" y="695" type="qcurve" smooth="yes"/>
      <point x="511" y="868"/>
      <point x="268" y="868" type="qcurve" smooth="yes"/>
      <point x="99" y="868" type="line"/>
      <point x="99" y="180" type="line"/>
      <point x="283" y="180" type="line" smooth="yes"/>
      <point x="393" y="180"/>
      <point x="460" y="222" type="qcurve" smooth="yes"/>
      <point x="541" y="272"/>
    </contour>
    <contour>
      <point x="423" y="690" type="qcurve" smooth="yes"/>
      <point x="423" y="575"/>
      <point x="296" y="575" type="qcurve" smooth="yes"/>
      <point x="184" y="575" type="line"/>
      <point x="184" y="799" type="line"/>
      <point x="288" y="799" type="line" smooth="yes"/>
      <point x="423" y="799"/>
    </contour>
    <contour>
      <point x="451" y="373" type="qcurve" smooth="yes"/>
      <point x="451" y="251"/>
      <point x="299" y="251" type="qcurve" smooth="yes"/>
      <point x="184" y="251" type="line"/>
      <point x="184" y="504" type="line"/>
      <point x="303" y="504" type="line" smooth="yes"/>
      <point x="451" y="504"/>
    </contour>
    <contour>
      <point x="1459" y="510" type="line"/>
      <point x="1459" y="182" type="line"/>
      <point x="1544" y="182" type="line"/>
      <point x="1544" y="870" type="line"/>
      <point x="1459" y="870" type="line"/>
      <point x="1459" y="579" type="line"/>
      <point x="1197" y="579" type="line"/>
      <point x="1197" y="870" type="line"/>
      <point x="1112" y="870" type="line"/>
      <point x="1112" y="182" type="line"/>
      <point x="1197" y="182" type="line"/>
      <point x="1197" y="510" type="line"/>
    </contour>
    <contour>
      <point x="1052" y="657" type="qcurve" smooth="yes"/>
      <point x="1052" y="868"/>
      <point x="786" y="868" type="qcurve" smooth="yes"/>
      <point x="612" y="868" type="line"/>
      <point x="612" y="180" type="line"/>
      <point x="697" y="180" type="line"/>
      <point x="697" y="436" type="line"/>
      <point x="786" y="436" type="line" smooth="yes"/>
      <point x="1052" y="436"/>
    </contour>
    <contour>
      <point x="807" y="800" type="line" smooth="yes"/>
      <point x="970" y="800"/>
      <point x="970" y="656" type="qcurve" smooth="yes"/>
      <point x="970" y="505"/>
      <point x="804" y="505" type="qcurve" smooth="yes"/>
      <point x="707" y="505" type="line"/>
      <point x="707" y="800" type="line"/>
    </contour>
  </outline>
</glyph>
<glyph name="uni0083" format="1">
  <advance width="1644"/>
  <unicode hex="0083"/>
  <outline>
    <contour>
      <point x="1624" y="966" type="line"/>
      <point x="1624" y="69" type="line"/>
      <point x="20" y="69" type="line"/>
      <point x="20" y="966" type="line"/>
    </contour>
    <contour>
      <point x="1051" y="376" type="qcurve" smooth="yes"/>
      <point x="1051" y="518"/>
      <point x="893" y="545" type="qcurve"/>
      <point x="1021" y="572"/>
      <point x="1021" y="695" type="qcurve" smooth="yes"/>
      <point x="1021" y="868"/>
      <point x="778" y="868" type="qcurve" smooth="yes"/>
      <point x="609" y="868" type="line"/>
      <point x="609" y="180" type="line"/>
      <point x="793" y="180" type="line" smooth="yes"/>
      <point x="903" y="180"/>
      <point x="970" y="222" type="qcurve" smooth="yes"/>
      <point x="1051" y="272"/>
    </contour>
    <contour>
      <point x="933" y="690" type="qcurve" smooth="yes"/>
      <point x="933" y="575"/>
      <point x="806" y="575" type="qcurve" smooth="yes"/>
      <point x="694" y="575" type="line"/>
      <point x="694" y="799" type="line"/>
      <point x="798" y="799" type="line" smooth="yes"/>
      <point x="933" y="799"/>
    </contour>
    <contour>
      <point x="961" y="373" type="qcurve" smooth="yes"/>
      <point x="961" y="251"/>
      <point x="809" y="251" type="qcurve" smooth="yes"/>
      <point x="694" y="251" type="line"/>
      <point x="694" y="504" type="line"/>
      <point x="813" y="504" type="line" smooth="yes"/>
      <point x="961" y="504"/>
    </contour>
    <contour>
      <point x="145" y="773" type="line"/>
      <point x="385" y="184" type="line"/>
      <point x="505" y="184" type="line"/>
      <point x="505" y="872" type="line"/>
      <point x="425" y="872" type="line"/>
      <point x="425" y="527" type="line"/>
      <point x="437" y="424"/>
      <point x="437" y="280" type="qcurve"/>
      <point x="433" y="280" type="line"/>
      <point x="189" y="872" type="line"/>
      <point x="73" y="872" type="line"/>
      <point x="73" y="184" type="line"/>
      <point x="153" y="184" type="line"/>
      <point x="153" y="530" type="line"/>
      <point x="141" y="617"/>
      <point x="141" y="773" type="qcurve"/>
    </contour>
    <contour>
      <point x="1459" y="510" type="line"/>
      <point x="1459" y="182" type="line"/>
      <point x="1544" y="182" type="line"/>
      <point x="1544" y="870" type="line"/>
      <point x="1459" y="870" type="line"/>
      <point x="1459" y="579" type="line"/>
      <point x="1197" y="579" type="line"/>
      <point x="1197" y="870" type="line"/>
      <point x="1112" y="870" type="line"/>
      <point x="1112" y="182" type="line"/>
      <point x="1197" y="182" type="line"/>
      <point x="1197" y="510" type="line"/>
    </contour>
  </outline>
</glyph>
<glyph name="uni0084" format="1">
  <advance width="1644"/>
  <unicode hex="0084"/>
  <outline>
    <contour>
      <point x="1624" y="966" type="line"/>
      <point x="1624" y="69" type="line"/>
      <point x="20" y="69" type="line"/>
      <point x="20" y="966" type="line"/>
    </contour>
    <contour>
      <point x="1584" y="541" type="qcurve" smooth="yes"/>
      <point x="1584" y="737"/>
      <point x="1483" y="820" type="qcurve" smooth="yes"/>
      <point x="1406" y="883"/>
      <point x="1262" y="883" type="qcurve" smooth="yes"/>
      <point x="1116" y="883" type="line"/>
      <point x="1116" y="190" type="line"/>
      <point x="1273" y="190" type="line" smooth="yes"/>
      <point x="1584" y="190"/>
    </contour>
    <contour>
      <point x="1506" y="541" type="qcurve" smooth="yes"/>
      <point x="1506" y="260"/>
      <point x="1297" y="260" type="qcurve" smooth="yes"/>
      <point x="1214" y="260" type="line"/>
      <point x="1214" y="812" type="line"/>
      <point x="1296" y="812" type="line" smooth="yes"/>
      <point x="1388" y="812"/>
      <point x="1437" y="767" type="qcurve" smooth="yes"/>
      <point x="1506" y="703"/>
    </contour>
    <contour>
      <point x="645" y="783" type="line"/>
      <point x="885" y="194" type="line"/>
      <point x="1005" y="194" type="line"/>
      <point x="1005" y="882" type="line"/>
      <point x="925" y="882" type="line"/>
      <point x="925" y="537" type="line"/>
      <point x="937" y="434"/>
      <point x="937" y="290" type="qcurve"/>
      <point x="933" y="290" type="line"/>
      <point x="689" y="882" type="line"/>
      <point x="573" y="882" type="line"/>
      <point x="573" y="194" type="line"/>
      <point x="653" y="194" type="line"/>
      <point x="653" y="540" type="line"/>
      <point x="641" y="627"/>
      <point x="641" y="783" type="qcurve"/>
    </contour>
    <contour>
      <point x="471" y="810" type="line"/>
      <point x="471" y="878" type="line"/>
      <point x="77" y="878" type="line"/>
      <point x="77" y="810" type="line"/>
      <point x="231" y="810" type="line"/>
      <point x="231" y="259" type="line"/>
      <point x="77" y="259" type="line"/>
      <point x="77" y="190" type="line"/>
      <point x="471" y="190" type="line"/>
      <point x="471" y="259" type="line"/>
      <point x="317" y="259" type="line"/>
      <point x="317" y="810" type="line"/>
    </contour>
  </outline>
</glyph>
<glyph name="uni0085" format="1">
  <advance width="1644"/>
  <unicode hex="0085"/>
  <outline>
    <contour>
      <point x="1624" y="966" type="line"/>
      <point x="1624" y="69" type="line"/>
      <point x="20" y="69" type="line"/>
      <point x="20" y="966" type="line"/>
    </contour>
    <contour>
      <point x="1165" y="876" type="line"/>
      <point x="1165" y="188" type="line"/>
      <point x="1555" y="188" type="line"/>
      <point x="1565" y="265" type="line"/>
      <point x="1251" y="265" type="line"/>
      <point x="1251" y="876" type="line"/>
    </contour>
    <contour>
      <point x="734" y="575" type="line"/>
      <point x="734" y="808" type="line"/>
      <point x="1028" y="808" type="line"/>
      <point x="1038" y="878" type="line"/>
      <point x="648" y="878" type="line"/>
      <point x="648" y="190" type="line"/>
      <point x="1047" y="190" type="line"/>
      <point x="1047" y="259" type="line"/>
      <point x="734" y="259" type="line"/>
      <point x="734" y="504" type="line"/>
      <point x="989" y="504" type="line"/>
      <point x="989" y="575" type="line"/>
    </contour>
    <contour>
      <point x="145" y="783" type="line"/>
      <point x="385" y="194" type="line"/>
      <point x="505" y="194" type="line"/>
      <point x="505" y="882" type="line"/>
      <point x="425" y="882" type="line"/>
      <point x="425" y="537" type="line"/>
      <point x="437" y="434"/>
      <point x="437" y="290" type="qcurve"/>
      <point x="433" y="290" type="line"/>
      <point x="189" y="882" type="line"/>
      <point x="73" y="882" type="line"/>
      <point x="73" y="194" type="line"/>
      <point x="153" y="194" type="line"/>
      <point x="153" y="540" type="line"/>
      <point x="141" y="627"/>
      <point x="141" y="783" type="qcurve"/>
    </contour>
  </outline>
</glyph>
<glyph name="uni0086" format="1">
  <advance width="1644"/>
  <unicode hex="0086"/>
  <outline>
    <contour>
      <point x="1624" y="966" type="line"/>
      <point x="1624" y="69" type="line"/>
      <point x="20" y="69" type="line"/>
      <point x="20" y="966" type="line"/>
    </contour>
    <contour>
      <point x="1038" y="381" type="qcurve" smooth="yes"/>
      <point x="1038" y="470"/>
      <point x="978" y="522" type="qcurve" smooth="yes"/>
      <point x="933" y="560"/>
      <point x="837" y="588" type="qcurve" smooth="yes"/>
      <point x="738" y="617"/>
      <point x="701" y="644" type="qcurve" smooth="yes"/>
      <point x="663" y="671"/>
      <point x="663" y="715" type="qcurve" smooth="yes"/>
      <point x="663" y="765"/>
      <point x="704" y="792" type="qcurve" smooth="yes"/>
      <point x="741" y="818"/>
      <point x="801" y="818" type="qcurve" smooth="yes"/>
      <point x="897" y="818"/>
      <point x="967" y="755" type="qcurve"/>
      <point x="1018" y="811" type="line"/>
      <point x="926" y="890"/>
      <point x="799" y="890" type="qcurve" smooth="yes"/>
      <point x="700" y="890"/>
      <point x="638" y="840" type="qcurve" smooth="yes"/>
      <point x="576" y="791"/>
      <point x="576" y="713" type="qcurve" smooth="yes"/>
      <point x="576" y="636"/>
      <point x="636" y="587" type="qcurve" smooth="yes"/>
      <point x="686" y="547"/>
      <point x="798" y="514" type="qcurve" smooth="yes"/>
      <point x="886" y="488"/>
      <point x="918" y="459" type="qcurve" smooth="yes"/>
      <point x="949" y="430"/>
      <point x="949" y="379" type="qcurve" smooth="yes"/>
      <point x="949" y="317"/>
      <point x="900" y="282" type="qcurve" smooth="yes"/>
      <point x="856" y="251"/>
      <point x="789" y="251" type="qcurve" smooth="yes"/>
      <point x="675" y="251"/>
      <point x="597" y="324" type="qcurve"/>
      <point x="546" y="266" type="line"/>
      <point x="636" y="179"/>
      <point x="787" y="179" type="qcurve" smooth="yes"/>
      <point x="905" y="179"/>
      <point x="973" y="235" type="qcurve" smooth="yes"/>
      <point x="1038" y="290"/>
    </contour>
    <contour>
      <point x="1173" y="356" type="line"/>
      <point x="1446" y="356" type="line"/>
      <point x="1501" y="180" type="line"/>
      <point x="1591" y="180" type="line"/>
      <point x="1367" y="868" type="line"/>
      <point x="1257" y="868" type="line"/>
      <point x="1033" y="180" type="line"/>
      <point x="1117" y="180" type="line"/>
    </contour>
    <contour>
      <point x="1434" y="427" type="line"/>
      <point x="1205" y="427" type="line"/>
      <point x="1320" y="796" type="line"/>
    </contour>
    <contour>
      <point x="538" y="381" type="qcurve" smooth="yes"/>
      <point x="538" y="470"/>
      <point x="478" y="522" type="qcurve" smooth="yes"/>
      <point x="433" y="560"/>
      <point x="337" y="588" type="qcurve" smooth="yes"/>
      <point x="238" y="617"/>
      <point x="201" y="644" type="qcurve" smooth="yes"/>
      <point x="163" y="671"/>
      <point x="163" y="715" type="qcurve" smooth="yes"/>
      <point x="163" y="765"/>
      <point x="204" y="792" type="qcurve" smooth="yes"/>
      <point x="241" y="818"/>
      <point x="301" y="818" type="qcurve" smooth="yes"/>
      <point x="397" y="818"/>
      <point x="467" y="755" type="qcurve"/>
      <point x="518" y="811" type="line"/>
      <point x="426" y="890"/>
      <point x="299" y="890" type="qcurve" smooth="yes"/>
      <point x="200" y="890"/>
      <point x="138" y="840" type="qcurve" smooth="yes"/>
      <point x="76" y="791"/>
      <point x="76" y="713" type="qcurve" smooth="yes"/>
      <point x="76" y="636"/>
      <point x="136" y="587" type="qcurve" smooth="yes"/>
      <point x="186" y="547"/>
      <point x="298" y="514" type="qcurve" smooth="yes"/>
      <point x="386" y="488"/>
      <point x="418" y="459" type="qcurve" smooth="yes"/>
      <point x="449" y="430"/>
      <point x="449" y="379" type="qcurve" smooth="yes"/>
      <point x="449" y="317"/>
      <point x="400" y="282" type="qcurve" smooth="yes"/>
      <point x="356" y="251"/>
      <point x="289" y="251" type="qcurve" smooth="yes"/>
      <point x="175" y="251"/>
      <point x="97" y="324" type="qcurve"/>
      <point x="46" y="266" type="line"/>
      <point x="136" y="179"/>
      <point x="287" y="179" type="qcurve" smooth="yes"/>
      <point x="405" y="179"/>
      <point x="473" y="235" type="qcurve" smooth="yes"/>
      <point x="538" y="290"/>
    </contour>
  </outline>
</glyph>
<glyph name="uni0087" format="1">
  <advance width="1644"/>
  <unicode hex="0087"/>
  <outline>
    <contour>
      <point x="1624" y="966" type="line"/>
      <point x="1624" y="69" type="line"/>
      <point x="20" y="69" type="line"/>
      <point x="20" y="966" type="line"/>
    </contour>
    <contour>
      <point x="1018" y="381" type="qcurve" smooth="yes"/>
      <point x="1018" y="470"/>
      <point x="958" y="522" type="qcurve" smooth="yes"/>
      <point x="913" y="560"/>
      <point x="817" y="588" type="qcurve" smooth="yes"/>
      <point x="718" y="617"/>
      <point x="681" y="644" type="qcurve" smooth="yes"/>
      <point x="643" y="671"/>
      <point x="643" y="715" type="qcurve" smooth="yes"/>
      <point x="643" y="765"/>
      <point x="684" y="792" type="qcurve" smooth="yes"/>
      <point x="721" y="818"/>
      <point x="781" y="818" type="qcurve" smooth="yes"/>
      <point x="877" y="818"/>
      <point x="947" y="755" type="qcurve"/>
      <point x="998" y="811" type="line"/>
      <point x="906" y="890"/>
      <point x="779" y="890" type="qcurve" smooth="yes"/>
      <point x="680" y="890"/>
      <point x="618" y="840" type="qcurve" smooth="yes"/>
      <point x="556" y="791"/>
      <point x="556" y="713" type="qcurve" smooth="yes"/>
      <point x="556" y="636"/>
      <point x="616" y="587" type="qcurve" smooth="yes"/>
      <point x="666" y="547"/>
      <point x="778" y="514" type="qcurve" smooth="yes"/>
      <point x="866" y="488"/>
      <point x="898" y="459" type="qcurve" smooth="yes"/>
      <point x="929" y="430"/>
      <point x="929" y="379" type="qcurve" smooth="yes"/>
      <point x="929" y="317"/>
      <point x="880" y="282" type="qcurve" smooth="yes"/>
      <point x="836" y="251"/>
      <point x="769" y="251" type="qcurve" smooth="yes"/>
      <point x="655" y="251"/>
      <point x="577" y="324" type="qcurve"/>
      <point x="526" y="266" type="line"/>
      <point x="616" y="179"/>
      <point x="767" y="179" type="qcurve" smooth="yes"/>
      <point x="885" y="179"/>
      <point x="953" y="235" type="qcurve" smooth="yes"/>
      <point x="1018" y="290"/>
    </contour>
    <contour>
      <point x="164" y="575" type="line"/>
      <point x="164" y="808" type="line"/>
      <point x="458" y="808" type="line"/>
      <point x="468" y="878" type="line"/>
      <point x="78" y="878" type="line"/>
      <point x="78" y="190" type="line"/>
      <point x="477" y="190" type="line"/>
      <point x="477" y="259" type="line"/>
      <point x="164" y="259" type="line"/>
      <point x="164" y="504" type="line"/>
      <point x="419" y="504" type="line"/>
      <point x="419" y="575" type="line"/>
    </contour>
    <contour>
      <point x="1173" y="366" type="line"/>
      <point x="1446" y="366" type="line"/>
      <point x="1501" y="190" type="line"/>
      <point x="1591" y="190" type="line"/>
      <point x="1367" y="878" type="line"/>
      <point x="1257" y="878" type="line"/>
      <point x="1033" y="190" type="line"/>
      <point x="1117" y="190" type="line"/>
    </contour>
    <contour>
      <point x="1434" y="437" type="line"/>
      <point x="1205" y="437" type="line"/>
      <point x="1320" y="806" type="line"/>
    </contour>
  </outline>
</glyph>
<glyph name="uni0088" format="1">
  <advance width="1644"/>
  <unicode hex="0088"/>
  <outline>
    <contour>
      <point x="1624" y="966" type="line"/>
      <point x="1624" y="69" type="line"/>
      <point x="20" y="69" type="line"/>
      <point x="20" y="966" type="line"/>
    </contour>
    <contour>
      <point x="1578" y="381" type="qcurve" smooth="yes"/>
      <point x="1578" y="470"/>
      <point x="1518" y="522" type="qcurve" smooth="yes"/>
      <point x="1473" y="560"/>
      <point x="1377" y="588" type="qcurve" smooth="yes"/>
      <point x="1278" y="617"/>
      <point x="1241" y="644" type="qcurve" smooth="yes"/>
      <point x="1203" y="671"/>
      <point x="1203" y="715" type="qcurve" smooth="yes"/>
      <point x="1203" y="765"/>
      <point x="1244" y="792" type="qcurve" smooth="yes"/>
      <point x="1281" y="818"/>
      <point x="1341" y="818" type="qcurve" smooth="yes"/>
      <point x="1437" y="818"/>
      <point x="1507" y="755" type="qcurve"/>
      <point x="1558" y="811" type="line"/>
      <point x="1466" y="890"/>
      <point x="1339" y="890" type="qcurve" smooth="yes"/>
      <point x="1240" y="890"/>
      <point x="1178" y="840" type="qcurve" smooth="yes"/>
      <point x="1116" y="791"/>
      <point x="1116" y="713" type="qcurve" smooth="yes"/>
      <point x="1116" y="636"/>
      <point x="1176" y="587" type="qcurve" smooth="yes"/>
      <point x="1226" y="547"/>
      <point x="1338" y="514" type="qcurve" smooth="yes"/>
      <point x="1426" y="488"/>
      <point x="1458" y="459" type="qcurve" smooth="yes"/>
      <point x="1489" y="430"/>
      <point x="1489" y="379" type="qcurve" smooth="yes"/>
      <point x="1489" y="317"/>
      <point x="1440" y="282" type="qcurve" smooth="yes"/>
      <point x="1396" y="251"/>
      <point x="1329" y="251" type="qcurve" smooth="yes"/>
      <point x="1215" y="251"/>
      <point x="1137" y="324" type="qcurve"/>
      <point x="1086" y="266" type="line"/>
      <point x="1176" y="179"/>
      <point x="1327" y="179" type="qcurve" smooth="yes"/>
      <point x="1445" y="179"/>
      <point x="1513" y="235" type="qcurve" smooth="yes"/>
      <point x="1578" y="290"/>
    </contour>
    <contour>
      <point x="863" y="190" type="line"/>
      <point x="863" y="805" type="line"/>
      <point x="1072" y="805" type="line"/>
      <point x="1081" y="878" type="line"/>
      <point x="562" y="878" type="line"/>
      <point x="562" y="805" type="line"/>
      <point x="778" y="805" type="line"/>
      <point x="778" y="190" type="line"/>
    </contour>
    <contour>
      <point x="409" y="510" type="line"/>
      <point x="409" y="182" type="line"/>
      <point x="494" y="182" type="line"/>
      <point x="494" y="870" type="line"/>
      <point x="409" y="870" type="line"/>
      <point x="409" y="579" type="line"/>
      <point x="147" y="579" type="line"/>
      <point x="147" y="870" type="line"/>
      <point x="62" y="870" type="line"/>
      <point x="62" y="182" type="line"/>
      <point x="147" y="182" type="line"/>
      <point x="147" y="510" type="line"/>
    </contour>
  </outline>
</glyph>
<glyph name="uni0089" format="1">
  <advance width="1644"/>
  <unicode hex="0089"/>
  <outline>
    <contour>
      <point x="1624" y="966" type="line"/>
      <point x="1624" y="69" type="line"/>
      <point x="20" y="69" type="line"/>
      <point x="20" y="966" type="line"/>
    </contour>
    <contour>
      <point x="913" y="190" type="line"/>
      <point x="913" y="805" type="line"/>
      <point x="1122" y="805" type="line"/>
      <point x="1131" y="878" type="line"/>
      <point x="612" y="878" type="line"/>
      <point x="612" y="805" type="line"/>
      <point x="828" y="805" type="line"/>
      <point x="828" y="190" type="line"/>
    </contour>
    <contour>
      <point x="429" y="510" type="line"/>
      <point x="429" y="182" type="line"/>
      <point x="514" y="182" type="line"/>
      <point x="514" y="870" type="line"/>
      <point x="429" y="870" type="line"/>
      <point x="429" y="579" type="line"/>
      <point x="167" y="579" type="line"/>
      <point x="167" y="870" type="line"/>
      <point x="82" y="870" type="line"/>
      <point x="82" y="182" type="line"/>
      <point x="167" y="182" type="line"/>
      <point x="167" y="510" type="line"/>
    </contour>
    <contour>
      <point x="1541" y="878" type="line"/>
      <point x="1252" y="878" type="line"/>
      <point x="1252" y="808" type="line"/>
      <point x="1456" y="808" type="line"/>
      <point x="1456" y="423" type="line" smooth="yes"/>
      <point x="1456" y="342"/>
      <point x="1417" y="296" type="qcurve" smooth="yes"/>
      <point x="1377" y="250"/>
      <point x="1306" y="250" type="qcurve" smooth="yes"/>
      <point x="1232" y="250"/>
      <point x="1156" y="298" type="qcurve"/>
      <point x="1118" y="241" type="line"/>
      <point x="1201" y="178"/>
      <point x="1307" y="178" type="qcurve" smooth="yes"/>
      <point x="1431" y="178"/>
      <point x="1492" y="255" type="qcurve" smooth="yes"/>
      <point x="1541" y="318"/>
      <point x="1541" y="418" type="qcurve" smooth="yes"/>
    </contour>
  </outline>
</glyph>
<glyph name="uni008A" format="1">
  <advance width="1644"/>
  <unicode hex="008A"/>
  <outline>
    <contour>
      <point x="1624" y="966" type="line"/>
      <point x="1624" y="69" type="line"/>
      <point x="20" y="69" type="line"/>
      <point x="20" y="966" type="line"/>
    </contour>
    <contour>
      <point x="1588" y="391" type="qcurve" smooth="yes"/>
      <point x="1588" y="480"/>
      <point x="1528" y="532" type="qcurve" smooth="yes"/>
      <point x="1483" y="570"/>
      <point x="1387" y="598" type="qcurve" smooth="yes"/>
      <point x="1288" y="627"/>
      <point x="1251" y="654" type="qcurve" smooth="yes"/>
      <point x="1213" y="681"/>
      <point x="1213" y="725" type="qcurve" smooth="yes"/>
      <point x="1213" y="775"/>
      <point x="1254" y="802" type="qcurve" smooth="yes"/>
      <point x="1291" y="828"/>
      <point x="1351" y="828" type="qcurve" smooth="yes"/>
      <point x="1447" y="828"/>
      <point x="1517" y="765" type="qcurve"/>
      <point x="1568" y="821" type="line"/>
      <point x="1476" y="900"/>
      <point x="1349" y="900" type="qcurve" smooth="yes"/>
      <point x="1250" y="900"/>
      <point x="1188" y="850" type="qcurve" smooth="yes"/>
      <point x="1126" y="801"/>
      <point x="1126" y="723" type="qcurve" smooth="yes"/>
      <point x="1126" y="646"/>
      <point x="1186" y="597" type="qcurve" smooth="yes"/>
      <point x="1236" y="557"/>
      <point x="1348" y="524" type="qcurve" smooth="yes"/>
      <point x="1436" y="498"/>
      <point x="1468" y="469" type="qcurve" smooth="yes"/>
      <point x="1499" y="440"/>
      <point x="1499" y="389" type="qcurve" smooth="yes"/>
      <point x="1499" y="327"/>
      <point x="1450" y="292" type="qcurve" smooth="yes"/>
      <point x="1406" y="261"/>
      <point x="1339" y="261" type="qcurve" smooth="yes"/>
      <point x="1225" y="261"/>
      <point x="1147" y="334" type="qcurve"/>
      <point x="1096" y="276" type="line"/>
      <point x="1186" y="189"/>
      <point x="1337" y="189" type="qcurve" smooth="yes"/>
      <point x="1455" y="189"/>
      <point x="1523" y="245" type="qcurve" smooth="yes"/>
      <point x="1588" y="300"/>
    </contour>
    <contour>
      <point x="913" y="190" type="line"/>
      <point x="913" y="805" type="line"/>
      <point x="1122" y="805" type="line"/>
      <point x="1131" y="878" type="line"/>
      <point x="612" y="878" type="line"/>
      <point x="612" y="805" type="line"/>
      <point x="828" y="805" type="line"/>
      <point x="828" y="190" type="line"/>
    </contour>
    <contour>
      <point x="504" y="878" type="line"/>
      <point x="317" y="288" type="line"/>
      <point x="132" y="878" type="line"/>
      <point x="40" y="878" type="line"/>
      <point x="271" y="190" type="line"/>
      <point x="359" y="190" type="line"/>
      <point x="590" y="878" type="line"/>
    </contour>
  </outline>
</glyph>
<glyph name="uni008B" format="1">
  <advance width="1644"/>
  <unicode hex="008B"/>
  <outline>
    <contour>
      <point x="1624" y="966" type="line"/>
      <point x="1624" y="69" type="line"/>
      <point x="20" y="69" type="line"/>
      <point x="20" y="966" type="line"/>
    </contour>
    <contour>
      <point x="1574" y="541" type="qcurve" smooth="yes"/>
      <point x="1574" y="737"/>
      <point x="1473" y="820" type="qcurve" smooth="yes"/>
      <point x="1396" y="883"/>
      <point x="1252" y="883" type="qcurve" smooth="yes"/>
      <point x="1106" y="883" type="line"/>
      <point x="1106" y="190" type="line"/>
      <point x="1263" y="190" type="line" smooth="yes"/>
      <point x="1574" y="190"/>
    </contour>
    <contour>
      <point x="1486" y="541" type="qcurve" smooth="yes"/>
      <point x="1486" y="260"/>
      <point x="1277" y="260" type="qcurve" smooth="yes"/>
      <point x="1194" y="260" type="line"/>
      <point x="1194" y="812" type="line"/>
      <point x="1276" y="812" type="line" smooth="yes"/>
      <point x="1368" y="812"/>
      <point x="1417" y="767" type="qcurve" smooth="yes"/>
      <point x="1486" y="703"/>
    </contour>
    <contour>
      <point x="532" y="667" type="qcurve" smooth="yes"/>
      <point x="532" y="878"/>
      <point x="266" y="878" type="qcurve" smooth="yes"/>
      <point x="92" y="878" type="line"/>
      <point x="92" y="190" type="line"/>
      <point x="177" y="190" type="line"/>
      <point x="177" y="446" type="line"/>
      <point x="266" y="446" type="line" smooth="yes"/>
      <point x="532" y="446"/>
    </contour>
    <contour>
      <point x="287" y="810" type="line" smooth="yes"/>
      <point x="450" y="810"/>
      <point x="450" y="666" type="qcurve" smooth="yes"/>
      <point x="450" y="515"/>
      <point x="284" y="515" type="qcurve" smooth="yes"/>
      <point x="187" y="515" type="line"/>
      <point x="187" y="810" type="line"/>
    </contour>
    <contour>
      <point x="625" y="876" type="line"/>
      <point x="625" y="188" type="line"/>
      <point x="1015" y="188" type="line"/>
      <point x="1025" y="265" type="line"/>
      <point x="711" y="265" type="line"/>
      <point x="711" y="876" type="line"/>
    </contour>
  </outline>
</glyph>
